<?xml version="1.0" standalone="no"?>
<!DOCTYPE svg PUBLIC "-//W3C//DTD SVG 1.1//EN" "http://www.w3.org/Graphics/SVG/1.1/DTD/svg11.dtd" >
<svg>
<metadata>
Created by FontForge 20090914 at Wed Aug  3 16:21:03 2022
 By www-data
(c)2001 P22 Type Foundry, Inc. 0101
</metadata>
<defs>
<font id="P22ArtsandCraftsTall" horiz-adv-x="400" >
  <font-face 
    font-family="P22 Arts and Crafts Tall"
    font-weight="400"
    font-stretch="normal"
    units-per-em="1000"
    panose-1="0 0 4 0 0 0 0 0 0 0"
    ascent="800"
    descent="-200"
    x-height="550"
    cap-height="750"
    bbox="-65.999 -155 785 920.001"
    underline-thickness="20"
    underline-position="-123"
    unicode-range="U+0020-U+F002"
  />
<missing-glyph horiz-adv-x="500" 
d="M63 0v800h375v-800h-375zM125 63h250v675h-250v-675z" />
    <glyph glyph-name=".notdef" horiz-adv-x="500" 
d="M63 0v800h375v-800h-375zM125 63h250v675h-250v-675z" />
    <glyph glyph-name="space" unicode=" " horiz-adv-x="276" 
 />
    <glyph glyph-name="exclam" unicode="!" horiz-adv-x="195" 
d="M125 738l-3 -601c0 -8 -4 -12 -12 -12h-25c-8.66699 0 -13 4 -13 12l-2 601c0 8 4.33301 12 13 12h30c8 0 12 -4 12 -12zM135 13c0 -8.66699 -4 -13 -12 -13h-50c-8.66699 -0 -13 4.33301 -13 13v50c0 8 4.33301 12 13 12h50c8 0 12 -4 12 -12v-50z" />
    <glyph glyph-name="quotedbl" unicode="&#x22;" horiz-adv-x="270" 
d="M210 613c0 -8.66699 -4 -13 -12 -13h-25c-8.66699 0 -13 4.33301 -13 13v125c0 8 4.33301 12 13 12h25c8 0 12 -4 12 -12v-125zM110 613c0 -8.66699 -4 -13 -12 -13h-25c-8.66699 0 -13 4.33301 -13 13v125c0 8 4.33301 12 13 12h25c8 0 12 -4 12 -12v-125z" />
    <glyph glyph-name="numbersign" unicode="#" horiz-adv-x="466" 
d="M406 513l-4 -25c-1.33301 -8.66699 -6 -13 -14 -13h-25c-8.66699 0 -13.667 -4 -15 -12l-30 -175c-1.33301 -8.66699 2.33398 -13 11.001 -13h25c8 0 11.333 -4 10 -12l-4 -25c-1.33301 -8.66699 -6.33301 -13 -15 -13h-25c-8 0 -12.667 -4 -14 -12l-21 -125
c-1.33301 -8.66699 -6.33301 -13 -15 -13h-25c-8 0 -11.333 4.33301 -10 13l21 125c1.33301 8 -2.33398 12 -11.001 12h-75c-8 0 -12.667 -4 -14 -12l-21 -125c-1.33301 -8.66699 -6.33301 -13 -15 -13h-25c-8 0 -11.333 4.33301 -10 13l21 125
c1.33301 8 -2.33398 12 -11.001 12h-25c-8 0 -11.333 4.33301 -10 13l4 25c1.33301 8 6.33301 12 15 12h25c8 0 12.667 4.33301 14 13l30 175c1.33301 8 -2 12 -10 12h-25c-8.66699 0 -12.334 4.33301 -11.001 13l4 25c2 8 7 12 15 12h25c8.66699 0 13.667 4.33301 15 13
l21 125c1.33301 8 6 12 14 12h25c8.66699 0 12.334 -4 11.001 -12l-21 -125c-1.33301 -8.66699 2 -13 10 -13h75c8.66699 0 13.667 4.33301 15 13l21 125c1.33301 8 6 12 14 12h25c8.66699 0 12.334 -4 11.001 -12l-21 -125c-1.33301 -8.66699 2 -13 10 -13h25
c8.66699 0 12 -4 10 -12zM298 463c1.33301 8 -2.00098 12 -10.001 12h-75c-8.66699 0 -13.667 -4 -15 -12l-30 -175c-1.33301 -8.66699 2.33398 -13 11.001 -13h75c8 0 12.667 4.33301 14 13z" />
    <glyph glyph-name="dollar" unicode="$" horiz-adv-x="390" 
d="M370 548c0 -116.667 -48 -237.335 -144 -362.002l-1 -1c-3.33301 -4.66699 -5 -10.667 -5 -18v-154c0 -8.66699 -4.33301 -13 -13 -13h-25c-8 0 -12 4.33301 -12 13v83c0 9.33301 -2.66699 14 -8 14c-2 0 -4.66699 -1.33301 -8 -4c-39.333 -38.667 -76 -70 -110 -94
l-11 -9c-8.66699 -6 -13 -5 -13 3v39c0 7.33301 3.66699 14 11 20c48 36 92 77.333 132 124c4.66699 5.33301 7 11.333 7 18v381c0 8 -4.33301 12 -13 12h-62c-20.667 0 -38.334 7.33301 -53.001 22s-22 32.334 -22 53.001s7.33301 38.334 22 53.001s32.334 22 53.001 22h62
c8.66699 0 13 4.33301 13 13v25c0 8 4 12 12 12h25c8.66699 0 13 -4 13 -12v-25c0 -8.66699 4 -13 12 -13h100c8.66699 0 13 -4 13 -12v-25c0 -8.66699 -4.33301 -13 -13 -13h-100c-8 0 -12 -4 -12 -12v-25c0 -8.66699 4 -13 12 -13h76c41.333 0 62 -34 62 -102z
M170 662.999v25c0 8 -4.33301 12 -13 12h-62c-16.667 0 -25 -8.33301 -25 -25s8.33301 -25 25 -25h62c8.66699 0 13 4.33301 13 13zM320 547.999c0 34.667 -7 52 -21 52h-67c-8 0 -12 -4 -12 -12v-295c0 -12 1.66699 -18 5 -18c2.66699 0 6.66699 4.33301 12 13
c55.333 88 83 174.667 83 260z" />
    <glyph glyph-name="percent" unicode="%" horiz-adv-x="464" 
d="M260 650c0 -27.333 -9.83301 -50.833 -29.5 -70.5s-43.167 -29.5 -70.5 -29.5s-50.833 9.83301 -70.5 29.5s-29.5 43.167 -29.5 70.5s9.83301 50.833 29.5 70.5s43.167 29.5 70.5 29.5s50.833 -9.83301 70.5 -29.5s29.5 -43.167 29.5 -70.5zM399 738l-279.002 -725
c-3.33301 -8.66699 -9.66602 -13 -18.999 -13h-26c-9.33301 -0 -12.333 4.33301 -9 13l280 725c3.33301 8 9.33301 12 18 12h27c8.66699 0 11.334 -4 8.00098 -12zM403.998 100c0 -27.333 -9.66699 -50.833 -29 -70.5s-43 -29.5 -71 -29.5
c-27.333 -0 -50.833 9.83301 -70.5 29.5s-29.5 43.167 -29.5 70.5s9.83301 50.833 29.5 70.5s43.167 29.5 70.5 29.5c28 0 51.667 -9.83301 71 -29.5s29 -43.167 29 -70.5zM213.998 650c0 14.667 -5.33301 27.334 -16 38.001s-23.334 16 -38.001 16
s-27.334 -5.33301 -38.001 -16s-16 -23.334 -16 -38.001s5.33301 -27.334 16 -38.001s23.334 -16 38.001 -16s27.334 5.33301 38.001 16s16 23.334 16 38.001zM357.998 100c0 14.667 -5.16699 27.334 -15.5 38.001s-23.166 16 -38.499 16
c-14.667 0 -27.167 -5.33301 -37.5 -16s-15.5 -23.334 -15.5 -38.001s5.16699 -27.334 15.5 -38.001s22.833 -16 37.5 -16c15.333 0 28.166 5.33301 38.499 16s15.5 23.334 15.5 38.001z" />
    <glyph glyph-name="ampersand" unicode="&#x26;" horiz-adv-x="460" 
d="M440 413c0 -8.66699 -3.99902 -13.002 -11.999 -13.002h-25c-8.66699 0 -13 -4.33301 -13 -13v-373v-1c0 -8.66699 -4 -13 -12 -13c-3.33301 0 -6.33301 1.33301 -9 4c-94 68 -169.333 140.667 -226 218c-68.667 94 -103 186.667 -103 278c0 24 4.33301 45.333 13 64
c11.333 24 28 36 50 36h89c3.33301 0 3.66602 1.33301 0.999023 4l-147 123c-4 2.66699 -6 6.33398 -6 11.001c0 8 4.33301 12 13 12h325c8 0 12 -4 12 -12v-25c0 -8.66699 -4 -13 -12 -13h-216c-4 0 -4.66699 -1 -2 -3l148 -125c3.33301 -2.66699 5 -5.66699 5 -9
c0 -8.66699 -4.33301 -13 -13 -13h-188c-14.667 0 -22 -16.667 -22 -50c0 -133.333 79.333 -266.666 238 -399.999c8 -7.33301 12 -5.33301 12 6v318c0 17.333 8.66699 26 26 26h62c8 0 12 -4 12 -12v-25z" />
    <glyph glyph-name="quotesingle" unicode="'" horiz-adv-x="170" 
d="M110 613c0 -8.66699 -4 -13 -12 -13h-25c-8.66699 0 -13 4.33301 -13 13v125c0 8 4.33301 12 13 12h25c8 0 12 -4 12 -12v-125z" />
    <glyph glyph-name="parenleft" unicode="(" horiz-adv-x="279" 
d="M229 13c7.33301 -8.66699 5.33301 -13.0039 -6 -13.0039h-28c-10 0 -18 4 -24 12l-20 27c-60.667 84.667 -91 197.667 -91 339c0 144.667 32 258.334 96 341.001l14 19c6.66699 8 15 12 25 12h25c13.333 0 16 -4 8 -12l-18 -19c-34 -37.333 -60 -87.666 -78 -150.999
c-18 -59.333 -27 -123.666 -27 -192.999s9 -133.666 27 -192.999c18 -63.333 44 -113 78 -149z" />
    <glyph glyph-name="parenright" unicode=")" horiz-adv-x="279" 
d="M128 39l-20 -26.9961c-6 -8 -14 -12 -24 -12h-28c-12 0 -14 4.33301 -6 13l19 20c33.333 36 59.333 85.667 78 149c17.333 59.333 26 123.666 26 192.999s-8.66699 133.666 -26 192.999c-18.667 63.333 -45 113.666 -79 150.999l-17 19c-8 8 -5.66699 12 7 12h26
c10 0 18 -4 24 -12l15 -19c64 -82.667 96 -196.334 96 -341.001c0 -141.333 -30.333 -254.333 -91 -339z" />
    <glyph glyph-name="asterisk" unicode="*" horiz-adv-x="457" 
d="M397 480l-12 -22.001c-4.66699 -7.33301 -10.334 -9 -17.001 -5l-98 57c-2.66699 1.33301 -6 1.16602 -10 -0.500977s-6 -4.5 -6 -8.5v-113c0 -8.66699 -4.33301 -13 -13 -13h-25c-8 0 -12 4.33301 -12 13v112c0 3.33301 -2 6.33301 -6 9s-7.33301 3 -10 1l-98 -57
c-7.33301 -4 -13 -2.33301 -17 5l-13 22c-4 6.66699 -2.33301 12.334 5 17.001l97 56c3.33301 2 5 5 5 9c0 4.66699 -1.33301 8 -4 10l-98 56c-7.33301 4.66699 -9 10.334 -5 17.001l13 22c4 7.33301 9.66699 9 17 5l97 -57c3.33301 -1.33301 7 -1.16602 11 0.500977
s6 4.16699 6 7.5v115c0 8 4 12 12 12h25c8.66699 0 13 -4 13 -12v-114c0 -3.33301 1.83301 -6.16602 5.5 -8.49902s6.83398 -2.5 9.50098 -0.5l99 57c6.66699 4 12.334 2.33301 17.001 -5l12 -22c4 -6.66699 2.66699 -12.334 -4 -17.001l-98 -56c-3.33301 -2 -5 -5 -5 -9
c-0.666992 -4.66699 0.666016 -7.66699 3.99902 -9l99 -57c6.66699 -4.66699 8 -10.334 4 -17.001z" />
    <glyph glyph-name="plus" unicode="+" horiz-adv-x="370" 
d="M310 364c0 -8.66699 -4 -13 -12 -13h-75c-8.66699 0 -13 -4.33301 -13 -13v-75c0 -8 -4 -12 -12 -12h-25c-8.66699 0 -13 4 -13 12v75c0 8.66699 -4 13 -12 13h-75c-8.66699 0 -13 4.33301 -13 13v25c0 8 4.33301 12 13 12h75c8 0 12 4.33301 12 13v75
c0 8 4.33301 12 13 12h25c8 0 12 -4 12 -12v-75c0 -8.66699 4.33301 -13 13 -13h75c8 0 12 -4 12 -12v-25z" />
    <glyph glyph-name="comma" unicode="," horiz-adv-x="195" 
d="M135 -27c0 -22 -10.001 -37.333 -30.001 -46c-2 -1.33301 -4.33301 -2 -7 -2c-7.33301 0 -11.666 4 -12.999 12v51c0 6 -4.16699 10 -12.5 12s-12.5 6.33301 -12.5 13v50c0 8 4.33301 12 13 12h50c8 0 12 -4 12 -12v-90z" />
    <glyph glyph-name="hyphen" unicode="-" horiz-adv-x="270" 
d="M210 364c0 -8.66699 -4 -13 -12 -13h-125c-8.66699 0 -13 4.33301 -13 13v25c0 8 4.33301 12 13 12h125c8 0 12 -4 12 -12v-25z" />
    <glyph glyph-name="hyphen" unicode="&#x2010;" horiz-adv-x="270" 
d="M210 364c0 -8.66699 -4 -13 -12 -13h-125c-8.66699 0 -13 4.33301 -13 13v25c0 8 4.33301 12 13 12h125c8 0 12 -4 12 -12v-25z" />
    <glyph glyph-name="period" unicode="." horiz-adv-x="195" 
d="M135 13c0 -8.66699 -4 -13 -12 -13h-50c-8.66699 -0 -13 4.33301 -13 13v50c0 8 4.33301 12 13 12h50c8 0 12 -4 12 -12v-50z" />
    <glyph glyph-name="slash" unicode="/" horiz-adv-x="369" 
d="M359 738l-299 -725c-3.33301 -8.66699 -9.33301 -13 -18 -13h-25c-8 -0 -10.333 4.33301 -7 13l299 725c3.33301 8 9.33301 12 18 12h25c8 0 10.333 -4 7 -12z" />
    <glyph glyph-name="zero" unicode="0" 
d="M375 574c0 -110 -9.33301 -220 -28 -330c-31.333 -179.333 -80.333 -269 -147 -269s-115.667 89.667 -147 269c-18.667 110 -28 220 -28 330c0 48.667 16.333 93.667 49 135c35.333 44 77.333 66 126 66s90.667 -22 126 -66c32.667 -41.333 49 -86.333 49 -135zM325 574
c0 37.333 -12.833 71.833 -38.5 103.5s-54.5 47.5 -86.5 47.5s-60.833 -15.833 -86.5 -47.5s-38.5 -66.167 -38.5 -103.5c0 -78 8.66699 -176 26 -294c24.667 -170 57.667 -255 99 -255s74.333 85 99 255c17.333 118 26 216 26 294z" />
    <glyph glyph-name="one" unicode="1" 
d="M249 13c0 -8.66699 -4 -13 -12 -13h-25c-8.66699 -0 -13 4.33301 -13 13v669c0 9.33301 -4 13.666 -12 12.999l-75 -8c-8.66699 -0.666992 -13 3 -13 11v25c0 8.66699 4.33301 13.334 13 14.001l125 13c8 0.666992 12 -3 12 -11v-726z" />
    <glyph glyph-name="two" unicode="2" 
d="M375 13c0 -8.66699 -3.99902 -12.999 -11.999 -12.999h-325c-8.66699 0 -13 4.33301 -13 13v26c2 92 60.667 234.333 176 427c32.667 55.333 49 125 49 209c0 14 -4.83301 25.833 -14.5 35.5s-21.5 14.5 -35.5 14.5c-13.333 0 -25 -5 -35 -15s-15 -21.667 -15 -35v-37
c0 -8.66699 -4 -13 -12 -13h-25c-8.66699 0 -13 4.33301 -13 13v37c0 27.333 9.83301 50.833 29.5 70.5s43.167 29.5 70.5 29.5c28 0 51.667 -9.83301 71 -29.5s29 -43.167 29 -70.5c0 -65.333 -9.33301 -122 -28 -170c-10.667 -28.667 -35.667 -76.334 -75 -143.001
c-74.667 -125.333 -115 -225.333 -121 -300c-0.666992 -8 3.66602 -12 12.999 -12h274c8 0 12 -4 12 -12v-25z" />
    <glyph glyph-name="three" unicode="3" 
d="M375 500c0 -91.333 -34.334 -183.999 -103.001 -277.999c-56.667 -77.333 -132 -150 -226 -218c-2 -2.66699 -4.66699 -4 -8 -4c-8.66699 0 -13 4.33301 -13 13v31c0 4 1.66699 7.33301 5 10c86.667 64.667 155.334 132.667 206.001 204c59.333 83.333 89 164 89 242
c0 33.333 -7.33301 50 -22 50h-178c-8.66699 0 -13 4.33301 -13 13c0 3.33301 1.66699 6.33301 5 9l128 125c2.66699 2 2.33398 3 -0.999023 3h-176c-8.66699 0 -13 4.33301 -13 13v25c0 8 4.33301 12 13 12h275c8 0 12 -4 12 -12c0 -4.66699 -2 -8.33398 -6 -11.001
l-127 -123c-2 -2.66699 -1.33301 -4 2 -4h89c21.333 0 37.666 -12 48.999 -36c8.66699 -18.667 13 -40 13 -64z" />
    <glyph glyph-name="four" unicode="4" 
d="M375 363c0 -8.66699 -4.33301 -13 -13 -13h-25c-8 0 -12 -4 -12 -12v-325c0 -8.66699 -4.33301 -13 -13 -13h-25c-8 -0 -12 4.33301 -12 13v325c0 8 -4.33301 12 -13 12h-225c-8 0 -12 4.33301 -12 13c0 2 1 4.66699 3 8l274 384c2.66699 3.33301 6 5 10 5
c8.66699 0 13 -4 13 -12v-335c0 -8.66699 4 -13 12 -13h25c8.66699 0 13 -4 13 -12v-25zM275 413v196.001c0 3.33301 -1.66699 6 -5 8c-3.33301 1.33301 -6 0.666016 -8 -2.00098l-141 -202c-6 -8.66699 -4 -13 6 -13h135c8.66699 0 13 4.33301 13 13z" />
    <glyph glyph-name="five" unicode="5" 
d="M353 713c0 -8.66699 -4 -13.002 -12 -13.002h-240c-8.66699 0 -13 -4 -13 -12v-186c0 -8 2.66699 -9 8 -3c73.333 87.333 136 131 188 131c23.333 0 44.333 -8.33301 63 -25c26 -22.667 39 -52.667 39 -90c0 -75.333 -49.667 -174.666 -149 -297.999
c-73.333 -92 -141.333 -162.667 -204 -212c-10 -7.33301 -15 -6.33301 -15 3v39c0 7.33301 4.33301 15 13 23c69.333 67.333 131 135.666 185 204.999c80.667 102.667 121 181.334 121 236.001c0 24 -7.66699 42.667 -23 56c-8.66699 8 -18.667 12 -30 12
c-30.667 0 -72 -28.667 -124 -86c-10 -10.667 -46 -55.667 -108 -135c-9.33301 -11.333 -14 -10.666 -14 2.00098v365c0 16.667 8.33301 25 25 25h278c8 0 12 -4 12 -12v-25z" />
    <glyph glyph-name="six" unicode="6" 
d="M375 150c0 -48 -17 -89.168 -51 -123.501s-75.333 -51.5 -124 -51.5c-48 0 -89.167 17.167 -123.5 51.5s-51.5 75.5 -51.5 123.5c0 130 26 249.333 78 358c47.333 99.333 110.666 179 189.999 239c8 6 12 5 12 -3v-42c0 -6 -3 -12 -9 -18
c-109.333 -99.333 -178.333 -227.333 -207 -384c-0.666992 -4.66699 0 -7.66699 2 -9s4.66699 -0.666016 8 2.00098c30.667 21.333 64.334 32 101.001 32c48.667 0 90 -17.167 124 -51.5s51 -75.5 51 -123.5zM325 149.999c0 34.667 -12.167 64.167 -36.5 88.5
s-53.833 36.5 -88.5 36.5c-34 0 -63.333 -12.167 -88 -36.5s-37 -53.833 -37 -88.5s12.333 -64.167 37 -88.5s54 -36.5 88 -36.5c34.667 0 64.167 12.167 88.5 36.5s36.5 53.833 36.5 88.5z" />
    <glyph glyph-name="seven" unicode="7" 
d="M372 681c0 -138.667 -30.333 -269.001 -91 -391.001c-58.667 -118.667 -138.667 -214.667 -240 -288c-2 -1.33301 -4.33301 -2 -7 -2c-8 0 -12 4 -12 12v32c0 4 1.66699 7.33301 5 10c90 68.667 161.333 158 214 268c54 112.667 81 232.334 81 359.001
c0 12.667 -4.33301 19 -13 19h-274c-8.66699 0 -13 4.33301 -13 13v25c0 8 4.33301 12 13 12h302c23.333 0 35 -23 35 -69z" />
    <glyph glyph-name="eight" unicode="8" 
d="M375 350c0 -103.333 -16.998 -191.666 -50.998 -264.999s-75.333 -110 -124 -110c-48 0 -89.167 36.667 -123.5 110s-51.5 161.666 -51.5 264.999c0 68 29.667 118.667 89 152c-42.667 30 -64 71 -64 123c0 41.333 14.667 76.666 44 105.999s64.666 44 105.999 44
s76.666 -14.667 105.999 -44s44 -64.666 44 -105.999c0 -52 -21 -93 -63 -123c58.667 -33.333 88 -84 88 -152zM300.002 625c0 27.333 -9.66699 50.833 -29 70.5s-43 29.5 -71 29.5c-27.333 0 -50.833 -9.83301 -70.5 -29.5s-29.5 -43.167 -29.5 -70.5
s9.83301 -50.833 29.5 -70.5s43.167 -29.5 70.5 -29.5c28 0 51.667 9.83301 71 29.5s29 43.167 29 70.5zM325.002 350c0 34.667 -12.167 64.167 -36.5 88.5s-53.833 36.5 -88.5 36.5c-34 0 -63.333 -12.167 -88 -36.5s-37 -53.833 -37 -88.5c0 -90 12.333 -166.667 37 -230
s54 -95 88 -95c34.667 0 64.167 31.667 88.5 95s36.5 140 36.5 230z" />
    <glyph glyph-name="nine" unicode="9" 
d="M379 613l0.000976562 -13c0 -146.667 -23.333 -270 -70 -370c-36.667 -79.333 -85.667 -140 -147 -182c-46.667 -32 -90.667 -48 -132 -48h-14c-8 -0 -12 4.33301 -12 13v25c0 8 4 12 12 12h13c25.333 0 55.333 10.333 90 31c48 28.667 88.333 70.334 121 125.001
c43.333 71.333 70.666 160.666 81.999 267.999c0.666992 4.66699 0 7.66699 -2 9c-2 0.666992 -4.66699 0 -8 -2c-28.667 -20.667 -60.667 -31 -96 -31c-44.667 0 -82.834 15.833 -114.501 47.5s-47.5 70.167 -47.5 115.5c0 44.667 15.833 82.834 47.5 114.501
s69.834 47.5 114.501 47.5c45.333 0 83.833 -15.833 115.5 -47.5s47.5 -69.834 47.5 -114.501zM329.001 613c0 30.667 -11 57 -33 79s-48.667 33 -80 33c-30.667 0 -57 -11 -79 -33s-33 -48.333 -33 -79c0 -31.333 11 -58 33 -80s48.333 -33 79 -33c31.333 0 58 11 80 33
s33 48.667 33 80z" />
    <glyph glyph-name="colon" unicode=":" horiz-adv-x="195" 
d="M135 488c0 -8.66699 -4 -13 -12 -13h-50c-8.66699 0 -13 4.33301 -13 13v50c0 8 4.33301 12 13 12h50c8 0 12 -4 12 -12v-50zM135 213c0 -8.66699 -4 -13 -12 -13h-50c-8.66699 0 -13 4.33301 -13 13v50c0 8 4.33301 12 13 12h50c8 0 12 -4 12 -12v-50z" />
    <glyph glyph-name="semicolon" unicode=";" horiz-adv-x="195" 
d="M135 488c0 -8.66699 -4 -13 -12 -13h-50c-8.66699 0 -13 4.33301 -13 13v50c0 8 4.33301 12 13 12h50c8 0 12 -4 12 -12v-50zM135 173c0 -22 -10.001 -37.333 -30.001 -46c-2 -1.33301 -4.33301 -2 -7 -2c-7.33301 0 -11.666 4 -12.999 12v51c0 6 -4.16699 10 -12.5 12
s-12.5 6.33301 -12.5 13v50c0 8 4.33301 12 13 12h50c8 0 12 -4 12 -12v-90z" />
    <glyph glyph-name="less" unicode="&#x3c;" horiz-adv-x="375" 
d="M315 127c0 -11.333 -3 -14.334 -9 -9.00098l-239 239c-4.66699 4.66699 -7 10.667 -7 18c0 6.66699 2.33301 12.334 7 17.001l239 239c6 6 9 3 9 -9v-35c0 -12 -3 -21 -9 -27l-177 -176c-6 -6 -6 -12 0 -18l177 -177c6 -6 9 -14.667 9 -26v-36z" />
    <glyph glyph-name="equal" unicode="=" horiz-adv-x="370" 
d="M310 414c0 -8.66699 -4 -13 -12 -13h-225c-8.66699 0 -13 4.33301 -13 13v25c0 8 4.33301 12 13 12h225c8 0 12 -4 12 -12v-25zM310 313c0 -8 -4 -12 -12 -12h-225c-8.66699 0 -13 4 -13 12v25c0 8.66699 4.33301 13 13 13h225c8 0 12 -4.33301 12 -13v-25z" />
    <glyph glyph-name="greater" unicode="&#x3e;" horiz-adv-x="375" 
d="M307 357l-238 -238.999c-6 -5.33301 -9 -2.33301 -9 9v36c0 11.333 3 20 9 26l177 177c5.33301 6 5.33301 11.667 0 17l-177 177c-6 6 -9 15 -9 27v35c0 12 3 15 9 9l238 -239c5.33301 -4.66699 8 -10.334 8 -17.001c0 -7.33301 -2.66699 -13.333 -8 -18z" />
    <glyph glyph-name="question" unicode="?" horiz-adv-x="483" 
d="M423 648c0 -135.333 -51.666 -266 -154.999 -392c-5.33301 -6.66699 -8 -14 -8 -22v-97c0 -8 -4 -12 -12 -12h-25c-8.66699 0 -13 4 -13 12v99c0 16.667 3.5 29.5 10.5 38.5s11.833 15.5 14.5 19.5c92 114.667 138 232.667 138 354c0 15.333 -1.66699 28.333 -5 39
c-4 8.66699 -9.66699 13 -17 13h-220c-7.33301 0 -12.333 -3 -15 -9c-4 -10 -6 -23.667 -6 -41v-12c0 -8.66699 -4 -13 -12 -13h-25c-8.66699 0 -13 4.33301 -13 13v13c1.33301 66 22.666 99 63.999 99h236c42 0 63 -34 63 -102zM273.001 13
c0 -8.66699 -4.33301 -13 -13 -13h-50c-8 -0 -12 4.33301 -12 13v50c0 8 4 12 12 12h50c8.66699 0 13 -4 13 -12v-50z" />
    <glyph glyph-name="at" unicode="@" horiz-adv-x="510" 
d="M430 175c0 -20.667 -7.33203 -38.335 -21.999 -53.002s-32.334 -22 -53.001 -22s-38.334 7.33301 -53.001 22s-22 32.334 -22 53.001v263c0 8 -4 12 -12 12h-25c-8.66699 0 -13 -4 -13 -12v-325c0 -8.66699 -4 -13 -12 -13h-25c-8.66699 0 -13 4.33301 -13 13v512
c0 16.667 8.33301 25 25 25h100c16.667 0 25 -8.33301 25 -25v-450c0 -16.667 8.33301 -25 25 -25s25 8.33301 25 25v500c0 16.667 -8.33301 25 -25 25h-200c-16.667 0 -25 -8.33301 -25 -25v-600c0 -16.667 8.33301 -25 25 -25h200c16.667 0 25 -8.33301 25 -25
s-8.33301 -25 -25 -25h-200c-20.667 0 -38.334 7.33301 -53.001 22s-22 32.334 -22 53.001v600c0 20.667 7.33301 38.334 22 53.001s32.334 22 53.001 22h200c20.667 0 38.334 -7.33301 53.001 -22s22 -32.334 22 -53.001v-500zM280.001 512.999v75c0 8 -4 12 -12 12h-25
c-8.66699 0 -13 -4 -13 -12v-75c0 -8.66699 4.33301 -13 13 -13h25c8 0 12 4.33301 12 13z" />
    <glyph glyph-name="A" unicode="A" horiz-adv-x="420" 
d="M380 13c0 -8.66699 -4 -13 -12 -13h-25c-8.66699 -0 -13 4.33301 -13 13v525c0 8 -4 12 -12 12h-197c-6.66699 0 -10.667 -3.33301 -12 -10c-19.333 -104 -29 -209.333 -29 -316c0 -56 4.33301 -126.333 13 -211c0.666992 -8.66699 -3.33301 -13 -12 -13h-26
c-8 0 -12.333 4 -13 12c-8 90.667 -12 161.334 -12 212.001c0 157.333 20.667 312.666 62 465.999c1.33301 6.66699 -3 10 -13 10h-36c-8.66699 0 -13 4.33301 -13 13v25c0 8 4.33301 12 13 12h312c16.667 0 25 -8.33301 25 -25v-712zM330 613v74.999c0 8 -4 12 -12 12h-162
c-6.66699 0 -10.667 -3 -12 -9c-5.33301 -17.333 -12 -43.666 -20 -78.999c-1.33301 -8 2.66699 -12 12 -12h182c8 0 12 4.33301 12 13z" />
    <glyph glyph-name="B" unicode="B" horiz-adv-x="433" 
d="M403 25c0 -16.667 -8.33301 -25 -25 -25h-313c-16.667 -0 -25 8.33301 -25 25v700c0 16.667 8.33301 25 25 25h275c42 0 63 -34 63 -102c0 -101.333 -32 -205.333 -96 -312c-2.66699 -3.33301 -4 -7 -4 -11c0 -3.33301 0.666992 -6 2 -8c65.333 -118 98 -215.333 98 -292
zM353 648c0 16 -2 29.335 -6 40.002c-2.66699 8 -8 12 -16 12h-228c-8.66699 0 -13 -4 -13 -12v-511c0 -2.66699 1 -4.33398 3 -5.00098c2 -1.33301 4 -1 6 1c169.333 151.333 254 309.666 254 474.999zM350 62.002c-8.66699 59.333 -34.666 129.668 -77.999 211.001
c-0.666992 2 -2.33398 3 -5.00098 3c-2 0 -3.66699 -1 -5 -3c-44 -56.667 -98.333 -112.334 -163 -167.001c-6 -4.66699 -9 -10.667 -9 -18v-25c0 -8.66699 4.33301 -13 13 -13h234c8 0 12.333 4 13 12z" />
    <glyph glyph-name="C" unicode="C" horiz-adv-x="390" 
d="M370 12c0 -8 -4.00098 -12 -12.001 -12c-2.66699 0 -5 0.666992 -7 2c-101.333 73.333 -181.666 169.333 -240.999 288c-60 122 -90 252.333 -90 391c0 46 11.333 69 34 69h303c8.66699 0 13 -4 13 -12v-25c0 -8.66699 -4.33301 -13 -13 -13h-274
c-8.66699 0 -13 -6.33301 -13 -19c0 -114 22 -222.667 66 -326c42 -100 100.667 -185.333 176 -256c5.33301 -2.66699 8 -1 8 5v26c0 8.66699 4 13 12 13h25c8.66699 0 13 -4.33301 13 -13v-118z" />
    <glyph glyph-name="D" unicode="D" horiz-adv-x="410" 
d="M390 69c0 -46 -11.667 -69 -35 -69h-290c-16.667 -0 -25 8.33301 -25 25v713c0 8 4 12 12 12c2.66699 0 5 -0.666992 7 -2c101.333 -72.667 181.333 -168.667 240 -288c60.667 -122 91 -252.333 91 -391zM340 69c0 113.333 -21.667 221.333 -65 324
c-42 100 -100.333 185.333 -175 256c-6.66699 6 -10 4.66699 -10 -4v-582c0 -8.66699 4.33301 -13 13 -13h224c8.66699 0 13 6.33301 13 19z" />
    <glyph glyph-name="E" unicode="E" horiz-adv-x="390" 
d="M370 12c0 -4.66699 -2.33203 -8.33301 -6.99902 -11c-4 -2 -8 -1.66699 -12 1c-101.333 73.333 -181.333 169.333 -240 288c-60.667 122 -91 252.333 -91 391c0 46 11.333 69 34 69h303c8.66699 0 13 -4 13 -12v-25c0 -8.66699 -4.33301 -13 -13 -13h-274
c-8.66699 0 -13 -6.33301 -13 -19c0 -18 1 -40.667 3 -68c0.666992 -8.66699 4.66699 -13 12 -13h273c8 0 12 -4 12 -12v-25c0 -8.66699 -4 -13 -12 -13h-263c-8.66699 0 -13 -4 -13 -12c17.333 -99.333 50.666 -191 99.999 -275s110.333 -153.667 183 -209
c3.33301 -2.66699 5 -6 5 -10v-32z" />
    <glyph glyph-name="F" unicode="F" horiz-adv-x="410" 
d="M390 563c0 -8.66699 -4 -13 -12 -13h-275c-8.66699 0 -13 -4 -13 -12v-525c0 -8.66699 -4 -13 -12 -13h-25c-8.66699 -0 -13 4.33301 -13 13v712c0 16.667 8.33301 25 25 25h313c8 0 12 -4 12 -12v-25c0 -8.66699 -4 -13 -12 -13h-275c-8.66699 0 -13 -4 -13 -12v-75
c0 -8.66699 4.33301 -13 13 -13h275c8 0 12 -4 12 -12v-25z" />
    <glyph glyph-name="G" unicode="G" horiz-adv-x="410" 
d="M370 12c0 -4.66699 -2.33301 -8.33203 -7 -10.999c-4 -2 -8 -1.66699 -12 1c-101.333 73.333 -181.333 169.333 -240 288c-60.667 122 -91 252.333 -91 391c0 46 11.667 69 35 69h302c8.66699 0 13 -4 13 -12v-25c0 -8.66699 -4.33301 -13 -13 -13h-274
c-8.66699 0 -13 -6.33301 -13 -19c0 -16.667 1 -39.334 3 -68.001c0.666992 -8.66699 4.66699 -13 12 -13h260c16.667 0 25 -8.33301 25 -25v-563zM320 104.002v434.001c0 8 -4 12 -12 12h-213c-10 0 -14.333 -4 -13 -12c29.333 -174.667 105.333 -320.334 228 -437.001
c6.66699 -6 10 -5 10 3z" />
    <glyph glyph-name="H" unicode="H" horiz-adv-x="419" 
d="M384 233c0 -66 -3.00488 -139.333 -9.00488 -220c-0.666992 -8.66699 -5 -13 -13 -13h-25c-8 -0 -12 4.33301 -12 13l2 27c4.66699 61.333 7 125.666 7 192.999c0 107.333 -5.66699 209 -17 305c-1.33301 8 -5.66602 12 -12.999 12h-189
c-7.33301 0 -11.666 -4.66699 -12.999 -14c-11.333 -98 -17 -199 -17 -303c0 -67.333 2.33301 -131.666 7 -192.999c0 -5.33301 0.666992 -14.333 2 -27c0 -8.66699 -4 -13 -12 -13h-25c-8 -0 -12.333 4.33301 -13 13c-6 80.667 -9 154 -9 220c0 177.333 16 345.333 48 504
c2 8.66699 7 13 15 13h25c8.66699 0 12.334 -4 11.001 -12c-6 -30.667 -13.333 -72.667 -22 -126c-1.33301 -8 3 -12 13 -12h169c10 0 14.333 4 13 12c-3.33301 20.667 -10.666 62.667 -21.999 126c-1.33301 8 2.33398 12 11.001 12h25c8 0 13 -4.33301 15 -13
c32 -158.667 48 -326.667 48 -504z" />
    <glyph glyph-name="I" unicode="I" horiz-adv-x="150" 
d="M100 13c0 -8.66699 -4 -13 -12 -13h-25c-8.66699 -0 -13 4.33301 -13 13v725c0 8 4.33301 12 13 12h25c8 0 12 -4 12 -12v-725z" />
    <glyph glyph-name="J" unicode="J" horiz-adv-x="407" 
d="M367 738l0.000976562 -716.001c-2 -15.333 -11 -22.666 -27 -21.999c-72 3.33301 -136.667 19 -194 47c-61.333 29.333 -103.333 68 -126 116c0 0.666992 -1.66699 4.66699 -5 12c-3.33301 8 -1.33301 13.667 6 17l23 10c7.33301 4 12.666 2 15.999 -6l9 -18
c14.667 -32 44 -59.333 88 -82c41.333 -22 90 -36.333 146 -43c9.33301 -0.666992 14 3 14 11v674c0 8 4 12 12 12h25c8.66699 0 13 -4 13 -12z" />
    <glyph glyph-name="K" unicode="K" horiz-adv-x="429" 
d="M409 13c1.33301 -8.66699 -2 -13 -10 -13h-26c-8.66699 -0 -13.667 4.33301 -15 13l-130 639c-2 8 -7 11 -15 9c-38.667 -16.667 -75.667 -39 -111 -67c-8 -6 -12 -12.667 -12 -20v-561c0 -8.66699 -4 -13 -12 -13h-25c-8.66699 -0 -13 4.33301 -13 13v725
c0 8 4.33301 12 13 12h25c8 0 12 -4 12 -12v-72c0 -12 4.66699 -15 14 -9c90 62 186.667 93 290 93c8 0 12 -4 12 -12v-25c0 -8.66699 -4 -13 -12 -13c-39.333 0 -75.666 -4.33301 -108.999 -13c-8.66699 -2 -12.334 -6.66699 -11.001 -14z" />
    <glyph glyph-name="L" unicode="L" horiz-adv-x="410" 
d="M390 13c0 -8.66699 -4 -13 -12 -13h-313c-16.667 -0 -25 8.33301 -25 25v713c0 8 4.33301 12 13 12h25c8 0 12 -4 12 -12v-675c0 -8.66699 4.33301 -13 13 -13h275c8 0 12 -4 12 -12v-25z" />
    <glyph glyph-name="M" unicode="M" horiz-adv-x="440" 
d="M393 67c-1.33301 -8 -4.66895 -26.334 -10.002 -55.001c-2 -8 -7.33301 -12 -16 -12h-26c-8 0 -11.333 4.33301 -10 13l13 63c17.333 97.333 26 188.333 26 273c0 114 -15.667 217 -47 309c-2 6 -5 6.33301 -9 1c-30.667 -38.667 -59.667 -83 -87 -133
c-1.33301 -3.33301 -3.66602 -5 -6.99902 -5c-4 0 -6.66699 1.66699 -8 5c-36 60.667 -65 105 -87 133c-4 5.33301 -7 5 -9 -1c-31.333 -92 -47 -195 -47 -309c0 -84.667 8.66699 -175.667 26 -273l13 -63c1.33301 -8.66699 -2 -13 -10 -13h-26c-8.66699 0 -14 4 -16 12
l-10 55c-17.333 98 -26 190.667 -26 278c0 148.667 25 281 75 397c1.33301 4 4.33301 6.66699 9 8c4.66699 0.666992 8.33398 -0.666016 11.001 -3.99902c36.667 -38 70 -80 100 -126c2.66699 -5.33301 5.66699 -5.66602 9 -0.999023c32 48.667 65 91 99 127
c3.33301 3.33301 7.33301 4.66602 12 3.99902c4 -0.666992 7 -3 9 -7c50.667 -114.667 76 -246 76 -394c0 -88 -9 -182 -27 -282z" />
    <glyph glyph-name="N" unicode="N" horiz-adv-x="430" 
d="M390 13c0 -8.66699 -3.99902 -13.001 -11.999 -13.001h-25c-8.66699 0 -13 4.33301 -13 13v318c0 7.33301 -2 15 -6 23c-67.333 118.667 -145.333 217.667 -234 297c-6.66699 6 -10 5 -10 -3v-635c0 -8.66699 -4 -13 -12 -13h-25c-8.66699 0 -13 4.33301 -13 13v725
c0 8 4.33301 12 13 12c2.66699 0 5 -1 7 -3c102.667 -74.667 194 -173.667 274 -297c1.33301 -2 2.66602 -2.66699 3.99902 -2s2 2.33398 2 5.00098v285c0 8 4.33301 12 13 12h25c8 0 12 -4 12 -12v-725z" />
    <glyph glyph-name="O" unicode="O" 
d="M375 550c0 -80 -7.33496 -163.334 -22.002 -250.001c-18.667 -105.333 -44 -185.666 -76 -240.999c-23.333 -39.333 -49 -59 -77 -59c-50 -0 -92.333 62.333 -127 187c-32 113.333 -48 234.333 -48 363c0 57.333 1 94.333 3 111c6.66699 59.333 23.334 89 50.001 89h244
c26.667 0 43.334 -29.667 50.001 -89c2 -16.667 3 -53.667 3 -111zM324.998 549.999c0 67.333 -2.66699 113.335 -8 138.002c-2 8 -7.33301 12 -16 12h-101h-101c-6.66699 0 -12 -4.33301 -16 -13c-5.33301 -24.667 -8 -70.334 -8 -137.001
c0 -74.667 7 -153.334 21 -236.001c16.667 -102 40 -178.333 70 -229c14 -23.333 25.333 -35 34 -35c14 0 30.667 22.667 50 68c12 28 21.667 55.667 29 83c30.667 108.667 46 225 46 349z" />
    <glyph glyph-name="P" unicode="P" horiz-adv-x="423" 
d="M403 649c0 -190 -100 -369.667 -300 -539c-8.66699 -6.66699 -13 -13.667 -13 -21v-76c0 -8 -4 -12 -12 -12h-25c-8.66699 0 -13 4 -13 12v713c0 16.667 8.33301 25 25 25h275c42 0 63 -34 63 -102zM353 649c0 34.667 -7.33301 52.001 -22 52.001h-228
c-8.66699 0 -13 -4.33301 -13 -13v-510c0 -2.66699 1 -4.33398 3 -5.00098c2 -1.33301 4 -1.33301 6 0c169.333 152 254 310.667 254 476z" />
    <glyph glyph-name="Q" unicode="Q" 
d="M375 550c0 -80 -7.33691 -163.334 -22.0039 -250.001c-18.667 -105.333 -44 -185.666 -76 -240.999c-23.333 -39.333 -49 -59 -77 -59c-18.667 0 -37 9.66699 -55 29c-2 2 -4.33301 2 -7 0c-27.333 -19.333 -60.666 -29 -99.999 -29c-8 -0 -12 4.33301 -12 13v25
c0 8 4 12 12 12c28 0 52.333 7 73 21c2.66699 2 3.33398 4.33301 2.00098 7c-14.667 28.667 -28 65 -40 109c-32 113.333 -48 234.333 -48 363c0 57.333 1 94.333 3 111c6.66699 59.333 23.334 89 50.001 89h244c26.667 0 43.334 -29.667 50.001 -89
c2 -16.667 3 -53.667 3 -111zM324.996 549.999c0 67.333 -2.66602 113.332 -7.99902 137.999c-2 8 -7.33301 12 -16 12h-101h-101c-8.66699 0 -14 -4.33301 -16 -13c-5.33301 -21.333 -8 -67 -8 -137c0 -67.333 6 -139.333 18 -216c14 -93.333 33.667 -167.333 59 -222
c1.33301 -2.66699 3.33301 -4 6 -4c1.33301 0 6.83301 2.83301 16.5 8.5s15.5 8.83398 17.5 9.50098c16 6 35 9 57 9c5.33301 0 8.66602 2 9.99902 6c8 21.333 14.667 41.333 20 60c30.667 108.667 46 225 46 349zM232.997 82.998
c0 1.33301 -0.667969 2.00098 -2.00098 2.00098c-15.333 -2.66699 -31.333 -9.66699 -48 -21c-0.666992 -0.666992 -0.666992 -1.33398 0 -2.00098c6.66699 -8 12.334 -12 17.001 -12c10 0 21 11 33 33z" />
    <glyph glyph-name="R" unicode="R" horiz-adv-x="423" 
d="M403 648c0 -117.333 -38.666 -231.332 -115.999 -341.999c-2.66699 -4.66699 -3.33398 -9.33398 -2.00098 -14.001l116 -279c4 -8.66699 1.33301 -13 -8 -13h-27c-8.66699 -0 -15 4.33301 -19 13l-97 233c-2 4 -4.66699 4.66699 -8 2
c-13.333 -16 -60.333 -62.333 -141 -139c-7.33301 -7.33301 -11 -14.333 -11 -21v-75c0 -8.66699 -4 -13 -12 -13h-25c-8.66699 -0 -13 4.33301 -13 13v712c0 16.667 8.33301 25 25 25h275c42 0 63 -34 63 -102zM353.001 648.001c0 34.667 -7.33301 52.002 -22 52.002h-228
c-8.66699 0 -13 -4 -13 -12v-511c0 -2.66699 1 -4.33398 3 -5.00098c2 -1.33301 4 -1 6 1c169.333 151.333 254 309.666 254 474.999z" />
    <glyph glyph-name="S" unicode="S" horiz-adv-x="390" 
d="M370 559c0 -60 -36.332 -149.833 -108.999 -269.5s-146.334 -212.834 -221.001 -279.501c-8 -6.66699 -13.333 -10 -16 -10s-4 2 -4 6v41c0 8 3.66699 15.333 11 22l1 2c68 62.667 133.333 148 196 256c61.333 105.333 92 182.666 92 231.999
c0 27.333 -6.66699 41 -20 41h-205c-20.667 0 -38.334 7.33301 -53.001 22s-22 32.334 -22 53.001s7.33301 38.334 22 53.001s32.334 22 53.001 22h263c8 0 12 -4 12 -12v-25c0 -8.66699 -4 -13 -12 -13h-263c-16.667 0 -25 -8.33301 -25 -25s8.33301 -25 25 -25h213
c41.333 0 62 -30.333 62 -91z" />
    <glyph glyph-name="T" unicode="T" horiz-adv-x="380" 
d="M365 713c0 -8.66699 -4 -13 -12 -13h-125c-8.66699 0 -13 -4 -13 -12v-675c0 -8.66699 -4 -13 -12 -13h-25c-8.66699 -0 -13 4.33301 -13 13v675c0 8 -4 12 -12 12h-125c-8.66699 0 -13 4.33301 -13 13v25c0 8 4.33301 12 13 12h325c8 0 12 -4 12 -12v-25z" />
    <glyph glyph-name="U" unicode="U" horiz-adv-x="410" 
d="M390 738v-69c0 -136.667 -30.333 -264.667 -91 -384c-58.667 -115.333 -138.667 -209.666 -240 -282.999c-2 -1.33301 -4.33301 -2 -7 -2c-8 0 -12 4 -12 12v726c0 8 4.33301 12 13 12h25c8 0 12 -4 12 -12v-634c0 -2.66699 1 -4.33398 3 -5.00098
c2.66699 -0.666992 5 0 7 2c74.667 70 133 153.667 175 251c43.333 101.333 65 208.333 65 321v32.5v32.5c0 8 4.33301 12 13 12h25c8 0 12 -4 12 -12z" />
    <glyph glyph-name="V" unicode="V" horiz-adv-x="410" 
d="M370 12c0 -8 -4 -12 -12 -12c-2.66699 0 -5 0.666992 -7 2c-101.333 73.333 -181.333 167.666 -240 282.999c-60.667 119.333 -91 247.333 -91 384v69c0 8 4.33301 12 13 12h25c8 0 12 -4 12 -12v-32.5v-32.5c0 -112.667 21.667 -219.667 65 -321
c42 -97.333 100.333 -181 175 -251c2 -2 4 -2.66699 6 -2c2.66699 0.666992 4 2.33398 4 5.00098v634c0 8 4.33301 12 13 12h25c8 0 12 -4 12 -12v-726z" />
    <glyph glyph-name="W" unicode="W" horiz-adv-x="527" 
d="M502 664c0 -274 -55.3281 -493.667 -165.995 -659c-2 -3.33301 -5.33301 -5 -10 -5s-8.33398 2 -11.001 6c-16 24.667 -31.333 50.667 -46 78c-1.33301 2.66699 -3.33301 4 -6 4s-4.33398 -1.33301 -5.00098 -4c-14.667 -28 -30.334 -54.333 -47.001 -79
c-2 -3.33301 -5.33301 -5 -10 -5s-8 1.66699 -10 5c-110.667 165.333 -166 385 -166 659c0 11.333 0.333008 36 1 74c0.666992 8 5 12 13 12h25c8.66699 0 12.667 -4 12 -12l-1 -76c-4 -223.333 36.333 -413 121 -569c1.33301 -2 3 -3 5 -3s3.66699 1 5 3
c15.333 28 24.666 47 27.999 57c0.666992 2 1 4 1 6s-0.333008 4 -1 6c-56 139.333 -84 306.666 -84 501.999c0 11.333 0.333008 36 1 74c0.666992 8 5 12 13 12h25c8.66699 0 12.667 -4 12 -12l-1 -76c-2.66699 -166 16.333 -305.333 57 -418
c1.33301 -2.66699 3.33301 -4 6 -4c3.33301 0 5.33301 1.33301 6 4c41.333 128 60.666 267.333 57.999 418l-1 76c-0.666992 8 3.33301 12 12 12h25c8 0 12.333 -4 13 -12l1 -74c0 -70.667 -14.167 -171.667 -42.5 -303s-42.5 -199.666 -42.5 -204.999
c0 -6 9.66699 -27 29 -63c1.33301 -2 3 -3 5 -3s3.66699 1 5 3c84.667 155.333 125 345 121 569l-1 76c-0.666992 8 3.33301 12 12 12h25c8 0 12.333 -4 13 -12z" />
    <glyph glyph-name="X" unicode="X" 
d="M375 13c0 -8.66699 -4 -13.001 -12 -13.001h-25c-8.66699 0 -13 4.33301 -13 13v64c0 156.667 -40.333 299 -121 427c-0.666992 1.33301 -2 2 -4 2c-1.33301 0 -2.66602 -0.666992 -3.99902 -2c-80.667 -128.667 -121 -271 -121 -427v-64c0 -8.66699 -4 -13 -12 -13h-25
c-8.66699 0 -13 4.33301 -13 13v68c3.33301 175.333 50 331 140 467c1.33301 2 2 4 2 6c0 2.66699 -0.666992 5 -2 7c-39.333 52 -84 96.667 -134 134c-4 3.33301 -6 7 -6 11v32c0 8 4 12 12 12c2.66699 0 5 -0.666992 7 -2c56 -40.667 106.667 -89.667 152 -147
c1.33301 -0.666992 2.66602 -1 3.99902 -1s2.66602 0.666992 3.99902 2c44.667 56.667 95.334 105.334 152.001 146.001c2 1.33301 4.33301 2 7 2c8 0 12 -4 12 -12v-32c0 -4 -2 -7.66699 -6 -11c-50 -37.333 -94.667 -82 -134 -134c-1.33301 -2 -2 -4.33301 -2 -7
c0 -2 0.666992 -4 2 -6c90 -135.333 136.667 -291 140 -467v-68z" />
    <glyph glyph-name="Y" unicode="Y" horiz-adv-x="381" 
d="M366 744c0 -1.33301 -0.667969 -2.99902 -2.00098 -4.99902c-65.333 -79.333 -115.333 -171 -150 -275c-32.667 -99.333 -49 -202.666 -49 -309.999c0 -38 3 -85 9 -141c1.33301 -8.66699 -2.33398 -13 -11.001 -13h-25c-8.66699 0 -13.334 4.33301 -14.001 13
c-6 54.667 -9 101.667 -9 141c0 112.667 17 221.667 51 327c2.66699 7.33301 2.33398 13.666 -0.999023 18.999l-149 238c-0.666992 1.33301 -1 2.66602 -1 3.99902c0 5.33301 2.66699 8 8 8h38c4.66699 0 8.33398 -2.33301 11.001 -7l114 -183c4 -6 7.33301 -6 10 0
c32.667 76 68.334 137.667 107.001 185c2.66699 3.33301 6 5 10 5h46c4.66699 0 7 -2 7 -6z" />
    <glyph glyph-name="Z" unicode="Z" horiz-adv-x="395" 
d="M375 13c0 -8.66699 -3.99805 -13 -11.998 -13h-304c-22.667 0 -34 23 -34 69c0 116 21 229.833 63 341.5s99.333 206.5 172 284.5c3.33301 3.33301 2.66602 5 -2.00098 5h-220c-8.66699 0 -13 4.33301 -13 13v25c0 8 4.33301 12 13 12h325c8 0 12 -4.33301 12 -13
c0 -4 -2 -7.33301 -6 -10c-88.667 -68 -159.834 -162.333 -213.501 -283s-80.5 -245.667 -80.5 -375c0 -12.667 4.33301 -19 13 -19h275c8 0 12 -4 12 -12v-25z" />
    <glyph glyph-name="bracketleft" unicode="[" horiz-adv-x="220" 
d="M160 13c0 -8.66699 -4 -13 -12 -13h-63c-16.667 -0 -25 8.33301 -25 25v700c0 16.667 8.33301 25 25 25h63c8 0 12 -4 12 -12v-25c0 -8.66699 -4 -13 -12 -13h-25c-8.66699 0 -13 -4 -13 -12v-625c0 -8.66699 4.33301 -13 13 -13h25c8 0 12 -4 12 -12v-25z" />
    <glyph glyph-name="backslash" unicode="\" horiz-adv-x="369" 
d="M359 13c3.33301 -8.66699 1 -13 -7 -13h-25c-8.66699 -0 -14.667 4.33301 -18 13l-299 725c-3.33301 8 -1 12 7 12h25c8.66699 0 14.667 -4 18 -12z" />
    <glyph glyph-name="bracketright" unicode="]" horiz-adv-x="220" 
d="M160 25c0 -16.667 -8.33301 -25 -25 -25h-62c-8.66699 -0 -13 4.33301 -13 13v25c0 8 4.33301 12 13 12h25c8 0 12 4.33301 12 13v625c0 8 -4 12 -12 12h-25c-8.66699 0 -13 4.33301 -13 13v25c0 8 4.33301 12 13 12h62c16.667 0 25 -8.33301 25 -25v-700z" />
    <glyph glyph-name="asciicircum" unicode="^" horiz-adv-x="370" 
d="M310 788c0 -10 -3.99805 -13.333 -11.998 -10l-105 42c-2.66699 0.666992 -5.33398 1 -8.00098 1s-5.33398 -0.333008 -8.00098 -1l-104 -42c-8.66699 -3.33301 -13 0 -13 10v22c0 10 4.33301 17 13 21l108 44h4h4l109 -44c8 -4 12 -11 12 -21v-22z" />
    <glyph glyph-name="underscore" unicode="_" 
d="M413 -62c0 -8.66699 -4.33301 -13 -13 -13h-400c-8.66699 0 -13 4.33301 -13 13v25c0 8 4.33301 12 13 12h400c8.66699 0 13 -4 13 -12v-25z" />
    <glyph glyph-name="grave" unicode="`" horiz-adv-x="295" 
d="M235 787c0 -3.33301 -1.16699 -5.83398 -3.5 -7.50098s-5.16602 -2.16699 -8.49902 -1.5l-150 49c-8.66699 2.66699 -13 8.33398 -13 17.001v26c0 4 1.16699 6.83301 3.5 8.5s5.16602 1.83398 8.49902 0.500977l151 -48c8 -2.66699 12 -8.33398 12 -17.001v-27z" />
    <glyph glyph-name="a" unicode="a" horiz-adv-x="430" 
d="M390 13c0 -8.66699 -4 -13 -12 -13h-25c-8.66699 -0 -13 4.33301 -13 13v525c0 8 -4 12 -12 12h-225c-8.66699 0 -13 -4 -13 -12v-525c0 -8.66699 -4 -13 -12 -13h-25c-8.66699 -0 -13 4.33301 -13 13v712c0 16.667 8.33301 25 25 25h300c16.667 0 25 -8.33301 25 -25
v-712zM340 613v75c0 8 -4 12 -12 12h-225c-8.66699 0 -13 -4 -13 -12v-75c0 -8.66699 4.33301 -13 13 -13h225c8 0 12 4.33301 12 13z" />
    <glyph glyph-name="b" unicode="b" horiz-adv-x="410" 
d="M390 725c0 -89.333 -41.6689 -202.667 -125.002 -340c-2 -2.66699 -3 -6 -3 -10s1 -7.66699 3 -11c80.667 -133.333 122.334 -245.333 125.001 -336c0.666992 -18.667 -7.66602 -28 -24.999 -28h-300c-16.667 -0 -25 8.33301 -25 25v700c0 16.667 8.33301 25 25 25h300
c16.667 0 25 -8.33301 25 -25zM336.998 687.999c-0.666992 8 -4.66699 12.001 -12 12.001h-222c-8.66699 0 -13 -4 -13 -12v-444c0 -2.66699 1.33301 -4.33398 4 -5.00098c2 -0.666992 3.66699 0 5 2c60 70 112 146 156 228c46 84.667 73.333 157.667 82 219zM336.998 62
c-10 71.333 -44.6689 157.335 -104.002 258.002c-3.33301 5.33301 -6.66602 5.66602 -9.99902 0.999023c-33.333 -49.333 -75.666 -102.333 -126.999 -159c-4 -4.66699 -6 -10.334 -6 -17.001v-82c0 -8.66699 4.33301 -13 13 -13h222c7.33301 0 11.333 4 12 12z" />
    <glyph glyph-name="c" unicode="c" horiz-adv-x="390" 
d="M370 12c0 -4.66699 -2.33301 -8.33203 -7 -10.999c-4 -2 -8 -1.66699 -12 1c-101.333 73.333 -181.333 169.333 -240 288c-60.667 122 -91 252.333 -91 391c0 46 11.333 69 34 69h303c8.66699 0 13 -4 13 -12v-25c0 -8.66699 -4.33301 -13 -13 -13h-274
c-8.66699 0 -13 -6.33301 -13 -19c0 -126.667 27 -246.334 81 -359.001c52.667 -110 124 -199.333 214 -268c3.33301 -2.66699 5 -6 5 -10v-32z" />
    <glyph glyph-name="d" unicode="d" horiz-adv-x="410" 
d="M390 681c0 -138.667 -30.333 -269 -91 -391c-58.667 -119.333 -138.667 -215.333 -240 -288c-2 -1.33301 -4.33301 -2 -7 -2c-8 0 -12 4 -12 12v713c0 16.667 8.33301 25 25 25h290c23.333 0 35 -23 35 -69zM340 681c0 12.667 -4.33301 19 -13 19h-224
c-8.66699 0 -13 -4 -13 -12v-583c0 -8 3.33301 -9.33301 10 -4c74.667 70.667 133 156 175 256c43.333 102.667 65 210.667 65 324z" />
    <glyph glyph-name="e" unicode="e" horiz-adv-x="420" 
d="M390 13c0 -8.66699 -4 -13 -12 -13h-313c-16.667 -0 -25 8.33301 -25 25v700c0 16.667 8.33301 25 25 25h313c8 0 12 -4 12 -12v-25c0 -8.66699 -4 -13 -12 -13h-275c-8.66699 0 -13 -4 -13 -12v-75c0 -8.66699 4.33301 -13 13 -13h275c8 0 12 -4 12 -12v-25
c0 -8.66699 -4 -13 -12 -13h-275c-8.66699 0 -13 -4 -13 -12v-475c0 -8.66699 4.33301 -13 13 -13h275c8 0 12 -4 12 -12v-25z" />
    <glyph glyph-name="f" unicode="f" horiz-adv-x="410" 
d="M390 563c0 -8.66699 -4 -13 -12 -13h-275c-8.66699 0 -13 -4 -13 -12v-525c0 -8.66699 -4 -13 -12 -13h-25c-8.66699 -0 -13 4.33301 -13 13v712c0 16.667 8.33301 25 25 25h313c8 0 12 -4 12 -12v-25c0 -8.66699 -4 -13 -12 -13h-275c-8.66699 0 -13 -4 -13 -12v-75
c0 -8.66699 4.33301 -13 13 -13h275c8 0 12 -4 12 -12v-25z" />
    <glyph glyph-name="g" unicode="g" horiz-adv-x="410" 
d="M370 12c0 -8 -4 -12.001 -12 -12.001c-2.66699 0 -5 0.666992 -7 2c-101.333 73.333 -181.333 169.333 -240 288c-60.667 122 -91 252.333 -91 391c0 46 11.667 69 35 69h303c8 0 12 -4 12 -12v-25c0 -8.66699 -4 -13 -12 -13h-275c-8.66699 0 -13 -6.33301 -13 -19
c0 -113.333 21.667 -221.333 65 -324c42.667 -100 101 -185.333 175 -256c2 -2 4.33301 -2.66699 7 -2c2 0.666992 3 2.33398 3 5.00098v434c0 8 -4 12 -12 12h-186c-8 0 -12 4.33301 -12 13v25c0 8 4 12 12 12h223c16.667 0 25 -8.33301 25 -25v-563z" />
    <glyph glyph-name="h" unicode="h" horiz-adv-x="430" 
d="M390 13c0 -8.66699 -4 -13 -12 -13h-25c-8.66699 -0 -13 4.33301 -13 13v575c0 8 -4 12 -12 12h-225c-8.66699 0 -13 -4 -13 -12v-575c0 -8.66699 -4 -13 -12 -13h-25c-8.66699 -0 -13 4.33301 -13 13v725c0 8 4.33301 12 13 12h25c8 0 12 -4 12 -12v-75
c0 -8.66699 4.33301 -13 13 -13h225c8 0 12 4.33301 12 13v75c0 8 4.33301 12 13 12h25c8 0 12 -4 12 -12v-725z" />
    <glyph glyph-name="i" unicode="i" horiz-adv-x="150" 
d="M100 13c0 -8.66699 -4 -13 -12 -13h-25c-8.66699 -0 -13 4.33301 -13 13v725c0 8 4.33301 12 13 12h25c8 0 12 -4 12 -12v-725z" />
    <glyph glyph-name="j" unicode="j" horiz-adv-x="415" 
d="M375 25c0 -16.667 -8.33496 -25 -25.002 -25h-290c-23.333 0 -35 23 -35 69c0 39.333 3.33301 83 10 131c0.666992 9.33301 5.33398 13.666 14.001 12.999h26c8 0 11.333 -4 10 -12c-7.33301 -53.333 -10.666 -99.666 -9.99902 -138.999c0 -8 4.33301 -12 13 -12h225
c6.66699 0 10.667 3.33301 12 10v678c0 8 4.33301 12 13 12h24c8.66699 0 13 -4 13 -12v-713z" />
    <glyph glyph-name="k" unicode="k" horiz-adv-x="429" 
d="M409 13c1.33301 -8.66699 -2 -13 -10 -13h-26c-8.66699 -0 -13.667 4.33301 -15 13l-128 627c-1.33301 8 -6.33301 11 -15 9l-114 -31c-7.33301 -2 -11 -6.66699 -11 -14v-591c0 -8.66699 -4 -13 -12 -13h-25c-8.66699 -0 -13 4.33301 -13 13v725c0 8 4.33301 12 13 12
h25c8 0 12 -4 12 -12v-56c0 -8.66699 4.66699 -12.667 14 -12l290 80c8.66699 2 13 -1.33301 13 -10v-26c0 -8.66699 -4.33301 -14 -13 -16l-106 -29c-8 -2.66699 -11.333 -7.66699 -10 -15z" />
    <glyph glyph-name="l" unicode="l" horiz-adv-x="310" 
d="M290 13c0 -8.66699 -4 -13 -12 -13h-213c-16.667 -0 -25 8.33301 -25 25v713c0 8 4.33301 12 13 12h25c8 0 12 -4 12 -12v-675c0 -8.66699 4.33301 -13 13 -13h175c8 0 12 -4 12 -12v-25z" />
    <glyph glyph-name="m" unicode="m" horiz-adv-x="430" 
d="M390 13c0 -8.66699 -3.99902 -13.0039 -11.999 -13.0039h-25c-8.66699 0 -13 4.33301 -13 13v532c0 2.66699 -1.33301 4.33398 -4 5.00098c-2 0.666992 -3.66699 0.333984 -5 -0.999023l-93 -198c-2 -6 -2.33301 -13 -1 -21c9.33301 -58 14 -116.667 14 -176
c0 -39.333 -3 -86.666 -9 -141.999c-0.666992 -8 -5.33398 -12 -14.001 -12h-25c-8 0 -11.667 4.33301 -11 13c6 58.667 9 105.667 9 141c0 160 -34 306 -102 438c-1.33301 2 -3.33301 2.66699 -6 2c-2 -1.33301 -3 -3.33301 -3 -6v-575c0 -8.66699 -4 -13 -12 -13h-25
c-8.66699 0 -13 4.33301 -13 13v725c0 8 4.33301 12 13 12c4 0 7.33301 -1.66699 10 -5c63.333 -82.667 113.333 -185 150 -307c1.33301 -3.33301 3.33301 -4.66602 6 -3.99902c2 0.666992 4 2.66699 6 6l141 303c2 4.66699 6 7 12 7c8 0 12 -4 12 -12v-725z" />
    <glyph glyph-name="n" unicode="n" horiz-adv-x="430" 
d="M390 13c0 -8.66699 -4 -13 -12 -13h-25c-8.66699 -0 -13 4.33301 -13 13v517c0 8 -2.33301 13.333 -7 16c-75.333 57.333 -154 102.333 -236 135c-4.66699 2 -7 0.666992 -7 -4v-664c0 -8.66699 -4 -13 -12 -13h-25c-8.66699 -0 -13 4.33301 -13 13v725
c0 11.333 5.66699 15 17 11c93.333 -30.667 185 -77.334 275 -140.001c5.33301 -3.33301 8 -1.66602 8 5.00098v124c0 8 4.33301 12 13 12h25c8 0 12 -4 12 -12v-725z" />
    <glyph glyph-name="o" unicode="o" horiz-adv-x="570" 
d="M560 275c0 -76 -26.833 -140.833 -80.5 -194.5s-118.5 -80.5 -194.5 -80.5s-140.833 26.833 -194.5 80.5s-80.5 118.5 -80.5 194.5s26.833 140.833 80.5 194.5s118.5 80.5 194.5 80.5s140.833 -26.833 194.5 -80.5s80.5 -118.5 80.5 -194.5zM510 275
c0 62 -22 115 -66 159s-97 66 -159 66s-115 -22 -159 -66s-66 -97 -66 -159s22 -115 66 -159s97 -66 159 -66s115 22 159 66s66 97 66 159z" />
    <glyph glyph-name="p" unicode="p" horiz-adv-x="410" 
d="M390 674c0 -91.333 -30.333 -188 -91 -290c-54.667 -92 -121.667 -169.333 -201 -232c-5.33301 -4.66699 -8 -10.667 -8 -18v-121c0 -8.66699 -4 -13 -12 -13h-25c-8.66699 -0 -13 4.33301 -13 13v712c0 16.667 8.33301 25 25 25h300c16.667 0 25 -8.33301 25 -25v-51z
M340 674c0 17.333 -4 25.999 -12 25.999h-225c-8.66699 0 -13 -4 -13 -12v-468c0 -2 1 -3.66699 3 -5s4 -1 6 1c66.667 56.667 123 126.334 169 209.001c48 88.667 72 171.667 72 249z" />
    <glyph glyph-name="q" unicode="q" 
d="M375 550c0 -128.667 -16.0039 -249.666 -48.0039 -362.999c-12 -44 -25.333 -80.333 -40 -109c-1.33301 -2.66699 -0.666016 -5 2.00098 -7c20.667 -14 45 -21 73 -21c8 0 12 -4 12 -12v-25c0 -8.66699 -4 -13 -12 -13c-39.333 0 -72.666 9.66699 -99.999 29
c-2.66699 2 -5 2 -7 0c-18 -19.333 -36.333 -29 -55 -29c-28 0 -53.667 19.667 -77 59c-32 55.333 -57.333 135.666 -76 240.999c-14.667 86.667 -22 170 -22 250c0 57.333 1 94.333 3 111c6.66699 59.333 23.334 89 50.001 89h244c26.667 0 43.334 -29.667 50.001 -89
c2 -16.667 3 -53.667 3 -111zM324.996 550.001c0 66.667 -2.66602 112.334 -7.99902 137.001c-4 8.66699 -9.33301 13 -16 13h-101h-101c-8.66699 0 -14 -4 -16 -12c-5.33301 -24.667 -8 -70.667 -8 -138c0 -124 15.333 -240.333 46 -349c5.33301 -18.667 12 -38.667 20 -60
c1.33301 -4 4.66602 -6 9.99902 -6c22 0 41 -3 57 -9c2 -0.666992 7.83301 -3.83398 17.5 -9.50098s15.167 -8.5 16.5 -8.5c2.66699 0 4.66699 1.33301 6 4c25.333 54.667 45 128.667 59 222c12 76.667 18 148.667 18 216zM216.997 62.001
c0.666992 0.666992 0.666016 1.33398 -0.000976562 2.00098c-16.667 11.333 -32.667 18.333 -48 21c-1.33301 -0.666992 -2 -1.33398 -2 -2.00098c12 -22 23 -33 33 -33c4.66699 0 10.334 4 17.001 12z" />
    <glyph glyph-name="r" unicode="r" horiz-adv-x="410" 
d="M390 674c0 -92.667 -41.001 -207.667 -123.001 -345c-2 -3.33301 -3 -7 -3 -11c0 -2 1 -5.33301 3 -10l122 -295c3.33301 -8.66699 0.666016 -13 -8.00098 -13h-27c-9.33301 -0 -15.666 4.33301 -18.999 13l-105 254c-3.33301 4.66699 -6.66602 4.66699 -9.99902 0
c-38.667 -46 -79.667 -84.667 -123 -116c-4.66699 -5.33301 -7 -11 -7 -17v-121c0 -8.66699 -4 -13 -12 -13h-25c-8.66699 -0 -13 4.33301 -13 13v712c0 16.667 8.33301 25 25 25h300c16.667 0 25 -8.33301 25 -25v-51zM339.999 674c0 17.333 -4 25.999 -12 25.999h-225
c-8.66699 0 -13 -4 -13 -12v-468v0c0 -2 1 -3.66699 3 -5s4 -1 6 1c66.667 56.667 123 126.334 169 209.001c48 88.667 72 171.667 72 249z" />
    <glyph glyph-name="s" unicode="s" horiz-adv-x="390" 
d="M370 548c0 -104 -36.333 -208.669 -109 -314.002c-58 -84.667 -130.333 -158.667 -217 -222l-5 -5v0c-0.666992 0 -2.66699 -1.33301 -6 -4c-8.66699 -6 -13 -5 -13 3v39c0 7.33301 3.66699 14 11 20c78.667 60 143.667 128.667 195 206c62.667 94.667 94 187 94 277
c0 34.667 -7.33301 52 -22 52h-203c-20.667 0 -38.334 7.33301 -53.001 22s-22 32.334 -22 53.001s7.33301 38.334 22 53.001s32.334 22 53.001 22h187c8.66699 0 13 -4 13 -12v-25c0 -8.66699 -4.33301 -13 -13 -13h-187c-16.667 0 -25 -8.33301 -25 -25
s8.33301 -25 25 -25h213c41.333 0 62 -34 62 -102z" />
    <glyph glyph-name="t" unicode="t" horiz-adv-x="330" 
d="M315 713c0 -8.66699 -4 -13 -12 -13h-100c-8.66699 0 -13 -4 -13 -12v-675c0 -8.66699 -4 -13 -12 -13h-25c-8.66699 -0 -13 4.33301 -13 13v675c0 8 -4 12 -12 12h-100c-8.66699 0 -13 4.33301 -13 13v25c0 8 4.33301 12 13 12h275c8 0 12 -4 12 -12v-25z" />
    <glyph glyph-name="u" unicode="u" horiz-adv-x="402" 
d="M377 662c-1.33301 -275.333 -56.668 -494.333 -166.001 -657c-2 -3.33301 -5.33301 -5 -10 -5s-8 1.66699 -10 5c-109.333 162.667 -164.666 381.667 -165.999 657c0 0.666992 0.333008 26 1 76c0.666992 8 5 12 13 12h25c8.66699 0 12.667 -4 12 -12l-1 -74
c0 -232 40.333 -422.333 121 -571c1.33301 -2 3 -3 5 -3s3.66699 1 5 3c80.667 148.667 121 339 121 571c0 45.333 -0.333008 70 -1 74c-0.666992 8 3.33301 12 12 12h25c8 0 12.333 -4 13 -12c0.666992 -50 1 -75.333 1 -76z" />
    <glyph glyph-name="v" unicode="v" horiz-adv-x="387" 
d="M367 738l-161.001 -727c-1.33301 -7.33301 -5.66602 -11 -12.999 -11s-11.333 3.66699 -12 11l-161 727c-2 8 1.33301 12 10 12h26c8 0 13 -4 15 -12l118 -534c0.666992 -2 2 -3 4 -3s3.33301 0.666992 4 2l119 535c1.33301 8 6.33301 12 15 12h26c8 0 11.333 -4 10 -12z
" />
    <glyph glyph-name="w" unicode="w" horiz-adv-x="430" 
d="M390 12c0 -8 -4.33496 -11.9971 -13.002 -11.9971c-4 0 -7.33301 1.66699 -10 5c-56 73.333 -102.333 163 -139 269c-0.666992 1.33301 -1.66699 2.33301 -3 3c-2.66699 1.33301 -5 0.666016 -7 -2.00098l-154 -268c-2 -4.66699 -6 -7 -12 -7c-8 0 -12 4 -12 12v725
c0 8.66699 4.33301 13 13 13h25c8 0 12 -4.33301 12 -13v-565c0 -2.66699 1.33301 -4.33398 4 -5.00098c2 -0.666992 3.66699 0 5 2l102 176c3.33301 5.33301 4 12 2 20c-16 87.333 -24 164.333 -24 231c0 39.333 3 86.666 9 141.999c0.666992 8 5.33398 12 14.001 12h25
c8 0 11.667 -4.33301 11 -13c-6 -56 -9 -103 -9 -141c0 -160.667 34 -306.667 102 -438c0.666992 -2 2.33398 -2.66699 5.00098 -2s4 2.66699 4 6v575c0 8.66699 4.33301 13 13 13h25c8 0 12 -4.33301 12 -13v-725z" />
    <glyph glyph-name="x" unicode="x" horiz-adv-x="384" 
d="M364 13c3.33301 -8.66699 1 -13 -7 -13h-34c-5.33301 -0 -9.66602 4.33301 -12.999 13l-113 281c-1.33301 4 -3 6 -5 6s-4 -2.33301 -6 -7l-112 -280c-3.33301 -8.66699 -7.66602 -13 -12.999 -13h-34c-8 -0 -10.333 4.33301 -7 13l143 357c0.666992 1.33301 1 3 1 5
s-0.333008 4 -1 6l-143 357c-3.33301 8 -1 12 7 12h34c5.33301 0 9.66602 -4 12.999 -12l112 -280c2 -4.66699 4 -7 6 -7s4 2.33301 6 7l112 280c3.33301 8 7.66602 12 12.999 12h34c8 0 10.333 -4 7 -12l-143 -357c-0.666992 -2 -1 -4 -1 -6s0.333008 -4 1 -6z" />
    <glyph glyph-name="y" unicode="y" horiz-adv-x="375" 
d="M360 738l-142.998 -260c-2.66699 -4.66699 -4 -9 -4 -13v-452c0 -8.66699 -4.33301 -13 -13 -13h-25c-8 -0 -12 4.33301 -12 13v451c0 4.66699 -1 8.66699 -3 12l-145 262c-4.66699 8 -2.33398 12 6.99902 12h34c6 0 10.667 -3 14 -9l112 -204c2 -2.66699 4 -4 6 -4
s4 1.66699 6 5l111 203c3.33301 6 7.66602 9 12.999 9h36c8.66699 0 10.667 -4 6 -12z" />
    <glyph glyph-name="z" unicode="z" horiz-adv-x="390" 
d="M370 13c0 -8.66699 -4 -13 -12 -13h-325c-8.66699 -0 -13 4.33301 -13 13c0 2 0.666992 4 2 6l277 674c2 4.66699 0.333008 7 -5 7h-261c-8.66699 0 -13 4.33301 -13 13v25c0 8 4.33301 12 13 12h324c8.66699 0 13 -4 13 -12c0 -2 -0.333008 -4 -1 -6l-278 -675
c-2 -4.66699 -0.333008 -7 5 -7h262c8 0 12 -4 12 -12v-25z" />
    <glyph glyph-name="braceleft" unicode="{" horiz-adv-x="296" 
d="M236 13c0 -8.66699 -4 -13.001 -12 -13.001h-63c-16.667 0 -25 8.33301 -25 25v275c0 14 -4.83301 25.833 -14.5 35.5s-21.5 14.5 -35.5 14.5c-17.333 0 -26 8.33301 -26 25s8.66699 25 26 25c14 0 25.833 5 35.5 15s14.5 21.667 14.5 35v275c0 16.667 8.33301 25 25 25
h63c8 0 12 -4 12 -12v-25c0 -8.66699 -4 -13 -12 -13h-25c-8.66699 0 -13 -4 -13 -12v-238c0 -26 -10.667 -49.667 -32 -71c-1.33301 -1.33301 -2 -2.66602 -2 -3.99902s0.666992 -2.66602 2 -3.99902c21.333 -20.667 32 -44.334 32 -71.001v-237
c0 -8.66699 4.33301 -13 13 -13h25c8 0 12 -4 12 -12v-25z" />
    <glyph glyph-name="bar" unicode="|" horiz-adv-x="410" 
d="M390 163c0 -8.66699 -4 -13 -12 -13h-168c-16.667 0 -25 8.33301 -25 25v563c0 8 4.33301 12 13 12h25c8 0 12 -4 12 -12v-525c0 -8.66699 4.33301 -13 13 -13h130c8 0 12 -4 12 -12v-25zM390 13c0 -8.66699 -4 -13 -12 -13h-313c-16.667 -0 -25 8.33301 -25 25v713
c0 8 4.33301 12 13 12h25c8 0 12 -4 12 -12v-675c0 -8.66699 4.33301 -13 13 -13h275c8 0 12 -4 12 -12v-25z" />
    <glyph glyph-name="braceright" unicode="}" horiz-adv-x="296" 
d="M210 350c-14 0 -25.833 -4.83203 -35.5 -14.499s-14.5 -21.5 -14.5 -35.5v-275c0 -16.667 -8.33301 -25 -25 -25h-63c-8 0 -12 4.33301 -12 13v25c0 8 4 12 12 12h25c8.66699 0 13 4.33301 13 13v237c0 26 10.667 49.667 32 71c1.33301 1.33301 2 2.66602 2 3.99902
s-0.666992 2.66602 -2 3.99902c-21.333 20.667 -32 44.334 -32 71.001v238c0 8 -4.33301 12 -13 12h-25c-8 0 -12 4.33301 -12 13v25c0 8 4 12 12 12h63c16.667 0 25 -8.33301 25 -25v-275c0 -14 4.83301 -25.833 14.5 -35.5s21.5 -14.5 35.5 -14.5
c17.333 0 26 -8.33301 26 -25s-8.66699 -25 -26 -25z" />
    <glyph glyph-name="asciitilde" unicode="~" horiz-adv-x="370" 
d="M294 363c0 -8 -2.66406 -13.668 -7.99707 -17.001c-13.333 -6.66699 -28.333 -10 -45 -10c-17.333 0 -42.333 5.33301 -75 16s-55.334 16 -68.001 16c-14.667 0 -26.667 -4.66699 -36 -14c-0.666992 -0.666992 -2.33398 -2 -5.00098 -4
c-8.66699 -8.66699 -13 -8.66699 -13 0v41c0 8.66699 2.66699 14.334 8 17.001c13.333 6.66699 28 10 44 10c18 0 43.167 -5 75.5 -15s54.833 -15 67.5 -15c15.333 0 27.666 4.33301 36.999 13c0 -0.666992 1.33301 0.666016 4 3.99902
c9.33301 8.66699 14 8.33398 14 -0.999023v-41z" />
    <glyph glyph-name="nonbreakingspace" unicode="&#xa0;" horiz-adv-x="276" 
 />
    <glyph glyph-name="exclamdown" unicode="&#xa1;" horiz-adv-x="195" 
d="M135 688c0 -8.66699 -4 -13 -12 -13h-50c-8.66699 0 -13 4.33301 -13 13v50c0 8 4.33301 12 13 12h50c8 0 12 -4 12 -12v-50zM125 13c0 -8.66699 -4 -13 -12 -13h-30c-8.66699 -0 -13 4.33301 -13 13l3 600c0 8 4 12 12 12h25c8.66699 0 13 -4 13 -12z" />
    <glyph glyph-name="cent" unicode="&#xa2;" horiz-adv-x="470" 
d="M410 32c0 -2.66699 -1.33105 -4.66699 -3.99805 -6c-2.66699 -0.666992 -5.33398 0 -8.00098 2c-37.333 30.667 -69 58.334 -95 83.001c-4.66699 4 -8.33398 6 -11.001 6c-4.66699 0 -7 -5.33301 -7 -16v-88c0 -8.66699 -4 -13 -12 -13h-25
c-8.66699 0 -13 4.33301 -13 13v160c0 5.33301 -2 10.333 -6 15c-112.667 132 -169 268.667 -169 410c0 68 21 102 63 102h100c8 0 12 4.33301 12 13v25c0 8 4.33301 12 13 12h25c8 0 12 -4 12 -12v-25c0 -8.66699 4.33301 -13 13 -13h100c8 0 12 -4 12 -12v-25
c0 -8.66699 -4 -13 -12 -13h-100c-8.66699 0 -13 -4 -13 -12v-427c0 -7.33301 2 -13 6 -17c22 -24 57.667 -57.667 107 -101c8 -6.66699 12 -14.334 12 -23.001v-38zM235.002 292v345.999c0 8 -4 12 -12 12h-91c-14.667 0 -22 -17.333 -22 -52
c0 -109.333 36.333 -214.666 109 -315.999c2 -3.33301 4.66699 -5 8 -5c5.33301 0 8 5 8 15z" />
    <glyph glyph-name="sterling" unicode="&#xa3;" horiz-adv-x="470" 
d="M410 13c0 -8.66699 -4.33203 -13 -12.999 -13h-318c-12.667 -0 -19 6.33301 -19 19c0 4.66699 1.33301 8.66699 4 12c38 34 67.667 85.333 89 154c20 62.667 30.667 130.667 32 204c-0.666992 7.33301 -4.66699 11 -12 11h-51c-8 0 -12 4.33301 -12 13v25c0 8 4 12 12 12
h51c8 0 12 4.33301 12 13v187c0 2.66699 0.333008 9 1 19c9.33301 70.667 42.333 106 99 106c28.667 0 52.5 -9.66699 71.5 -29s28.5 -43 28.5 -71v-37c0 -8.66699 -4 -13 -12 -13h-25c-8.66699 0 -13 4.33301 -13 13v37c0 33.333 -16.667 50 -50 50
c-19.333 0 -33.333 -11.333 -42 -34c-5.33301 -13.333 -8 -27 -8 -41v-187c0 -8.66699 4.33301 -13 13 -13h73c8.66699 0 13 -4 13 -12v-25c0 -8.66699 -4.33301 -13 -13 -13h-73c-8.66699 0 -13 -4 -13 -12c-2 -131.333 -29.333 -240 -82 -326
c-4.66699 -8 -2.33398 -12 6.99902 -12h237c8.66699 0 13 -4 13 -12v-25z" />
    <glyph glyph-name="currency" unicode="&#xa4;" horiz-adv-x="495" 
d="M435 12c0 -8 -4 -12 -12 -12c-2.66699 0 -5 0.666992 -7 2c-144 104 -243 249.333 -297 436c-2.66699 8 -7 12 -13 12h-33c-8.66699 0 -13 4 -13 12v26c0 8 4.33301 12 13 12h15c10 0 14.333 3.66699 13 11c-0.666992 8 -2 16.5 -4 25.5s-6.33301 13.5 -13 13.5h-11
c-8.66699 0 -13 4.33301 -13 13v25c0 8 4.33301 12 13 12h4c7.33301 0 11 3.66699 11 11c-2 28.667 -3 52 -3 70c0 46 11.333 69 34 69h303c8.66699 0 13 -4 13 -12v-25c0 -8.66699 -4.33301 -13 -13 -13h-274c-8.66699 0 -13 -6.33301 -13 -19c0 -26 1 -49 3 -69
c0.666992 -8 4.66699 -12 12 -12h223c8 0 12 -4 12 -12v-26c0 -8 -4 -12 -12 -12h-213c-10 0 -14.333 -4 -13 -12c4 -25.333 9.66699 -38 17 -38h209c8 0 12 -4 12 -12v-26c0 -8 -4 -12 -12 -12h-191c-7.33301 -0.666992 -11 -4.66699 -11 -12
c48.667 -161.333 135 -289.333 259 -384c3.33301 -2.66699 5 -6 5 -10v-32z" />
    <glyph glyph-name="yen" unicode="&#xa5;" horiz-adv-x="465" 
d="M405 738l-142.998 -260l-4 -8v-8c-0.666992 -8 3.33301 -12 12 -12h100c8.66699 0 13 -4 13 -12v-25c0 -8.66699 -4.33301 -13 -13 -13h-100c-8 0 -12 -4 -12 -12v-26c0 -8 4 -12 12 -12h100c8.66699 0 13 -4 13 -12v-25c0 -8.66699 -4.33301 -13 -13 -13h-100
c-8 0 -12 -4 -12 -12v-275c0 -8.66699 -4.33301 -13 -13 -13h-25c-8 -0 -12 4.33301 -12 13v276c-0.666992 7.33301 -5 11 -13 11h-100c-8 0 -12 4.33301 -12 13v25c0 8 4 12 12 12h100c8 0 12.333 3.66699 13 11v28c-0.666992 7.33301 -5 11 -13 11h-100
c-8 0 -12 4.33301 -12 13v25c0 8 4 12 12 12h100c8 0 12.333 3.66699 13 11c0 2.66699 -0.333008 5.66699 -1 9c0 1.33301 -0.666992 3.33301 -2 6l-145 262c-4.66699 8 -2.33398 12 6.99902 12h34c6 0 10.667 -3 14 -9l112 -204c2 -2.66699 4 -4 6 -4s4 1.66699 6 5
l111 203c3.33301 6 7.66602 9 12.999 9h36c8.66699 0 10.667 -4 6 -12z" />
    <glyph glyph-name="brokenbar" unicode="&#xa6;" horiz-adv-x="720" 
d="M560 475c0 -76 -26.833 -140.832 -80.5 -194.499s-118.5 -80.5 -194.5 -80.5c-12.667 0 -25 0.666992 -37 2c-6.66699 17.333 -10.667 35 -12 53c16 -3.33301 32.333 -5 49 -5c62 0 115 22 159 66s66 97 66 159s-22 115 -66 159s-97 66 -159 66s-115 -22 -159 -66
s-66 -97 -66 -159c0 -68 25.333 -124.333 76 -169c-0.666992 -10 -1 -20.333 -1 -31s0.666992 -21.334 2 -32.001c-39.333 25.333 -70.333 58.333 -93 99s-34 85 -34 133c0 76 26.833 140.833 80.5 194.5s118.5 80.5 194.5 80.5s140.833 -26.833 194.5 -80.5
s80.5 -118.5 80.5 -194.5zM710 275.001c0 -76 -26.833 -140.834 -80.5 -194.501s-118.5 -80.5 -194.5 -80.5s-140.833 26.833 -194.5 80.5s-80.5 118.5 -80.5 194.5s26.833 140.833 80.5 194.5s118.5 80.5 194.5 80.5c12 0 24 -0.666992 36 -2
c7.33301 -17.333 11.666 -35 12.999 -53c-16 3.33301 -32.333 5 -49 5c-62 0 -115 -22 -159 -66s-66 -97 -66 -159s22 -115 66 -159s97 -66 159 -66s115 22 159 66s66 97 66 159c0 68 -25.333 124.333 -76 169c0.666992 10 1 20.333 1 31s-0.333008 21.334 -1 32.001
c38.667 -25.333 69.334 -58.333 92.001 -99s34 -85 34 -133z" />
    <glyph glyph-name="section" unicode="&#xa7;" horiz-adv-x="470" 
d="M410 475c0 -87.333 -36.667 -176.332 -110 -266.999c-56.667 -70.667 -131.334 -138 -224.001 -202c-10.667 -8 -16 -8.33301 -16 -1v38c0 7.33301 3.66699 13.666 11 18.999c192.667 138 289 275.667 289 413c0 16.667 -8.33301 25 -25 25h-175
c-27.333 0 -50.833 9.83301 -70.5 29.5s-29.5 43.167 -29.5 70.5c0 22.667 6.66699 42.667 20 60s30.333 29.333 51 36c2.66699 0.666992 5.66699 2.66699 9 6c12.667 32 36 48 70 48h188c8 0 12 -4 12 -12v-25c0 -8.66699 -4 -13 -12 -13h-188
c-16.667 0 -25 -8.33301 -25 -25s8.33301 -25 25 -25h125c20.667 0 38.334 -7.33301 53.001 -22s22 -32.334 22 -53.001c0 -16.667 -5 -31.667 -15 -45c-2.66699 -3.33301 -2.66699 -6.66602 0 -9.99902c10 -13.333 15 -28.333 15 -45zM360 575.001
c0 16.667 -8.33301 25 -25 25h-125c-31.333 0 -54 14.333 -68 43c-1.33301 2 -4 2 -8 0c-16 -10 -24 -24.333 -24 -43c0 -14 4.83301 -25.833 14.5 -35.5s21.5 -14.5 35.5 -14.5h175c16.667 0 25 8.33301 25 25z" />
    <glyph glyph-name="dieresis" unicode="&#xa8;" horiz-adv-x="370" 
d="M310 813c0 -8.66699 -4 -13 -12 -13h-50c-8.66699 0 -13 4.33301 -13 13v25c0 8 4.33301 12 13 12h50c8 0 12 -4 12 -12v-25zM135 813c0 -8.66699 -4 -13 -12 -13h-50c-8.66699 0 -13 4.33301 -13 13v25c0 8 4.33301 12 13 12h50c8 0 12 -4 12 -12v-25z" />
    <glyph glyph-name="copyright" unicode="&#xa9;" horiz-adv-x="510" 
d="M430 75c0 -20.667 -7.33301 -38.334 -22 -53.001s-32.334 -22 -53.001 -22h-200c-20.667 0 -38.334 7.33301 -53.001 22s-22 32.334 -22 53.001v600c0 20.667 7.33301 38.334 22 53.001s32.334 22 53.001 22h200c20.667 0 38.334 -7.33301 53.001 -22
s22 -32.334 22 -53.001v-600zM380 75v600c0 16.667 -8.33301 25 -25 25h-200c-16.667 0 -25 -8.33301 -25 -25v-600c0 -16.667 8.33301 -25 25 -25h200c16.667 0 25 8.33301 25 25zM330 108c0 -3.33301 -1.66602 -5.66797 -4.99902 -7.00098s-6.33301 -0.666016 -9 2.00098
l-9 8c-36.667 35.333 -67.334 102.666 -92.001 201.999c-23.333 91.333 -35 180 -35 266v46c0 16.667 8.33301 25 25 25v0h113c8 0 12 -4 12 -12v-25c0 -8.66699 -4 -13 -12 -13h-75c-8.66699 0 -13 -4 -13 -12v-9c0 -75.333 9.16699 -153.666 27.5 -234.999
s40.5 -140 66.5 -176c4 -6 6 -11.667 6 -17v-43z" />
    <glyph glyph-name="guillemotleft" unicode="&#xab;" horiz-adv-x="565" 
d="M485 126c0 -11.333 -3 -14 -9 -8l-239 238c-4.66699 5.33301 -7 11.333 -7 18s2.33301 12.667 7 18l239 238c6 6 9 3 9 -9v-35c0 -12 -3 -21 -9 -27l-177 -176c-6 -6 -6 -12 0 -18l177 -177c6 -6 9 -14.667 9 -26v-36zM335 126c0 -11.333 -3 -14 -9 -8l-239 238
c-4.66699 5.33301 -7 11.333 -7 18s2.33301 12.667 7 18l239 238c6 6 9 3 9 -9v-35c0 -12 -3 -21 -9 -27l-177 -176c-6 -6 -6 -12 0 -18l177 -177c6 -6 9 -14.667 9 -26v-36z" />
    <glyph glyph-name="logicalnot" unicode="&#xac;" horiz-adv-x="775" 
d="M460 519c-16 11.333 -32.667 21 -50 29v190c0 8 4.33301 12 13 12h25c8 0 12 -4 12 -12v-219zM760 13c0 -8.66699 -4.00098 -12.999 -12.001 -12.999h-313c-16.667 0 -25 8.33301 -25 25v406c20.667 -16.667 37.334 -36.334 50.001 -59.001v-309
c0 -8.66699 4.33301 -13 13 -13h275c8 0 12 -4 12 -12v-25zM559.999 275.001c0 -72.667 -24.999 -135.667 -74.999 -189v86c16.667 32 25 66.333 25 103c0 62 -22 115 -66 159s-97 66 -159 66s-115 -22 -159 -66s-66 -97 -66 -159s22 -115 66 -159s97 -66 159 -66
c35.333 0 68.666 7.66699 99.999 23v-48v-6c-32 -12.667 -65.333 -19 -100 -19c-76 0 -140.833 26.833 -194.5 80.5s-80.5 118.5 -80.5 194.5s26.833 140.833 80.5 194.5s118.5 80.5 194.5 80.5s140.833 -26.833 194.5 -80.5s80.5 -118.5 80.5 -194.5z" />
    <glyph glyph-name="minus" unicode="&#xad;" horiz-adv-x="370" 
d="M310 364c0 -8.66699 -4 -13 -12 -13h-225c-8.66699 0 -13 4.33301 -13 13v25c0 8 4.33301 12 13 12h225c8 0 12 -4 12 -12v-25z" />
    <glyph glyph-name="minus" unicode="&#x2212;" horiz-adv-x="370" 
d="M310 364c0 -8.66699 -4 -13 -12 -13h-225c-8.66699 0 -13 4.33301 -13 13v25c0 8 4.33301 12 13 12h225c8 0 12 -4 12 -12v-25z" />
    <glyph glyph-name="registered" unicode="&#xae;" horiz-adv-x="470" 
d="M410 75c0 -20.667 -7.33301 -38.334 -22 -53.001s-32.334 -22 -53.001 -22h-200c-20.667 0 -38.334 7.33301 -53.001 22s-22 32.334 -22 53.001v600c0 20.667 7.33301 38.334 22 53.001s32.334 22 53.001 22h200c20.667 0 38.334 -7.33301 53.001 -22
s22 -32.334 22 -53.001v-600zM360 75v600c0 16.667 -8.33301 25 -25 25h-200c-16.667 0 -25 -8.33301 -25 -25v-600c0 -16.667 8.33301 -25 25 -25h200c16.667 0 25 8.33301 25 25zM313 113c2 -8.66699 -1.33203 -13 -9.99902 -13h-26c-8 0 -13 4.33301 -15 13l-32 139
c-6.66699 -12.667 -13.334 -24 -20.001 -34v-105c0 -8.66699 -4 -13 -12 -13h-25c-8.66699 0 -13 4.33301 -13 13v512c0 16.667 8.33301 25 25 25h100c16.667 0 25 -8.33301 25 -25v-36c0 -84 -15.667 -170.667 -47 -260zM260.001 588c0 8 -4 12 -12 12h-25
c-8.66699 0 -13 -4 -13 -12v-257c33.333 87.333 50 173 50 257z" />
    <glyph glyph-name="macron" unicode="&#xaf;" horiz-adv-x="370" 
d="M310 791c0 -8.66699 -4 -13 -12 -13h-225c-8.66699 0 -13 4.33301 -13 13v24c0 8.66699 4.33301 13 13 13h225c8 0 12 -4.33301 12 -13v-24z" />
    <glyph glyph-name="macron" unicode="&#x2c9;" horiz-adv-x="370" 
d="M310 791c0 -8.66699 -4 -13 -12 -13h-225c-8.66699 0 -13 4.33301 -13 13v24c0 8.66699 4.33301 13 13 13h225c8 0 12 -4.33301 12 -13v-24z" />
    <glyph glyph-name="degree" unicode="&#xb0;" horiz-adv-x="420" 
d="M360 625c0 -41.333 -14.667 -76.666 -44 -105.999s-64.666 -44 -105.999 -44s-76.666 14.667 -105.999 44s-44 64.666 -44 105.999s14.667 76.666 44 105.999s64.666 44 105.999 44s76.666 -14.667 105.999 -44s44 -64.666 44 -105.999zM310 625
c0 27.333 -9.66699 50.833 -29 70.5s-43 29.5 -71 29.5c-27.333 0 -50.833 -9.83301 -70.5 -29.5s-29.5 -43.167 -29.5 -70.5s9.83301 -50.833 29.5 -70.5s43.167 -29.5 70.5 -29.5c28 0 51.667 9.83301 71 29.5s29 43.167 29 70.5z" />
    <glyph glyph-name="plusminus" unicode="&#xb1;" horiz-adv-x="370" 
d="M310 413c0 -8.66699 -4 -13 -12 -13h-75c-8.66699 0 -13 -4.33301 -13 -13v-37c0 -8.66699 -4 -13 -12 -13h-25c-8.66699 0 -13 4.33301 -13 13v37c0 8.66699 -4 13 -12 13h-75c-8.66699 0 -13 4.33301 -13 13v25c0 8 4.33301 12 13 12h75c8 0 12 4.33301 12 13v37
c0 8.66699 4.33301 13 13 13h25c8 0 12 -4.33301 12 -13v-37c0 -8.66699 4.33301 -13 13 -13h75c8 0 12 -4 12 -12v-25zM310 275c0 -8.66699 -4 -13 -12 -13h-225c-8.66699 0 -13 4.33301 -13 13v25c0 8 4.33301 12 13 12h225c8 0 12 -4 12 -12v-25z" />
    <glyph glyph-name="twosuperior" unicode="&#xb2;" horiz-adv-x="800" 
d="M760 13c0 -8.66699 -4 -13 -12 -13h-25c-8.66699 -0 -13 4.33301 -13 13v525c0 8 -4 12 -12 12h-225c-8.66699 0 -13 -4 -13 -12v-19c-16 11.333 -32.667 21 -50 29v177c0 16.667 8.33301 25 25 25h300c16.667 0 25 -8.33301 25 -25v-712zM460 13
c0 -8.66699 -4.00098 -12.999 -12.001 -12.999h-25c-8.66699 0 -13 4.33301 -13 13v418c20.667 -16.667 37.334 -36.334 50.001 -59.001v-359zM559.999 275.001c0 -72.667 -24.999 -135.667 -74.999 -189v86c16.667 32 25 66.333 25 103c0 62 -22 115 -66 159
s-97 66 -159 66s-115 -22 -159 -66s-66 -97 -66 -159s22 -115 66 -159s97 -66 159 -66c35.333 0 68.666 7.66699 99.999 23v-48v-6c-32 -12.667 -65.333 -19 -100 -19c-76 0 -140.833 26.833 -194.5 80.5s-80.5 118.5 -80.5 194.5s26.833 140.833 80.5 194.5
s118.5 80.5 194.5 80.5s140.833 -26.833 194.5 -80.5s80.5 -118.5 80.5 -194.5zM710 613.001v75c0 8 -4 12 -12 12h-225c-8.66699 0 -13 -4 -13 -12v-75c0 -8.66699 4.33301 -13 13 -13h225c8 0 12 4.33301 12 13z" />
    <glyph glyph-name="threesuperior" unicode="&#xb3;" horiz-adv-x="794" 
d="M779 13c1.33301 -8.66699 -2 -13 -10 -13h-26c-8.66699 -0 -13.667 4.33301 -15 13l-128 627c-1.33301 8 -6.33301 11 -15 9l-114 -31c-7.33301 -2 -11 -6.66699 -11 -14v-85c-16 11.333 -32.667 21 -50 29v190c0 8 4.33301 12 13 12h25c8 0 12 -4 12 -12v-56
c0 -8.66699 4.66699 -12.667 14 -12l290 80c8.66699 2 13 -1.33301 13 -10v-26c0 -8.66699 -4.33301 -14 -13 -16l-106 -29c-8 -2.66699 -11.333 -7.66699 -10 -15zM460 13c0 -8.66699 -4.00098 -12.999 -12.001 -12.999h-25c-8.66699 0 -13 4.33301 -13 13v418
c20.667 -16.667 37.334 -36.334 50.001 -59.001v-359zM559.999 275.001c0 -72.667 -24.999 -135.667 -74.999 -189v86c16.667 32 25 66.333 25 103c0 62 -22 115 -66 159s-97 66 -159 66s-115 -22 -159 -66s-66 -97 -66 -159s22 -115 66 -159s97 -66 159 -66
c35.333 0 68.666 7.66699 99.999 23v-48v-6c-32 -12.667 -65.333 -19 -100 -19c-76 0 -140.833 26.833 -194.5 80.5s-80.5 118.5 -80.5 194.5s26.833 140.833 80.5 194.5s118.5 80.5 194.5 80.5s140.833 -26.833 194.5 -80.5s80.5 -118.5 80.5 -194.5z" />
    <glyph glyph-name="acute" unicode="&#xb4;" horiz-adv-x="295" 
d="M235 870v-26c0 -8.66699 -4 -14.334 -12 -17.001l-151 -49c-3.33301 -1.33301 -6.16602 -1 -8.49902 1s-3.5 4.66699 -3.5 8v26c0 8.66699 4.33301 14.334 13 17.001l150 49c3.33301 1.33301 6.16602 1 8.49902 -1s3.5 -4.66699 3.5 -8z" />
    <glyph glyph-name="mu" unicode="&#xb5;" horiz-adv-x="780" 
d="M760 563c0 -8.66699 -4 -13 -12 -13h-275c-8.66699 0 -13 -4 -13 -12v-19c-16 11.333 -32.667 21 -50 29v177c0 16.667 8.33301 25 25 25h313c8 0 12 -4 12 -12v-25c0 -8.66699 -4 -13 -12 -13h-275c-8.66699 0 -13 -4 -13 -12v-75c0 -8.66699 4.33301 -13 13 -13h275
c8 0 12 -4 12 -12v-25zM460 13c0 -8.66699 -4.00098 -12.999 -12.001 -12.999h-25c-8.66699 0 -13 4.33301 -13 13v418c20.667 -16.667 37.334 -36.334 50.001 -59.001v-359zM559.999 275.001c0 -72.667 -24.999 -135.667 -74.999 -189v86c16.667 32 25 66.333 25 103
c0 62 -22 115 -66 159s-97 66 -159 66s-115 -22 -159 -66s-66 -97 -66 -159s22 -115 66 -159s97 -66 159 -66c35.333 0 68.666 7.66699 99.999 23v-48v-6c-32 -12.667 -65.333 -19 -100 -19c-76 0 -140.833 26.833 -194.5 80.5s-80.5 118.5 -80.5 194.5
s26.833 140.833 80.5 194.5s118.5 80.5 194.5 80.5s140.833 -26.833 194.5 -80.5s80.5 -118.5 80.5 -194.5z" />
    <glyph glyph-name="mu" unicode="&#x3bc;" horiz-adv-x="780" 
d="M760 563c0 -8.66699 -4 -13 -12 -13h-275c-8.66699 0 -13 -4 -13 -12v-19c-16 11.333 -32.667 21 -50 29v177c0 16.667 8.33301 25 25 25h313c8 0 12 -4 12 -12v-25c0 -8.66699 -4 -13 -12 -13h-275c-8.66699 0 -13 -4 -13 -12v-75c0 -8.66699 4.33301 -13 13 -13h275
c8 0 12 -4 12 -12v-25zM460 13c0 -8.66699 -4.00098 -12.999 -12.001 -12.999h-25c-8.66699 0 -13 4.33301 -13 13v418c20.667 -16.667 37.334 -36.334 50.001 -59.001v-359zM559.999 275.001c0 -72.667 -24.999 -135.667 -74.999 -189v86c16.667 32 25 66.333 25 103
c0 62 -22 115 -66 159s-97 66 -159 66s-115 -22 -159 -66s-66 -97 -66 -159s22 -115 66 -159s97 -66 159 -66c35.333 0 68.666 7.66699 99.999 23v-48v-6c-32 -12.667 -65.333 -19 -100 -19c-76 0 -140.833 26.833 -194.5 80.5s-80.5 118.5 -80.5 194.5
s26.833 140.833 80.5 194.5s118.5 80.5 194.5 80.5s140.833 -26.833 194.5 -80.5s80.5 -118.5 80.5 -194.5z" />
    <glyph glyph-name="paragraph" unicode="&#xb6;" horiz-adv-x="483" 
d="M423 13c0 -8.66699 -4.33301 -12.999 -13 -12.999h-25c-8 0 -12 4.33301 -12 13v675c0 8 -4.33301 12 -13 12h-25c-8 0 -12 -4 -12 -12v-675c0 -8.66699 -4.33301 -13 -13 -13h-25c-8 0 -12 4.33301 -12 13v166c0 7.33301 -3.33301 14.333 -10 21
c-135.333 143.333 -203 292.666 -203 447.999c0 68 21 102 63 102h275c16.667 0 25 -8.33301 25 -25v-712zM273 278.001v409.999c0 8 -4.33301 12 -13 12h-25c-8 0 -12 -4 -12 -12v-349c0 -8 3.66699 -17 11 -27c10 -13.333 20 -25.666 30 -36.999
c1.33301 -2 3 -2.33301 5 -1c2.66699 0.666992 4 2 4 4z" />
    <glyph glyph-name="periodcentered" unicode="&#xb7;" horiz-adv-x="220" 
d="M160 333c0 -5.33301 -2.66699 -8 -8 -8h-84c-5.33301 0 -8 2.66699 -8 8v84c0 5.33301 2.66699 8 8 8h84c5.33301 0 8 -2.66699 8 -8v-84z" />
    <glyph glyph-name="periodcentered" unicode="&#x2219;" horiz-adv-x="220" 
d="M160 333c0 -5.33301 -2.66699 -8 -8 -8h-84c-5.33301 0 -8 2.66699 -8 8v84c0 5.33301 2.66699 8 8 8h84c5.33301 0 8 -2.66699 8 -8v-84z" />
    <glyph glyph-name="cedilla" unicode="&#xb8;" horiz-adv-x="289" 
d="M229 -76c0 -26 -11.332 -46.333 -33.999 -61c-19.333 -12 -43 -18 -71 -18c-15.333 0 -29 2 -41 6l-15 5c-8 3.33301 -10.667 8.66602 -8 15.999l8 24c2.66699 8 8 10.667 16 8l26 -9c9.33301 -2.66699 23.166 -1.16699 41.499 4.5s27.5 13.834 27.5 24.501
c0 12 -10.333 18 -31 18c-15.333 0 -31 -2.33301 -47 -7c-4 -1.33301 -7.66699 -2 -11 -2c-15.333 0 -23 7 -23 21c0 5.33301 2 11.333 6 18l38 65c4.66699 8.66699 11.667 13 21 13c17.333 0 26 -8.33301 26 -25c0 -4 -1.33301 -8.33301 -4 -13l-11 -16
c-1.33301 -4 -1 -7.66699 1 -11c56.667 1.33301 85 -19 85 -61z" />
    <glyph glyph-name="onesuperior" unicode="&#xb9;" horiz-adv-x="800" 
d="M760 13c0 -8.66699 -4 -13 -12 -13h-25c-8.66699 -0 -13 4.33301 -13 13v517c0 8 -2.33301 13.333 -7 16c-75.333 57.333 -154 102.333 -236 135c-4.66699 2 -7 0.666992 -7 -4v-158c-16 11.333 -32.667 21 -50 29v190c0 11.333 5.66699 15 17 11
c93.333 -30.667 185 -77.334 275 -140.001c5.33301 -3.33301 8 -1.66602 8 5.00098v124c0 8 4.33301 12 13 12h25c8 0 12 -4 12 -12v-725zM460 13c0 -8.66699 -4.00098 -12.999 -12.001 -12.999h-25c-8.66699 0 -13 4.33301 -13 13v418
c20.667 -16.667 37.334 -36.334 50.001 -59.001v-359zM559.999 275.001c0 -72.667 -24.999 -135.667 -74.999 -189v86c16.667 32 25 66.333 25 103c0 62 -22 115 -66 159s-97 66 -159 66s-115 -22 -159 -66s-66 -97 -66 -159s22 -115 66 -159s97 -66 159 -66
c35.333 0 68.666 7.66699 99.999 23v-54c-32 -12.667 -65.333 -19 -100 -19c-76 0 -140.833 26.833 -194.5 80.5s-80.5 118.5 -80.5 194.5s26.833 140.833 80.5 194.5s118.5 80.5 194.5 80.5s140.833 -26.833 194.5 -80.5s80.5 -118.5 80.5 -194.5z" />
    <glyph glyph-name="guillemotright" unicode="&#xbb;" horiz-adv-x="565" 
d="M477 356l-238 -238c-6 -6 -9 -3.33301 -9 8v36c0 11.333 3 20 9 26l177 177c5.33301 6 5.33301 12 0 18l-177 176c-6 6 -9 15 -9 27v35c0 12 3 15 9 9l238 -238c5.33301 -5.33301 8 -11.333 8 -18s-2.66699 -12.667 -8 -18zM327 356l-238 -238c-6 -6 -9 -3.33301 -9 8v36
c0 11.333 3 20 9 26l177 177c5.33301 6 5.33301 12 0 18l-177 176c-6 6 -9 15 -9 27v35c0 12 3 15 9 9l238 -238c5.33301 -5.33301 8 -11.333 8 -18s-2.66699 -12.667 -8 -18z" />
    <glyph glyph-name="onequarter" unicode="&#xbc;" horiz-adv-x="800" 
d="M760 13c0 -8.66699 -4 -13 -12 -13h-25c-8.66699 -0 -13 4.33301 -13 13v575c0 8 -4 12 -12 12h-225c-8.66699 0 -13 -4 -13 -12v-69c-16 11.333 -32.667 21 -50 29v190c0 8 4.33301 12 13 12h25c8 0 12 -4 12 -12v-75c0 -8.66699 4.33301 -13 13 -13h225
c8 0 12 4.33301 12 13v75c0 8 4.33301 12 13 12h25c8 0 12 -4 12 -12v-725zM460 13c0 -8.66699 -4.00098 -12.999 -12.001 -12.999h-25c-8.66699 0 -13 4.33301 -13 13v418c20.667 -16.667 37.334 -36.334 50.001 -59.001v-359zM559.999 275.001
c0 -72.667 -24.999 -135.667 -74.999 -189v86c16.667 32 25 66.333 25 103c0 62 -22 115 -66 159s-97 66 -159 66s-115 -22 -159 -66s-66 -97 -66 -159s22 -115 66 -159s97 -66 159 -66c35.333 0 68.666 7.66699 99.999 23v-48v-6c-32 -12.667 -65.333 -19 -100 -19
c-76 0 -140.833 26.833 -194.5 80.5s-80.5 118.5 -80.5 194.5s26.833 140.833 80.5 194.5s118.5 80.5 194.5 80.5s140.833 -26.833 194.5 -80.5s80.5 -118.5 80.5 -194.5z" />
    <glyph glyph-name="onehalf" unicode="&#xbd;" horiz-adv-x="710" 
d="M670 13c0 -8.66699 -4.33301 -13 -13 -13h-25c-8 -0 -12 4.33301 -12 13v525c0 8 -4.33301 12 -13 12h-225c-8 0 -12 -4 -12 -12v-525c0 -8.66699 -4.33301 -13 -13 -13h-25c-8 -0 -12 4.33301 -12 13v625c0 8 4 12 12 12h25c8.66699 0 13 -4 13 -12v-25
c0 -8.66699 4 -13 12 -13h225c8.66699 0 13 4.33301 13 13v125c0 8 4 12 12 12h25c8.66699 0 13 -4 13 -12v-725zM370 713c0 -8.66699 -4.33301 -13 -13 -13h-125c-8 0 -12 -4 -12 -12v-675c0 -8.66699 -4.33301 -13 -13 -13h-25c-8 -0 -12 4.33301 -12 13v675
c0 8 -4.33301 12 -13 12h-125c-8 0 -12 4.33301 -12 13v25c0 8 4 12 12 12h325c8.66699 0 13 -4 13 -12v-25z" />
    <glyph glyph-name="threequarters" unicode="&#xbe;" horiz-adv-x="630" 
d="M610 713c0 -8.66699 -4 -13 -12 -13h-125c-8.66699 0 -13 -4 -13 -12v-169c-16 11.333 -32.667 21 -50 29v140c0 8 -4 12 -12 12h-175c-8.66699 0 -13 4.33301 -13 13v25c0 8 4.33301 12 13 12h375c8 0 12 -4 12 -12v-25zM460 13
c0 -8.66699 -4.00098 -12.999 -12.001 -12.999h-25c-8.66699 0 -13 4.33301 -13 13v418c20.667 -16.667 37.334 -36.334 50.001 -59.001v-359zM559.999 275.001c0 -72.667 -24.999 -135.667 -74.999 -189v86c16.667 32 25 66.333 25 103c0 62 -22 115 -66 159
s-97 66 -159 66s-115 -22 -159 -66s-66 -97 -66 -159s22 -115 66 -159s97 -66 159 -66c35.333 0 68.666 7.66699 99.999 23v-48v-6c-32 -12.667 -65.333 -19 -100 -19c-76 0 -140.833 26.833 -194.5 80.5s-80.5 118.5 -80.5 194.5s26.833 140.833 80.5 194.5
s118.5 80.5 194.5 80.5s140.833 -26.833 194.5 -80.5s80.5 -118.5 80.5 -194.5z" />
    <glyph glyph-name="questiondown" unicode="&#xbf;" horiz-adv-x="483" 
d="M285 688c0 -8.66699 -4 -13 -12 -13h-50c-8.66699 0 -13 4.33301 -13 13v50c0 8 4.33301 12 13 12h50c8 0 12 -4 12 -12v-50zM423 112l-1 -13c-1.33301 -66 -22.333 -99 -63 -99h-236c-42 0 -63 34 -63 102c0 135.333 51.333 266.333 154 393c6 6 9 13 9 21v97
c0 8 4 12 12 12h25c8.66699 0 13 -4 13 -12v-99c0 -16.667 -3.66699 -29.5 -11 -38.5s-12 -15.5 -14 -19.5c-92 -114 -138 -232 -138 -354c0 -15.333 1.83301 -27.833 5.5 -37.5s9.16699 -14.5 16.5 -14.5h219c8 0 13 3 15 9c4 10 6 23.667 6 41l1 12c0 8.66699 4 13 12 13
h25c8.66699 0 13 -4.33301 13 -13z" />
    <glyph glyph-name="Agrave" unicode="&#xc0;" horiz-adv-x="420" 
d="M271 787c0 -3.33301 -1.16699 -5.83398 -3.5 -7.50098s-5.16602 -2.16699 -8.49902 -1.5l-150 49c-8.66699 2.66699 -13 8.33398 -13 17.001v26c0 4 1.16699 6.83301 3.5 8.5s5.16602 1.83398 8.49902 0.500977l150 -48c8.66699 -2.66699 13 -8.33398 13 -17.001v-27z
M380 12.999c0 -8.66699 -4 -13 -12 -13h-25c-8.66699 0 -13 4.33301 -13 13v525c0 8 -4 12 -12 12h-197c-6.66699 0 -10.667 -3.33301 -12 -10c-19.333 -104 -29 -209.333 -29 -316c0 -56 4.33301 -126.333 13 -211c0.666992 -8.66699 -3.33301 -13 -12 -13h-26
c-8 0 -12.333 4 -13 12c-8 90.667 -12 161.334 -12 212.001c0 157.333 20.667 312.666 62 465.999c1.33301 6.66699 -3 10 -13 10h-36c-8.66699 0 -13 4.33301 -13 13v25c0 8 4.33301 12 13 12h312c16.667 0 25 -8.33301 25 -25v-712zM330 612.999v74.999c0 8 -4 12 -12 12
h-162c-6.66699 0 -10.667 -3 -12 -9c-5.33301 -17.333 -12 -43.666 -20 -78.999c-1.33301 -8 2.66699 -12 12 -12h182c8 0 12 4.33301 12 13z" />
    <glyph glyph-name="Aacute" unicode="&#xc1;" horiz-adv-x="420" 
d="M332 870l0.000976562 -26c0 -8.66699 -4.33301 -14.334 -13 -17.001l-150 -49c-3.33301 -1.33301 -6.33301 -1 -9 1s-4 4.66699 -4 8l1 26c0 8.66699 4 14.334 12 17.001l151 49c3.33301 1.33301 6.16602 1 8.49902 -1s3.5 -4.66699 3.5 -8zM380.001 13
c0 -8.66699 -4 -13 -12 -13h-25c-8.66699 -0 -13 4.33301 -13 13v525c0 8 -4 12 -12 12h-197c-6.66699 0 -10.667 -3.33301 -12 -10c-19.333 -104 -29 -209.333 -29 -316c0 -56 4.33301 -126.333 13 -211c0.666992 -8.66699 -3.33301 -13 -12 -13h-26c-8 0 -12.333 4 -13 12
c-8 90.667 -12 161.334 -12 212.001c0 157.333 20.667 312.666 62 465.999c1.33301 6.66699 -3 10 -13 10h-36c-8.66699 0 -13 4.33301 -13 13v25c0 8 4.33301 12 13 12h312c16.667 0 25 -8.33301 25 -25v-712zM330.001 613v74.999c0 8 -4 12 -12 12h-162
c-6.66699 0 -10.667 -3 -12 -9c-5.33301 -17.333 -12 -43.666 -20 -78.999c-1.33301 -8 2.66699 -12 12 -12h182c8 0 12 4.33301 12 13z" />
    <glyph glyph-name="Acircumflex" unicode="&#xc2;" horiz-adv-x="420" 
d="M358 783c0 -10 -4 -13.333 -12 -10l-104 42c-3.33301 1.33301 -6.33301 2 -9 2s-5.33398 -0.666992 -8.00098 -2l-104 -42c-8.66699 -3.33301 -13 0 -13 10v23c0 10 4.33301 16.667 13 20l108 44c0.666992 0.666992 2 1 4 1c2.66699 0 4.33398 -0.333008 5.00098 -1
l108 -44c8 -3.33301 12 -10 12 -20v-23zM380 13c0 -8.66699 -4 -13 -12 -13h-25c-8.66699 -0 -13 4.33301 -13 13v525c0 8 -4 12 -12 12h-197c-6.66699 0 -10.667 -3.33301 -12 -10c-19.333 -104 -29 -209.333 -29 -316c0 -56 4.33301 -126.333 13 -211
c0.666992 -8.66699 -3.33301 -13 -12 -13h-26c-8 0 -12.333 4 -13 12c-8 90.667 -12 161.334 -12 212.001c0 157.333 20.667 312.666 62 465.999c1.33301 6.66699 -3 10 -13 10h-36c-8.66699 0 -13 4.33301 -13 13v25c0 8 4.33301 12 13 12h312c16.667 0 25 -8.33301 25 -25
v-712zM330 613v74.999c0 8 -4 12 -12 12h-162c-6.66699 0 -10.667 -3 -12 -9c-5.33301 -17.333 -12 -43.666 -20 -78.999c-1.33301 -8 2.66699 -12 12 -12h182c8 0 12 4.33301 12 13z" />
    <glyph glyph-name="Atilde" unicode="&#xc3;" horiz-adv-x="420" 
d="M335 797c0 -8.66699 -2.66504 -14.334 -7.99805 -17.001c-13.333 -6.66699 -28 -10 -44 -10c-18 0 -43.333 5.33301 -76 16s-55.334 16 -68.001 16c-14.667 0 -26.667 -4.66699 -36 -14l-4 -4c-9.33301 -9.33301 -14 -9.33301 -14 0v41c0 8.66699 3 14.334 9 17.001
c12.667 6.66699 27.334 10 44.001 10c17.333 0 42.166 -5 74.499 -15s54.833 -15 67.5 -15c15.333 0 27.666 4 36.999 12l5 4c8.66699 9.33301 13 9.33301 13 0v-41zM380.002 13c0 -8.66699 -4 -13 -12 -13h-25c-8.66699 -0 -13 4.33301 -13 13v525c0 8 -4 12 -12 12h-197
c-6.66699 0 -10.667 -3.33301 -12 -10c-19.333 -104 -29 -209.333 -29 -316c0 -56 4.33301 -126.333 13 -211c0.666992 -8.66699 -3.33301 -13 -12 -13h-26c-8 0 -12.333 4 -13 12c-8 90.667 -12 161.334 -12 212.001c0 157.333 20.667 312.666 62 465.999
c1.33301 6.66699 -3 10 -13 10h-36c-8.66699 0 -13 4.33301 -13 13v25c0 8 4.33301 12 13 12h312c16.667 0 25 -8.33301 25 -25v-712zM330.002 613v74.999c0 8 -4 12 -12 12h-162c-6.66699 0 -10.667 -3 -12 -9c-5.33301 -17.333 -12 -43.666 -20 -78.999
c-1.33301 -8 2.66699 -12 12 -12h182c8 0 12 4.33301 12 13z" />
    <glyph glyph-name="Adieresis" unicode="&#xc4;" horiz-adv-x="420" 
d="M340 813c0 -8.66699 -4 -13 -12 -13h-50c-8.66699 0 -13 4.33301 -13 13v25c0 8 4.33301 12 13 12h50c8 0 12 -4 12 -12v-25zM165 813c0 -8.66699 -4 -13 -12 -13h-50c-8.66699 0 -13 4.33301 -13 13v25c0 8 4.33301 12 13 12h50c8 0 12 -4 12 -12v-25zM380 13
c0 -8.66699 -4 -13 -12 -13h-25c-8.66699 -0 -13 4.33301 -13 13v525c0 8 -4 12 -12 12h-197c-6.66699 0 -10.667 -3.33301 -12 -10c-19.333 -104 -29 -209.333 -29 -316c0 -56 4.33301 -126.333 13 -211c0.666992 -8.66699 -3.33301 -13 -12 -13h-26c-8 0 -12.333 4 -13 12
c-8 90.667 -12 161.334 -12 212.001c0 157.333 20.667 312.666 62 465.999c1.33301 6.66699 -3 10 -13 10h-36c-8.66699 0 -13 4.33301 -13 13v25c0 8 4.33301 12 13 12h312c16.667 0 25 -8.33301 25 -25v-712zM330 613v74.999c0 8 -4 12 -12 12h-162
c-6.66699 0 -10.667 -3 -12 -9c-5.33301 -17.333 -12 -43.666 -20 -78.999c-1.33301 -8 2.66699 -12 12 -12h182c8 0 12 4.33301 12 13z" />
    <glyph glyph-name="Aring" unicode="&#xc5;" horiz-adv-x="420" 
d="M310 845c0 -20.667 -7.33301 -38.334 -22 -53.001s-32.334 -22 -53.001 -22s-38.334 7.33301 -53.001 22s-22 32.334 -22 53.001s7.33301 38.334 22 53.001s32.334 22 53.001 22s38.334 -7.33301 53.001 -22s22 -32.334 22 -53.001zM380 13c0 -8.66699 -4 -13 -12 -13
h-25c-8.66699 -0 -13 4.33301 -13 13v525c0 8 -4 12 -12 12h-197c-6.66699 0 -10.667 -3.33301 -12 -10c-19.333 -104 -29 -209.333 -29 -316c0 -56 4.33301 -126.333 13 -211c0.666992 -8.66699 -3.33301 -13 -12 -13h-26c-8 0 -12.333 4 -13 12
c-8 90.667 -12 161.334 -12 212.001c0 157.333 20.667 312.666 62 465.999c1.33301 6.66699 -3 10 -13 10h-36c-8.66699 0 -13 4.33301 -13 13v25c0 8 4.33301 12 13 12h312c16.667 0 25 -8.33301 25 -25v-712zM268 845c0 9.33301 -3.16699 17.166 -9.5 23.499
s-14.166 9.5 -23.499 9.5s-17.166 -3.16699 -23.499 -9.5s-9.5 -14.166 -9.5 -23.499s3.16699 -17.166 9.5 -23.499s14.166 -9.5 23.499 -9.5s17.166 3.16699 23.499 9.5s9.5 14.166 9.5 23.499zM330 613v74.999c0 8 -4 12 -12 12h-162c-6.66699 0 -10.667 -3 -12 -9
c-5.33301 -17.333 -12 -43.666 -20 -78.999c-1.33301 -8 2.66699 -12 12 -12h182c8 0 12 4.33301 12 13z" />
    <glyph glyph-name="AE" unicode="&#xc6;" horiz-adv-x="710" 
d="M680 13c0 -8.66699 -4 -13 -12 -13h-325c-8.66699 -0 -13 4.33301 -13 13v525c0 8 -4 12 -12 12h-197c-6.66699 0 -10.667 -3.33301 -12 -10c-19.333 -104 -29 -209.333 -29 -316c0 -56 2 -103.667 6 -143l7 -68c0.666992 -8.66699 -3.33301 -13 -12 -13h-26
c-8 0 -12.333 4 -13 12l-3 30c-6 70.667 -9 131.334 -9 182.001c0 157.333 20.667 312.666 62 465.999c1.33301 6.66699 -3 10 -13 10h-36c-8.66699 0 -13 4.33301 -13 13v25c0 8 4.33301 12 13 12h625c8 0 12 -4 12 -12v-25c0 -8.66699 -4 -13 -12 -13h-275
c-8.66699 0 -13 -4 -13 -12v-75c0 -8.66699 4.33301 -13 13 -13h275c8 0 12 -4 12 -12v-25c0 -8.66699 -4 -13 -12 -13h-275c-8.66699 0 -13 -4 -13 -12v-475c0 -8.66699 4.33301 -13 13 -13h275c8 0 12 -4 12 -12v-25zM330 613v75c0 8 -4 12 -12 12h-162
c-6.66699 0 -10.667 -3 -12 -9c-7.33301 -26.667 -14 -53 -20 -79c0 -8 4 -12 12 -12h182c8 0 12 4.33301 12 13z" />
    <glyph glyph-name="Ccedilla" unicode="&#xc7;" horiz-adv-x="390" 
d="M370 12c0 -8 -4.00098 -11.998 -12.001 -11.998c-2.66699 0 -5 0.666992 -7 2c-48 34.667 -91.667 75 -131 121l-36 -59c-1.33301 -4 -1.33301 -7.66699 0 -11c57.333 1.33301 86 -19 86 -61c0 -26 -11.667 -46.333 -35 -61c-19.333 -12 -42.666 -18 -69.999 -18
c-16 0 -30 2 -42 6l-15 5c-8 3.33301 -10.333 8.66602 -7 15.999l8 24c2.66699 8 8 10.667 16 8c5.33301 -2 14 -5 26 -9c8.66699 -2.66699 21.667 -1.33398 39 3.99902c20 6 30 14.333 30 25c0 12 -10.667 18 -32 18c-14.667 0 -30 -2.33301 -46 -7
c-4 -1.33301 -8 -2 -12 -2c-14.667 0 -22 7 -22 21c0 5.33301 1.66699 11.333 5 18l74 125c-111.333 150 -167 322 -167 516c0 46 11.333 69 34 69h303c8.66699 0 13 -4 13 -12v-25c0 -8.66699 -4.33301 -13 -13 -13h-274c-8.66699 0 -13 -6.33301 -13 -19
c0 -114 22 -222.667 66 -326c42 -100 100.667 -185.333 176 -256c5.33301 -2.66699 8 -1 8 5v26c0 8.66699 4 13 12 13h25c8.66699 0 13 -4.33301 13 -13v-118z" />
    <glyph glyph-name="Egrave" unicode="&#xc8;" horiz-adv-x="390" 
d="M245 787c0 -3.33301 -1.16699 -5.83398 -3.5 -7.50098s-5.16602 -2.16699 -8.49902 -1.5l-150 49c-8.66699 2.66699 -13 8.33398 -13 17.001v26c0 4 1.16699 6.83301 3.5 8.5s5.16602 1.83398 8.49902 0.500977l150 -48c8.66699 -2.66699 13 -8.33398 13 -17.001v-27z
M370 11.999c0 -4.66699 -2.33203 -8.33301 -6.99902 -11c-4 -2 -8 -1.66699 -12 1c-101.333 73.333 -181.333 169.333 -240 288c-60.667 122 -91 252.333 -91 391c0 46 11.333 69 34 69h303c8.66699 0 13 -4 13 -12v-25c0 -8.66699 -4.33301 -13 -13 -13h-274
c-8.66699 0 -13 -6.33301 -13 -19c0 -18 1 -40.667 3 -68c0.666992 -8.66699 4.66699 -13 12 -13h273c8 0 12 -4 12 -12v-25c0 -8.66699 -4 -13 -12 -13h-263c-8.66699 0 -13 -4 -13 -12c17.333 -99.333 50.666 -191 99.999 -275s110.333 -153.667 183 -209
c3.33301 -2.66699 5 -6 5 -10v-32z" />
    <glyph glyph-name="Eacute" unicode="&#xc9;" horiz-adv-x="390" 
d="M325 870v-26c0 -8.66699 -4 -14.334 -12 -17.001l-151 -49c-3.33301 -1.33301 -6.16602 -1 -8.49902 1s-3.5 4.66699 -3.5 8v26c0 8.66699 4.33301 14.334 13 17.001l150 49c3.33301 1.33301 6.16602 1 8.49902 -1s3.5 -4.66699 3.5 -8zM370 12
c0 -4.66699 -2.33203 -8.33301 -6.99902 -11c-4 -2 -8 -1.66699 -12 1c-101.333 73.333 -181.333 169.333 -240 288c-60.667 122 -91 252.333 -91 391c0 46 11.333 69 34 69h303c8.66699 0 13 -4 13 -12v-25c0 -8.66699 -4.33301 -13 -13 -13h-274
c-8.66699 0 -13 -6.33301 -13 -19c0 -18 1 -40.667 3 -68c0.666992 -8.66699 4.66699 -13 12 -13h273c8 0 12 -4 12 -12v-25c0 -8.66699 -4 -13 -12 -13h-263c-8.66699 0 -13 -4 -13 -12c17.333 -99.333 50.666 -191 99.999 -275s110.333 -153.667 183 -209
c3.33301 -2.66699 5 -6 5 -10v-32z" />
    <glyph glyph-name="Ecircumflex" unicode="&#xca;" horiz-adv-x="390" 
d="M324 783c0 -10 -4.33301 -13.333 -13 -10l-104 42c-2.66699 1.33301 -5.33398 2 -8.00098 2s-5.66699 -0.666992 -9 -2l-104 -42c-8 -3.33301 -12 0 -12 10v23c0 10 4 16.667 12 20l108 44c0.666992 0.666992 2.33398 1 5.00098 1c2 0 3.33301 -0.333008 4 -1l108 -44
c8.66699 -3.33301 13 -10 13 -20v-23zM370 12c0 -4.66699 -2.33203 -8.33301 -6.99902 -11c-4 -2 -8 -1.66699 -12 1c-101.333 73.333 -181.333 169.333 -240 288c-60.667 122 -91 252.333 -91 391c0 46 11.333 69 34 69h303c8.66699 0 13 -4 13 -12v-25
c0 -8.66699 -4.33301 -13 -13 -13h-274c-8.66699 0 -13 -6.33301 -13 -19c0 -18 1 -40.667 3 -68c0.666992 -8.66699 4.66699 -13 12 -13h273c8 0 12 -4 12 -12v-25c0 -8.66699 -4 -13 -12 -13h-263c-8.66699 0 -13 -4 -13 -12c17.333 -99.333 50.666 -191 99.999 -275
s110.333 -153.667 183 -209c3.33301 -2.66699 5 -6 5 -10v-32z" />
    <glyph glyph-name="Edieresis" unicode="&#xcb;" horiz-adv-x="390" 
d="M324 813c0 -8.66699 -4.33301 -13 -13 -13h-50c-8 0 -12 4.33301 -12 13v25c0 8 4 12 12 12h50c8.66699 0 13 -4 13 -12v-25zM149 813c0 -8.66699 -4.33301 -13 -13 -13h-50c-8 0 -12 4.33301 -12 13v25c0 8 4 12 12 12h50c8.66699 0 13 -4 13 -12v-25zM370 12
c0 -4.66699 -2.33203 -8.33301 -6.99902 -11c-4 -2 -8 -1.66699 -12 1c-101.333 73.333 -181.333 169.333 -240 288c-60.667 122 -91 252.333 -91 391c0 46 11.333 69 34 69h303c8.66699 0 13 -4 13 -12v-25c0 -8.66699 -4.33301 -13 -13 -13h-274
c-8.66699 0 -13 -6.33301 -13 -19c0 -18 1 -40.667 3 -68c0.666992 -8.66699 4.66699 -13 12 -13h273c8 0 12 -4 12 -12v-25c0 -8.66699 -4 -13 -12 -13h-263c-8.66699 0 -13 -4 -13 -12c17.333 -99.333 50.666 -191 99.999 -275s110.333 -153.667 183 -209
c3.33301 -2.66699 5 -6 5 -10v-32z" />
    <glyph glyph-name="Igrave" unicode="&#xcc;" horiz-adv-x="168" 
d="M109 787c0 -3.33301 -1.16699 -5.83398 -3.5 -7.50098s-5.16602 -2.16699 -8.49902 -1.5l-150 49c-8.66699 2.66699 -13 8.33398 -13 17.001v26c0 4 1.16699 6.83301 3.5 8.5s5.16602 1.83398 8.49902 0.500977l150 -48c8.66699 -2.66699 13 -8.33398 13 -17.001v-27z
M109 12.999c0 -8.66699 -4.33301 -13 -13 -13h-25c-8 0 -12 4.33301 -12 13v725c0 8 4 12 12 12h25c8.66699 0 13 -4 13 -12v-725z" />
    <glyph glyph-name="Iacute" unicode="&#xcd;" horiz-adv-x="168" 
d="M234 870v-26c0 -8.66699 -4.33301 -14.334 -13 -17.001l-150 -49c-3.33301 -1.33301 -6.16602 -1 -8.49902 1s-3.5 4.66699 -3.5 8v26c0 8.66699 4.33301 14.334 13 17.001l150 49c3.33301 1.33301 6.16602 1 8.49902 -1s3.5 -4.66699 3.5 -8zM110 13
c0 -8.66699 -4.33301 -13 -13 -13h-25c-8 -0 -12 4.33301 -12 13v725c0 8 4 12 12 12h25c8.66699 0 13 -4 13 -12v-725z" />
    <glyph glyph-name="Icircumflex" unicode="&#xce;" horiz-adv-x="168" 
d="M208 783c0 -10 -3.99902 -13.333 -11.999 -10l-104 42c-3.33301 1.33301 -6.33301 2 -9 2s-5.33398 -0.666992 -8.00098 -2l-104 -42c-8.66699 -3.33301 -13 0 -13 10v23c0 10 4.33301 16.667 13 20l108 44c0.666992 0.666992 2 1 4 1s3.33301 -0.333008 4 -1l109 -44
c8 -3.33301 12 -10 12 -20v-23zM109.001 13c0 -8.66699 -4 -13 -12 -13h-25c-8.66699 -0 -13 4.33301 -13 13v725c0 8 4.33301 12 13 12h25c8 0 12 -4 12 -12v-725z" />
    <glyph glyph-name="Idieresis" unicode="&#xcf;" horiz-adv-x="168" 
d="M209 813c0 -8.66699 -4.33301 -13 -13 -13h-50c-8.66699 0 -13 4.33301 -13 13v25c0 8 4.33301 12 13 12h50c8.66699 0 13 -4 13 -12v-25zM33 813c0 -8.66699 -4 -13 -12 -13h-50c-8.66699 0 -13 4.33301 -13 13v25c0 8 4.33301 12 13 12h50c8 0 12 -4 12 -12v-25z
M109 13c0 -8.66699 -4 -13 -12 -13h-25c-8.66699 -0 -13 4.33301 -13 13v725c0 8 4.33301 12 13 12h25c8 0 12 -4 12 -12v-725z" />
    <glyph glyph-name="Eth" unicode="&#xd0;" horiz-adv-x="420" 
d="M400 69c0 -46 -11.667 -69 -35 -69h-290c-16.667 -0 -25 8.33301 -25 25v263c0 8 -4.33301 12 -13 12h-24c-8.66699 0 -13 4.33301 -13 13v25c-0 8 4.33301 12 13 12h24c8.66699 0 13 4.33301 13 13v375c0 8 4 12 12 12c2.66699 0 5 -0.666992 7 -2
c101.333 -72.667 181.333 -168.667 240 -288c60.667 -122 91 -252.333 91 -391zM350 69c0 113.333 -21.667 221.333 -65 324c-42 100 -100.333 185.333 -175 256c-2 1.33301 -3.66699 2 -5 2c-3.33301 0 -5 -1.66699 -5 -5v-286c1.33301 -6.66699 5.33301 -10 12 -10h50
c8.66699 0 13 -4 13 -12v-25c0 -8.66699 -4.33301 -13 -13 -13h-50c-6.66699 0 -10.667 -3.33301 -12 -10v-227c0 -8.66699 4.33301 -13 13 -13h224c8.66699 0 13 6.33301 13 19z" />
    <glyph glyph-name="Ntilde" unicode="&#xd1;" horiz-adv-x="430" 
d="M340 797c0 -8.66699 -2.66504 -14.334 -7.99805 -17.001c-13.333 -6.66699 -28 -10 -44 -10c-18 0 -43.333 5.33301 -76 16s-55.334 16 -68.001 16c-14.667 0 -26.667 -4.66699 -36 -14l-4 -4c-9.33301 -9.33301 -14 -9.33301 -14 0v41c0 8.66699 3 14.334 9 17.001
c12.667 6.66699 27 10 43 10c18 0 43.167 -5 75.5 -15s54.833 -15 67.5 -15c15.333 0 27.666 4 36.999 12l4 4c9.33301 9.33301 14 9.33301 14 0v-41zM390.002 13c0 -8.66699 -3.99902 -13.001 -11.999 -13.001h-25c-8.66699 0 -13 4.33301 -13 13v318
c0 7.33301 -2 15 -6 23c-67.333 118.667 -145.333 217.667 -234 297c-6.66699 6 -10 5 -10 -3v-635c0 -8.66699 -4 -13 -12 -13h-25c-8.66699 0 -13 4.33301 -13 13v725c0 8 4.33301 12 13 12c2.66699 0 5 -1 7 -3c102.667 -74.667 194 -173.667 274 -297
c1.33301 -2 2.66602 -2.66699 3.99902 -2s2 2.33398 2 5.00098v285c0 8 4.33301 12 13 12h25c8 0 12 -4 12 -12v-725z" />
    <glyph glyph-name="Ograve" unicode="&#xd2;" 
d="M249 787c0 -3.33301 -1.16699 -5.83398 -3.5 -7.50098s-5.16602 -2.16699 -8.49902 -1.5l-151 49c-8 2.66699 -12 8.33398 -12 17.001v26c0 4 1.16699 6.83301 3.5 8.5s5.16602 1.83398 8.49902 0.500977l150 -48c8.66699 -2.66699 13 -8.33398 13 -17.001v-27z
M375 549.999c0 -80 -7.33496 -163.333 -22.002 -250c-18.667 -106 -44 -186.333 -76 -241c-23.333 -39.333 -49 -59 -77 -59c-50 0 -92.333 62.333 -127 187c-32 113.333 -48 234.333 -48 363c0 57.333 1 94.333 3 111c6.66699 59.333 23.334 89 50.001 89h244
c26.667 0 43.334 -29.667 50.001 -89c2 -16.667 3 -53.667 3 -111zM324.998 549.999c0 67.333 -2.66699 113.335 -8 138.002c-2 8 -7.33301 12 -16 12h-101h-101c-6.66699 0 -12 -4.33301 -16 -13c-5.33301 -24.667 -8 -70.334 -8 -137.001
c0 -74.667 7 -153.334 21 -236.001c16.667 -102 40 -178.333 70 -229c14 -23.333 25.333 -35 34 -35c14 0 30.667 22.667 50 68c12 28 21.667 55.667 29 83c30.667 108.667 46 225 46 349z" />
    <glyph glyph-name="Oacute" unicode="&#xd3;" 
d="M324 870v-26c0 -8.66699 -4.33301 -14.334 -13 -17.001l-150 -49c-3.33301 -1.33301 -6.16602 -1 -8.49902 1s-3.5 4.66699 -3.5 8v26c0 8.66699 4.33301 14.334 13 17.001l150 49c3.33301 1.33301 6.16602 1 8.49902 -1s3.5 -4.66699 3.5 -8zM375 550
c0 -80 -7.33496 -163.333 -22.002 -250c-18.667 -106 -44 -186.333 -76 -241c-23.333 -39.333 -49 -59 -77 -59c-50 -0 -92.333 62.333 -127 187c-32 113.333 -48 234.333 -48 363c0 57.333 1 94.333 3 111c6.66699 59.333 23.334 89 50.001 89h244
c26.667 0 43.334 -29.667 50.001 -89c2 -16.667 3 -53.667 3 -111zM324.998 550c0 67.333 -2.66699 113.335 -8 138.002c-2 8 -7.33301 12 -16 12h-101h-101c-6.66699 0 -12 -4.33301 -16 -13c-5.33301 -24.667 -8 -70.334 -8 -137.001c0 -74.667 7 -153.334 21 -236.001
c16.667 -102 40 -178.333 70 -229c14 -23.333 25.333 -35 34 -35c14 0 30.667 22.667 50 68c12 28 21.667 55.667 29 83c30.667 108.667 46 225 46 349z" />
    <glyph glyph-name="Ocircumflex" unicode="&#xd4;" 
d="M324 783c0 -10 -3.99902 -13.333 -11.999 -10l-104 42c-3.33301 1.33301 -6.33301 2 -9 2s-5.33398 -0.666992 -8.00098 -2l-104 -42c-8.66699 -3.33301 -13 0 -13 10v23c0 10 4.33301 16.667 13 20l108 44c0.666992 0.666992 2 1 4 1s3.66699 -0.333008 5 -1l108 -44
c8 -3.33301 12 -10 12 -20v-23zM375.001 550c0 -80 -7.33496 -163.333 -22.002 -250c-18.667 -106 -44 -186.333 -76 -241c-23.333 -39.333 -49 -59 -77 -59c-50 -0 -92.333 62.333 -127 187c-32 113.333 -48 234.333 -48 363c0 57.333 1 94.333 3 111
c6.66699 59.333 23.334 89 50.001 89h244c26.667 0 43.334 -29.667 50.001 -89c2 -16.667 3 -53.667 3 -111zM324.999 550c0 67.333 -2.66699 113.335 -8 138.002c-2 8 -7.33301 12 -16 12h-101h-101c-6.66699 0 -12 -4.33301 -16 -13
c-5.33301 -24.667 -8 -70.334 -8 -137.001c0 -74.667 7 -153.334 21 -236.001c16.667 -102 40 -178.333 70 -229c14 -23.333 25.333 -35 34 -35c14 0 30.667 22.667 50 68c12 28 21.667 55.667 29 83c30.667 108.667 46 225 46 349z" />
    <glyph glyph-name="Otilde" unicode="&#xd5;" 
d="M326 797c0 -8.66699 -2.66504 -14.334 -7.99805 -17.001c-13.333 -6.66699 -28 -10 -44 -10c-18 0 -43.333 5.33301 -76 16s-55.334 16 -68.001 16c-14.667 0 -26.667 -4.66699 -36 -14l-4 -4c-9.33301 -9.33301 -14 -9.33301 -14 0v41c0 8.66699 3 14.334 9 17.001
c12.667 6.66699 27.334 10 44.001 10c17.333 0 42.166 -5 74.499 -15s55.166 -15 68.499 -15c14.667 0 26.667 4 36 12l5 4c8.66699 9.33301 13 9.33301 13 0v-41zM375.002 550c0 -80 -7.33496 -163.333 -22.002 -250c-18.667 -106 -44 -186.333 -76 -241
c-23.333 -39.333 -49 -59 -77 -59c-50 -0 -92.333 62.333 -127 187c-32 113.333 -48 234.333 -48 363c0 57.333 1 94.333 3 111c6.66699 59.333 23.334 89 50.001 89h244c26.667 0 43.334 -29.667 50.001 -89c2 -16.667 3 -53.667 3 -111zM325 550
c0 67.333 -2.66699 113.335 -8 138.002c-2 8 -7.33301 12 -16 12h-101h-101c-6.66699 0 -12 -4.33301 -16 -13c-5.33301 -24.667 -8 -70.334 -8 -137.001c0 -74.667 7 -153.334 21 -236.001c16.667 -102 40 -178.333 70 -229c14 -23.333 25.333 -35 34 -35
c14 0 30.667 22.667 50 68c12 28 21.667 55.667 29 83c30.667 108.667 46 225 46 349z" />
    <glyph glyph-name="Odieresis" unicode="&#xd6;" 
d="M326 813c0 -8.66699 -4 -13 -12 -13h-50c-8.66699 0 -13 4.33301 -13 13v25c0 8 4.33301 12 13 12h50c8 0 12 -4 12 -12v-25zM151 813c0 -8.66699 -4 -13 -12 -13h-50c-8.66699 0 -13 4.33301 -13 13v25c0 8 4.33301 12 13 12h50c8 0 12 -4 12 -12v-25zM375 550
c0 -80 -7.33496 -163.333 -22.002 -250c-18.667 -106 -44 -186.333 -76 -241c-23.333 -39.333 -49 -59 -77 -59c-50 -0 -92.333 62.333 -127 187c-32 113.333 -48 234.333 -48 363c0 57.333 1 94.333 3 111c6.66699 59.333 23.334 89 50.001 89h244
c26.667 0 43.334 -29.667 50.001 -89c2 -16.667 3 -53.667 3 -111zM324.998 550c0 67.333 -2.66699 113.335 -8 138.002c-2 8 -7.33301 12 -16 12h-101h-101c-6.66699 0 -12 -4.33301 -16 -13c-5.33301 -24.667 -8 -70.334 -8 -137.001c0 -74.667 7 -153.334 21 -236.001
c16.667 -102 40 -178.333 70 -229c14 -23.333 25.333 -35 34 -35c14 0 30.667 22.667 50 68c12 28 21.667 55.667 29 83c30.667 108.667 46 225 46 349z" />
    <glyph glyph-name="multiply" unicode="&#xd7;" horiz-adv-x="322" 
d="M258 311c6 -6 6 -11.667 0 -17l-18 -18c-5.33301 -6 -11 -6 -17 0l-53 53c-2.66699 2.66699 -5.66699 4 -9 4s-6.33301 -1.33301 -9 -4l-53 -53c-6 -6 -12 -6 -18 0l-17 18c-6 5.33301 -6 11 0 17l53 53c6 6 6 12 0 18l-53 53c-2.66699 2.66699 -4 5.66699 -4 9
s1.33301 6.33301 4 9l17 17c6 6 12 6 18 0l53 -53c2.66699 -2 5.66699 -3 9 -3s6.33301 1 9 3l53 53c2 2.66699 5 4 9 4c3.33301 0 6 -1.33301 8 -4l18 -17c2.66699 -2.66699 4 -5.66699 4 -9s-1.33301 -6.33301 -4 -9l-53 -53c-6 -6 -6 -12 0 -18z" />
    <glyph glyph-name="Oslash" unicode="&#xd8;" horiz-adv-x="397" 
d="M395 787l-32.002 -78.001c8 -25.333 12 -78.333 12 -159c0 -80 -7.33301 -163.333 -22 -250c-18 -105.333 -43.333 -185.666 -76 -240.999c-23.333 -39.333 -49 -59 -77 -59c-34 0 -65 30 -93 90l-32 -77c-3.33301 -8.66699 -9.33301 -13 -18 -13h-25
c-8 -0 -10.333 4.33301 -7 13l58 140c-3.33301 10 -6.66602 21.333 -9.99902 34c-32 113.333 -48 234.333 -48 363c0 57.333 1 94.333 3 111c6.66699 59.333 23.334 89 50.001 89h244c2.66699 0 5 -0.333008 7 -1l16 38c3.33301 8.66699 9.33301 13 18 13h25
c8 0 10.333 -4.33301 7 -13zM307.998 697.999c-2 1.33301 -4.33301 2.00195 -7 2.00195h-101h-101c-6.66699 0 -11.667 -4.33301 -15 -13c-6 -24.667 -9 -70.334 -9 -137.001c0 -110.667 13 -218.334 39 -323.001zM324.998 550.001c0 28 -0.333008 50 -1 66l-190 -460
c10 -28 21 -51.667 33 -71c13.333 -23.333 24.333 -35 33 -35c14 0 30.667 22.667 50 68c12 28 21.667 55.667 29 83c30.667 108.667 46 225 46 349z" />
    <glyph glyph-name="Ugrave" unicode="&#xd9;" horiz-adv-x="410" 
d="M266 787c0 -3.33301 -1.16699 -5.83398 -3.5 -7.50098s-5.16602 -2.16699 -8.49902 -1.5l-150 49c-8.66699 2.66699 -13 8.33398 -13 17.001v26c0 4 1.16699 6.83301 3.5 8.5s5.16602 1.83398 8.49902 0.500977l151 -48c8 -2.66699 12 -8.33398 12 -17.001v-27z
M390 737.999v-69c0 -136.667 -30.333 -264.667 -91 -384c-58.667 -115.333 -138.667 -209.666 -240 -282.999c-2 -1.33301 -4.33301 -2 -7 -2c-8 0 -12 4 -12 12v726c0 8 4.33301 12 13 12h25c8 0 12 -4 12 -12v-634c0 -2.66699 1 -4.33398 3 -5.00098
c2.66699 -0.666992 5 0 7 2c74.667 70 133 153.667 175 251c43.333 101.333 65 208.333 65 321v32.5v32.5c0 8 4.33301 12 13 12h25c8 0 12 -4 12 -12z" />
    <glyph glyph-name="Uacute" unicode="&#xda;" horiz-adv-x="410" 
d="M341 870l-1 -26c0 -8.66699 -4 -14.334 -12 -17.001l-150 -49c-4 -1.33301 -7.16699 -1 -9.5 1s-3.5 4.66699 -3.5 8v26c0.666992 8.66699 5 14.334 13 17.001l150 49c3.33301 1.33301 6.33301 1 9 -1s4 -4.66699 4 -8zM390 738v-69
c0 -136.667 -30.333 -264.667 -91 -384c-58.667 -115.333 -138.667 -209.666 -240 -282.999c-2 -1.33301 -4.33301 -2 -7 -2c-8 0 -12 4 -12 12v726c0 8 4.33301 12 13 12h25c8 0 12 -4 12 -12v-634c0 -2.66699 1 -4.33398 3 -5.00098c2.66699 -0.666992 5 0 7 2
c74.667 70 133 153.667 175 251c43.333 101.333 65 208.333 65 321v32.5v32.5c0 8 4.33301 12 13 12h25c8 0 12 -4 12 -12z" />
    <glyph glyph-name="Ucircumflex" unicode="&#xdb;" horiz-adv-x="410" 
d="M340 783c0 -10 -4 -13.333 -12 -10l-104 42c-3.33301 1.33301 -6.33301 2 -9 2s-5.33398 -0.666992 -8.00098 -2l-104 -42c-8.66699 -3.33301 -13 0 -13 10v23c0 10 4.33301 16.667 13 20l108 44c0.666992 0.666992 2 1 4 1c2.66699 0 4.33398 -0.333008 5.00098 -1
l108 -44c8 -3.33301 12 -10 12 -20v-23zM390 738v-69c0 -136.667 -30.333 -264.667 -91 -384c-58.667 -115.333 -138.667 -209.666 -240 -282.999c-2 -1.33301 -4.33301 -2 -7 -2c-8 0 -12 4 -12 12v726c0 8 4.33301 12 13 12h25c8 0 12 -4 12 -12v-634
c0 -2.66699 1 -4.33398 3 -5.00098c2.66699 -0.666992 5 0 7 2c74.667 70 133 153.667 175 251c43.333 101.333 65 208.333 65 321v32.5v32.5c0 8 4.33301 12 13 12h25c8 0 12 -4 12 -12z" />
    <glyph glyph-name="Udieresis" unicode="&#xdc;" horiz-adv-x="410" 
d="M341 813c0 -8.66699 -4.33301 -13 -13 -13h-50c-8 0 -12 4.33301 -12 13v25c0 8 4 12 12 12h50c8.66699 0 13 -4 13 -12v-25zM166 813c0 -8.66699 -4.33301 -13 -13 -13h-50c-8 0 -12 4.33301 -12 13v25c0 8 4 12 12 12h50c8.66699 0 13 -4 13 -12v-25zM390 738v-69
c0 -136.667 -30.333 -264.667 -91 -384c-58.667 -115.333 -138.667 -209.666 -240 -282.999c-2 -1.33301 -4.33301 -2 -7 -2c-8 0 -12 4 -12 12v726c0 8 4.33301 12 13 12h25c8 0 12 -4 12 -12v-634c0 -2.66699 1 -4.33398 3 -5.00098c2.66699 -0.666992 5 0 7 2
c74.667 70 133 153.667 175 251c43.333 101.333 65 208.333 65 321v32.5v32.5c0 8 4.33301 12 13 12h25c8 0 12 -4 12 -12z" />
    <glyph glyph-name="Yacute" unicode="&#xdd;" horiz-adv-x="381" 
d="M300 870v-26c0 -8.66699 -4 -14.334 -12 -17.001l-151 -49c-3.33301 -1.33301 -6.16602 -1 -8.49902 1s-3.5 4.66699 -3.5 8v26c0 8.66699 4.33301 14.334 13 17.001l150 49c3.33301 1.33301 6.16602 1 8.49902 -1s3.5 -4.66699 3.5 -8zM361 744
c0 -1.33301 -0.667969 -2.99902 -2.00098 -4.99902c-65.333 -79.333 -115.333 -171 -150 -275c-32.667 -99.333 -49 -202.666 -49 -309.999c0 -38 3 -85 9 -141c1.33301 -8.66699 -2.33398 -13 -11.001 -13h-25c-8.66699 0 -13.334 4.33301 -14.001 13
c-6 54.667 -9 101.667 -9 141c0 112.667 17 221.667 51 327c2.66699 7.33301 2.33398 13.666 -0.999023 18.999l-149 238c-0.666992 1.33301 -1 2.66602 -1 3.99902c0 5.33301 2.66699 8 8 8h38c4.66699 0 8.33398 -2.33301 11.001 -7l114 -183c4 -6 7.33301 -6 10 0
c32.667 76 68.334 137.667 107.001 185c2.66699 3.33301 6 5 10 5h46c4.66699 0 7 -2 7 -6z" />
    <glyph glyph-name="Thorn" unicode="&#xde;" horiz-adv-x="410" 
d="M390 625c0 -132.667 -98 -310.333 -294 -533c-4 -5.33301 -6 -11.333 -6 -18v-61c0 -8.66699 -4 -13 -12 -13h-25c-8.66699 -0 -13 4.33301 -13 13v725c0 8 4.33301 12 13 12h25c8 0 12 -4 12 -12v-75c0 -8.66699 4.33301 -13 13 -13h262c16.667 0 25 -8.33301 25 -25z
M337 588.001c-0.666992 8 -4.66699 12 -12 12h-222c-8.66699 0 -13 -4 -13 -12v-415c0 -3.33301 1.66699 -5 5 -5c2 0 3.33301 0.666992 4 2c142.667 168 222 307.333 238 418z" />
    <glyph glyph-name="germandbls" unicode="&#xdf;" horiz-adv-x="420" 
d="M390 725c0 -89.333 -41.666 -202.667 -124.999 -340c-2 -2.66699 -3 -6 -3 -10s1 -7.66699 3 -11c82 -135.333 123.667 -247.333 125 -336c2 -18.667 -6.33301 -28 -25 -28h-212c-8.66699 -0 -13 4.33301 -13 13v25c0 8 4.33301 12 13 12h172c7.33301 0 11.333 4 12 12
c-11.333 80 -52 176 -122 288c-7.33301 12 -11 21 -11 27c0 3.33301 5 13 15 29c67.333 110 106.666 204 117.999 282c-0.666992 8 -4.66699 12 -12 12h-222c-8.66699 0 -13 -4 -13 -12v-725c0 -8.66699 -4 -13 -12 -13h-25c-8.66699 0 -13 4.33301 -13 13v762
c0 16.667 8.33301 25 25 25h300c16.667 0 25 -8.33301 25 -25z" />
    <glyph glyph-name="agrave" unicode="&#xe0;" horiz-adv-x="430" 
d="M261 787c0 -3.33301 -1.16797 -5.83398 -3.50098 -7.50098s-5.16602 -2.16699 -8.49902 -1.5l-151 49c-8 2.66699 -12 8.33398 -12 17.001v26c-0.666992 4 0.333008 6.83301 3 8.5s5.66699 1.83398 9 0.500977l150 -48c8.66699 -2.66699 13 -8.33398 13 -17.001v-27z
M389.999 12.999c0 -8.66699 -4 -13 -12 -13h-25c-8.66699 0 -13 4.33301 -13 13v525c0 8 -4 12 -12 12h-225c-8.66699 0 -13 -4 -13 -12v-525c0 -8.66699 -4 -13 -12 -13h-25c-8.66699 0 -13 4.33301 -13 13v712c0 16.667 8.33301 25 25 25h300c16.667 0 25 -8.33301 25 -25
v-712zM339.999 612.999v75c0 8 -4 12 -12 12h-225c-8.66699 0 -13 -4 -13 -12v-75c0 -8.66699 4.33301 -13 13 -13h225c8 0 12 4.33301 12 13z" />
    <glyph glyph-name="aacute" unicode="&#xe1;" horiz-adv-x="430" 
d="M340 870v-26c-0.666992 -8.66699 -5 -14.334 -13 -17.001l-150 -49c-3.33301 -1.33301 -6.33301 -1 -9 1s-4 4.66699 -4 8l1 26c0 8.66699 4 14.334 12 17.001l150 49c4 1.33301 7.16699 1 9.5 -1s3.5 -4.66699 3.5 -8zM390 13c0 -8.66699 -4 -13 -12 -13h-25
c-8.66699 -0 -13 4.33301 -13 13v525c0 8 -4 12 -12 12h-225c-8.66699 0 -13 -4 -13 -12v-525c0 -8.66699 -4 -13 -12 -13h-25c-8.66699 -0 -13 4.33301 -13 13v712c0 16.667 8.33301 25 25 25h300c16.667 0 25 -8.33301 25 -25v-712zM340 613v75c0 8 -4 12 -12 12h-225
c-8.66699 0 -13 -4 -13 -12v-75c0 -8.66699 4.33301 -13 13 -13h225c8 0 12 4.33301 12 13z" />
    <glyph glyph-name="acircumflex" unicode="&#xe2;" horiz-adv-x="430" 
d="M341 788c0 -10 -4.33105 -13.333 -12.998 -10l-104 42c-2.66699 0.666992 -5.33398 1 -8.00098 1s-5.33398 -0.333008 -8.00098 -1l-105 -42c-8 -3.33301 -12 0 -12 10v22c0 10 4 17 12 21l108 44h5h4l108 -44c8.66699 -4 13 -11 13 -21v-22zM390.002 13
c0 -8.66699 -4 -13 -12 -13h-25c-8.66699 -0 -13 4.33301 -13 13v525c0 8 -4 12 -12 12h-225c-8.66699 0 -13 -4 -13 -12v-525c0 -8.66699 -4 -13 -12 -13h-25c-8.66699 -0 -13 4.33301 -13 13v712c0 16.667 8.33301 25 25 25h300c16.667 0 25 -8.33301 25 -25v-712z
M340.002 613v75c0 8 -4 12 -12 12h-225c-8.66699 0 -13 -4 -13 -12v-75c0 -8.66699 4.33301 -13 13 -13h225c8 0 12 4.33301 12 13z" />
    <glyph glyph-name="atilde" unicode="&#xe3;" horiz-adv-x="430" 
d="M341 797c0 -8.66699 -2.66406 -14.334 -7.99707 -17.001c-13.333 -6.66699 -28.333 -10 -45 -10c-17.333 0 -42.333 5.33301 -75 16s-55.334 16 -68.001 16c-14.667 0 -26.667 -4.66699 -36 -14c-0.666992 -0.666992 -2.33398 -2 -5.00098 -4
c-8.66699 -9.33301 -13 -9.33301 -13 0v41c0 8.66699 2.66699 14.334 8 17.001c13.333 6.66699 28 10 44 10c18 0 43.167 -5 75.5 -15s54.833 -15 67.5 -15c15.333 0 27.666 4 36.999 12l4 4c9.33301 9.33301 14 9.33301 14 0v-41zM390.003 13c0 -8.66699 -4 -13 -12 -13
h-25c-8.66699 -0 -13 4.33301 -13 13v525c0 8 -4 12 -12 12h-225c-8.66699 0 -13 -4 -13 -12v-525c0 -8.66699 -4 -13 -12 -13h-25c-8.66699 -0 -13 4.33301 -13 13v712c0 16.667 8.33301 25 25 25h300c16.667 0 25 -8.33301 25 -25v-712zM340.003 613v75c0 8 -4 12 -12 12
h-225c-8.66699 0 -13 -4 -13 -12v-75c0 -8.66699 4.33301 -13 13 -13h225c8 0 12 4.33301 12 13z" />
    <glyph glyph-name="adieresis" unicode="&#xe4;" horiz-adv-x="430" 
d="M341 813c0 -8.66699 -4.33301 -13 -13 -13h-50c-8 0 -12 4.33301 -12 13v25c0 8 4 12 12 12h50c8.66699 0 13 -4 13 -12v-25zM166 813c0 -8.66699 -4.33301 -13 -13 -13h-50c-8 0 -12 4.33301 -12 13v25c0 8 4 12 12 12h50c8.66699 0 13 -4 13 -12v-25zM390 13
c0 -8.66699 -4 -13 -12 -13h-25c-8.66699 -0 -13 4.33301 -13 13v525c0 8 -4 12 -12 12h-225c-8.66699 0 -13 -4 -13 -12v-525c0 -8.66699 -4 -13 -12 -13h-25c-8.66699 -0 -13 4.33301 -13 13v712c0 16.667 8.33301 25 25 25h300c16.667 0 25 -8.33301 25 -25v-712z
M340 613v75c0 8 -4 12 -12 12h-225c-8.66699 0 -13 -4 -13 -12v-75c0 -8.66699 4.33301 -13 13 -13h225c8 0 12 4.33301 12 13z" />
    <glyph glyph-name="aring" unicode="&#xe5;" horiz-adv-x="430" 
d="M294 845c0 -20.667 -7.33301 -38.334 -22 -53.001s-32.334 -22 -53.001 -22s-38.334 7.33301 -53.001 22s-22 32.334 -22 53.001s7.33301 38.334 22 53.001s32.334 22 53.001 22s38.334 -7.33301 53.001 -22s22 -32.334 22 -53.001zM390 13c0 -8.66699 -4 -13 -12 -13
h-25c-8.66699 -0 -13 4.33301 -13 13v525c0 8 -4 12 -12 12h-225c-8.66699 0 -13 -4 -13 -12v-525c0 -8.66699 -4 -13 -12 -13h-25c-8.66699 -0 -13 4.33301 -13 13v712c0 16.667 8.33301 25 25 25h300c16.667 0 25 -8.33301 25 -25v-712zM252 845
c0 9.33301 -3.33301 17.166 -10 23.499s-14.334 9.5 -23.001 9.5c-9.33301 0 -17.333 -3.16699 -24 -9.5s-10 -14.166 -10 -23.499s3.33301 -17.166 10 -23.499s14.667 -9.5 24 -9.5c8.66699 0 16.334 3.16699 23.001 9.5s10 14.166 10 23.499zM340 613v75c0 8 -4 12 -12 12
h-225c-8.66699 0 -13 -4 -13 -12v-75c0 -8.66699 4.33301 -13 13 -13h225c8 0 12 4.33301 12 13z" />
    <glyph glyph-name="ccedilla" unicode="&#xe7;" horiz-adv-x="390" 
d="M370 12c0 -4.66699 -2.33105 -8.33008 -6.99805 -10.9971c-4 -2 -8 -1.66699 -12 1c-46.667 33.333 -89.334 72.666 -128.001 117.999l-34 -56c-1.33301 -4 -1 -7.66699 1 -11c56.667 1.33301 85 -19 85 -61c0 -26 -11.333 -46.333 -34 -61c-19.333 -12 -43 -18 -71 -18
c-15.333 0 -29 2 -41 6l-15 5c-8 3.33301 -10.667 8.66602 -8 15.999l8 24c2.66699 8 8 10.667 16 8l26 -9c9.33301 -2.66699 23.166 -1.16699 41.499 4.5s27.5 13.834 27.5 24.501c0 12 -10.667 18 -32 18c-14.667 0 -30 -2.33301 -46 -7c-4 -1.33301 -7.66699 -2 -11 -2
c-15.333 0 -23 7 -23 21c0 5.33301 2 11.333 6 18l71 121c-113.333 151.333 -170 324.666 -170 519.999c0 46 11.333 69 34 69h303c8.66699 0 13 -4 13 -12v-25c0 -8.66699 -4.33301 -13 -13 -13h-274c-8.66699 0 -13 -6.33301 -13 -19c0 -126.667 27 -246.334 81 -359.001
c52.667 -110 124 -199.333 214 -268c3.33301 -2.66699 5 -6 5 -10v-32z" />
    <glyph glyph-name="egrave" unicode="&#xe8;" horiz-adv-x="420" 
d="M269 787c0 -3.33301 -1.33301 -5.83398 -4 -7.50098s-5.66699 -2.16699 -9 -1.5l-150 49c-8 2.66699 -12.333 8.33398 -13 17.001v26c0 4 1.16699 6.83301 3.5 8.5s5.5 1.83398 9.5 0.500977l150 -48c8 -2.66699 12 -8.33398 12 -17.001zM390 12.999
c0 -8.66699 -4 -13 -12 -13h-313c-16.667 0 -25 8.33301 -25 25v700c0 16.667 8.33301 25 25 25h313c8 0 12 -4 12 -12v-25c0 -8.66699 -4 -13 -12 -13h-275c-8.66699 0 -13 -4 -13 -12v-75c0 -8.66699 4.33301 -13 13 -13h275c8 0 12 -4 12 -12v-25
c0 -8.66699 -4 -13 -12 -13h-275c-8.66699 0 -13 -4 -13 -12v-475c0 -8.66699 4.33301 -13 13 -13h275c8 0 12 -4 12 -12v-25z" />
    <glyph glyph-name="eacute" unicode="&#xe9;" horiz-adv-x="420" 
d="M341 870v-26c0 -8.66699 -4.33301 -14.334 -13 -17.001l-150 -49c-3.33301 -1.33301 -6.16602 -1 -8.49902 1s-3.5 4.66699 -3.5 8v26c0 8.66699 4.33301 14.334 13 17.001l150 49c3.33301 1.33301 6.16602 1 8.49902 -1s3.5 -4.66699 3.5 -8zM390 13
c0 -8.66699 -4 -13 -12 -13h-313c-16.667 -0 -25 8.33301 -25 25v700c0 16.667 8.33301 25 25 25h313c8 0 12 -4 12 -12v-25c0 -8.66699 -4 -13 -12 -13h-275c-8.66699 0 -13 -4 -13 -12v-75c0 -8.66699 4.33301 -13 13 -13h275c8 0 12 -4 12 -12v-25
c0 -8.66699 -4 -13 -12 -13h-275c-8.66699 0 -13 -4 -13 -12v-475c0 -8.66699 4.33301 -13 13 -13h275c8 0 12 -4 12 -12v-25z" />
    <glyph glyph-name="ecircumflex" unicode="&#xea;" horiz-adv-x="420" 
d="M337 788c0 -10 -4.33203 -13.333 -12.999 -10l-104 42c-2.66699 0.666992 -5.33398 1 -8.00098 1s-5.66699 -0.333008 -9 -1l-104 -42c-8 -3.33301 -12 0 -12 10v22c0 10 4 17 12 21l108 44h4.5h4.5l108 -44c8.66699 -4 13 -11 13 -21v-22zM390.001 13
c0 -8.66699 -4 -13 -12 -13h-313c-16.667 -0 -25 8.33301 -25 25v700c0 16.667 8.33301 25 25 25h313c8 0 12 -4 12 -12v-25c0 -8.66699 -4 -13 -12 -13h-275c-8.66699 0 -13 -4 -13 -12v-75c0 -8.66699 4.33301 -13 13 -13h275c8 0 12 -4 12 -12v-25
c0 -8.66699 -4 -13 -12 -13h-275c-8.66699 0 -13 -4 -13 -12v-475c0 -8.66699 4.33301 -13 13 -13h275c8 0 12 -4 12 -12v-25z" />
    <glyph glyph-name="edieresis" unicode="&#xeb;" horiz-adv-x="420" 
d="M337 813c0 -8.66699 -4.33301 -13 -13 -13h-50c-8 0 -12 4.33301 -12 13v25c0 8 4 12 12 12h50c8.66699 0 13 -4 13 -12v-25zM162 813c0 -8.66699 -4.33301 -13 -13 -13h-50c-8 0 -12 4.33301 -12 13v25c0 8 4 12 12 12h50c8.66699 0 13 -4 13 -12v-25zM390 13
c0 -8.66699 -4 -13 -12 -13h-313c-16.667 -0 -25 8.33301 -25 25v700c0 16.667 8.33301 25 25 25h313c8 0 12 -4 12 -12v-25c0 -8.66699 -4 -13 -12 -13h-275c-8.66699 0 -13 -4 -13 -12v-75c0 -8.66699 4.33301 -13 13 -13h275c8 0 12 -4 12 -12v-25
c0 -8.66699 -4 -13 -12 -13h-275c-8.66699 0 -13 -4 -13 -12v-475c0 -8.66699 4.33301 -13 13 -13h275c8 0 12 -4 12 -12v-25z" />
    <glyph glyph-name="igrave" unicode="&#xec;" horiz-adv-x="168" 
d="M109 787c0 -3.33301 -1.16699 -5.83398 -3.5 -7.50098s-5.16602 -2.16699 -8.49902 -1.5l-150 49c-8.66699 2.66699 -13 8.33398 -13 17.001v26c0 4 1.16699 6.83301 3.5 8.5s5.16602 1.83398 8.49902 0.500977l150 -48c8.66699 -2.66699 13 -8.33398 13 -17.001v-27z
M109 12.999c0 -8.66699 -4.33301 -13 -13 -13h-25c-8 0 -12 4.33301 -12 13v725c0 8 4 12 12 12h25c8.66699 0 13 -4 13 -12v-725z" />
    <glyph glyph-name="iacute" unicode="&#xed;" horiz-adv-x="168" 
d="M234 870v-26c0 -8.66699 -4.33301 -14.334 -13 -17.001l-150 -49c-3.33301 -1.33301 -6.16602 -1 -8.49902 1s-3.5 4.66699 -3.5 8v26c0 8.66699 4.33301 14.334 13 17.001l150 49c3.33301 1.33301 6.16602 1 8.49902 -1s3.5 -4.66699 3.5 -8zM110 13
c0 -8.66699 -4.33301 -13 -13 -13h-25c-8 -0 -12 4.33301 -12 13v725c0 8 4 12 12 12h25c8.66699 0 13 -4 13 -12v-725z" />
    <glyph glyph-name="icircumflex" unicode="&#xee;" horiz-adv-x="168" 
d="M208 783c0 -10 -3.99902 -13.333 -11.999 -10l-104 42c-3.33301 1.33301 -6.33301 2 -9 2s-5.33398 -0.666992 -8.00098 -2l-104 -42c-8.66699 -3.33301 -13 0 -13 10v23c0 10 4.33301 16.667 13 20l108 44c0.666992 0.666992 2 1 4 1s3.33301 -0.333008 4 -1l109 -44
c8 -3.33301 12 -10 12 -20v-23zM109.001 13c0 -8.66699 -4 -13 -12 -13h-25c-8.66699 -0 -13 4.33301 -13 13v725c0 8 4.33301 12 13 12h25c8 0 12 -4 12 -12v-725z" />
    <glyph glyph-name="idieresis" unicode="&#xef;" horiz-adv-x="168" 
d="M209 813c0 -8.66699 -4.33301 -13 -13 -13h-50c-8.66699 0 -13 4.33301 -13 13v25c0 8 4.33301 12 13 12h50c8.66699 0 13 -4 13 -12v-25zM33 813c0 -8.66699 -4 -13 -12 -13h-50c-8.66699 0 -13 4.33301 -13 13v25c0 8 4.33301 12 13 12h50c8 0 12 -4 12 -12v-25z
M109 13c0 -8.66699 -4 -13 -12 -13h-25c-8.66699 -0 -13 4.33301 -13 13v725c0 8 4.33301 12 13 12h25c8 0 12 -4 12 -12v-725z" />
    <glyph glyph-name="eth" unicode="&#xf0;" horiz-adv-x="420" 
d="M400 681c0 -138.667 -30.333 -269 -91 -391c-58.667 -118.667 -138.667 -214.667 -240 -288c-2 -1.33301 -4.33301 -2 -7 -2c-8 0 -12 4 -12 12v376c0 8 -4.33301 12 -13 12h-24c-8.66699 0 -13 4.33301 -13 13v25c-0 8 4.33301 12 13 12h24c8.66699 0 13 4.33301 13 13
v262c0 16.667 8.33301 25 25 25h290c23.333 0 35 -23 35 -69zM350 681c0 12.667 -4.33301 19 -13 19h-224c-8.66699 0 -13 -4 -13 -12v-228c1.33301 -6.66699 5.33301 -10 12 -10h50c8.66699 0 13 -4 13 -12v-25c0 -8.66699 -4.33301 -13 -13 -13h-50
c-6.66699 0 -10.667 -3.33301 -12 -10v-286c0 -3.33301 1.66699 -5 5 -5c1.33301 0 3 0.666992 5 2c74.667 70.667 133 156 175 256c43.333 102.667 65 210.667 65 324z" />
    <glyph glyph-name="ntilde" unicode="&#xf1;" horiz-adv-x="430" 
d="M342 797c0 -8.66699 -2.66504 -14.334 -7.99805 -17.001c-13.333 -6.66699 -28 -10 -44 -10c-18 0 -43.333 5.33301 -76 16s-55.334 16 -68.001 16c-14.667 0 -26.667 -4.66699 -36 -14l-4 -4c-9.33301 -9.33301 -14 -9.33301 -14 0v41c0 8.66699 3 14.334 9 17.001
c12.667 6.66699 27.334 10 44.001 10c17.333 0 42.166 -5 74.499 -15s55.166 -15 68.499 -15c14.667 0 27 4 37 12l4 4c8.66699 9.33301 13 9.33301 13 0v-41zM390.002 13c0 -8.66699 -4 -13 -12 -13h-25c-8.66699 -0 -13 4.33301 -13 13v517c0 8 -2.33301 13.333 -7 16
c-75.333 57.333 -154 102.333 -236 135c-4.66699 2 -7 0.666992 -7 -4v-664c0 -8.66699 -4 -13 -12 -13h-25c-8.66699 -0 -13 4.33301 -13 13v725c0 11.333 5.66699 15 17 11c93.333 -30.667 185 -77.334 275 -140.001c5.33301 -3.33301 8 -1.66602 8 5.00098v124
c0 8 4.33301 12 13 12h25c8 0 12 -4 12 -12v-725z" />
    <glyph glyph-name="ograve" unicode="&#xf2;" horiz-adv-x="570" 
d="M314 608c0 -4 -1.16797 -6.83203 -3.50098 -8.49902s-5.16602 -1.83398 -8.49902 -0.500977l-151 48c-8 2.66699 -12 8.33398 -12 17.001l-1 27c0 3.33301 1.33301 5.83301 4 7.5s5.66699 2.16699 9 1.5l150 -49c8.66699 -2.66699 13 -8.33398 13 -17.001v-26z
M559.999 275.001c0 -76 -26.833 -140.833 -80.5 -194.5s-118.5 -80.5 -194.5 -80.5s-140.833 26.833 -194.5 80.5s-80.5 118.5 -80.5 194.5s26.833 140.833 80.5 194.5s118.5 80.5 194.5 80.5s140.833 -26.833 194.5 -80.5s80.5 -118.5 80.5 -194.5zM509.999 275.001
c0 62 -22 115 -66 159s-97 66 -159 66s-115 -22 -159 -66s-66 -97 -66 -159s22 -115 66 -159s97 -66 159 -66s115 22 159 66s66 97 66 159z" />
    <glyph glyph-name="oacute" unicode="&#xf3;" horiz-adv-x="570" 
d="M440 691l-1 -26.001c0 -8.66699 -4 -14.667 -12 -18l-150 -48c-4 -1.33301 -7.16699 -1 -9.5 1s-3.5 4.66699 -3.5 8v26c0.666992 8.66699 5 14.334 13 17.001l150 49c3.33301 1.33301 6.33301 1 9 -1s4 -4.66699 4 -8zM560 274.999c0 -76 -26.833 -140.833 -80.5 -194.5
s-118.5 -80.5 -194.5 -80.5s-140.833 26.833 -194.5 80.5s-80.5 118.5 -80.5 194.5s26.833 140.833 80.5 194.5s118.5 80.5 194.5 80.5s140.833 -26.833 194.5 -80.5s80.5 -118.5 80.5 -194.5zM510 274.999c0 62 -22 115 -66 159s-97 66 -159 66s-115 -22 -159 -66
s-66 -97 -66 -159s22 -115 66 -159s97 -66 159 -66s115 22 159 66s66 97 66 159z" />
    <glyph glyph-name="ocircumflex" unicode="&#xf4;" horiz-adv-x="570" 
d="M411 616c0 -10 -4.33105 -13.333 -12.998 -10l-104 41c-2.66699 1.33301 -5.33398 2 -8.00098 2s-5.33398 -0.333008 -8.00098 -1l-105 -42c-8 -3.33301 -12 0 -12 10v22c0 10 4 16.667 12 20l108 45h4.5h4.5l108 -45c8.66699 -3.33301 13 -10 13 -20v-22zM560.002 275
c0 -76 -26.833 -140.833 -80.5 -194.5s-118.5 -80.5 -194.5 -80.5s-140.833 26.833 -194.5 80.5s-80.5 118.5 -80.5 194.5s26.833 140.833 80.5 194.5s118.5 80.5 194.5 80.5s140.833 -26.833 194.5 -80.5s80.5 -118.5 80.5 -194.5zM510.002 275c0 62 -22 115 -66 159
s-97 66 -159 66s-115 -22 -159 -66s-66 -97 -66 -159s22 -115 66 -159s97 -66 159 -66s115 22 159 66s66 97 66 159z" />
    <glyph glyph-name="otilde" unicode="&#xf5;" horiz-adv-x="570" 
d="M410 617c0 -8.66699 -2.66504 -14.334 -7.99805 -17.001c-13.333 -6.66699 -28 -10 -44 -10c-18 0 -43.333 5.33301 -76 16s-55.334 16 -68.001 16c-14.667 0 -26.667 -4.66699 -36 -14l-4 -4c-9.33301 -9.33301 -14 -9.33301 -14 0v41c0 8.66699 3 14.334 9 17.001
c12.667 6.66699 27 10 43 10c18 0 43.167 -5 75.5 -15s54.833 -15 67.5 -15c15.333 0 27.666 4 36.999 12l4 4c9.33301 9.33301 14 9.33301 14 0v-41zM560.002 275c0 -76 -26.833 -140.833 -80.5 -194.5s-118.5 -80.5 -194.5 -80.5s-140.833 26.833 -194.5 80.5
s-80.5 118.5 -80.5 194.5s26.833 140.833 80.5 194.5s118.5 80.5 194.5 80.5s140.833 -26.833 194.5 -80.5s80.5 -118.5 80.5 -194.5zM510.002 275c0 62 -22 115 -66 159s-97 66 -159 66s-115 -22 -159 -66s-66 -97 -66 -159s22 -115 66 -159s97 -66 159 -66s115 22 159 66
s66 97 66 159z" />
    <glyph glyph-name="odieresis" unicode="&#xf6;" horiz-adv-x="570" 
d="M411 612c0 -8 -4.33301 -12 -13 -12h-50c-8 0 -12 4 -12 12v25c0 8.66699 4 13 12 13h50c8.66699 0 13 -4.33301 13 -13v-25zM236 612c0 -8 -4.33301 -12 -13 -12h-50c-8 0 -12 4 -12 12v25c0 8.66699 4 13 12 13h50c8.66699 0 13 -4.33301 13 -13v-25zM560 275
c0 -76 -26.833 -140.833 -80.5 -194.5s-118.5 -80.5 -194.5 -80.5s-140.833 26.833 -194.5 80.5s-80.5 118.5 -80.5 194.5s26.833 140.833 80.5 194.5s118.5 80.5 194.5 80.5s140.833 -26.833 194.5 -80.5s80.5 -118.5 80.5 -194.5zM510 275c0 62 -22 115 -66 159
s-97 66 -159 66s-115 -22 -159 -66s-66 -97 -66 -159s22 -115 66 -159s97 -66 159 -66s115 22 159 66s66 97 66 159z" />
    <glyph glyph-name="divide" unicode="&#xf7;" horiz-adv-x="370" 
d="M210 463c0 -8.66699 -4 -13 -12 -13h-25c-8.66699 0 -13 4.33301 -13 13v25c0 8 4.33301 12 13 12h25c8 0 12 -4 12 -12v-25zM310 362c0 -8 -4 -12 -12 -12h-225c-8.66699 0 -13 4 -13 12v25c0 8.66699 4.33301 13 13 13h225c8 0 12 -4.33301 12 -13v-25zM210 262
c0 -8 -4 -12 -12 -12h-25c-8.66699 0 -13 4 -13 12v25c0 8.66699 4.33301 13 13 13h25c8 0 12 -4.33301 12 -13v-25z" />
    <glyph glyph-name="oslash" unicode="&#xf8;" horiz-adv-x="570" 
d="M560 275c0 -76 -26.834 -140.835 -80.501 -194.502s-118.5 -80.5 -194.5 -80.5c-27.333 0 -53.666 4 -78.999 12l-19 -46c-4 -8.66699 -10 -13 -18 -13h-25c-8.66699 0 -11 4.33301 -7 13l26 63c-46 22.667 -83 56 -111 100s-42 92.667 -42 146
c0 76 26.833 140.833 80.5 194.5s118.5 80.5 194.5 80.5c30 0 59 -4.66699 87 -14l22 52c3.33301 8.66699 9.33301 13 18 13h25c8 0 10.333 -4.33301 7 -13l-29 -71c44 -23.333 79.167 -56.666 105.5 -99.999s39.5 -90.666 39.5 -141.999zM509.999 274.998
c0 41.333 -10.332 79.5 -30.999 114.5s-48.334 62.167 -83.001 81.5l-171 -413c19.333 -5.33301 39.333 -8 60 -8c62 0 115 22 159 66s66 97 66 159zM353 488.998c-22 7.33301 -44.667 11 -68 11c-62 0 -115 -22 -159 -66s-66 -97 -66 -159c0 -42.667 11.167 -82 33.5 -118
s51.833 -63.333 88.5 -82z" />
    <glyph glyph-name="ugrave" unicode="&#xf9;" horiz-adv-x="402" 
d="M255 787c0 -3.33301 -1.33301 -5.83398 -4 -7.50098s-5.66699 -2.16699 -9 -1.5l-150 49c-8 2.66699 -12.333 8.33398 -13 17.001v26c0 4 1.16699 6.83301 3.5 8.5s5.5 1.83398 9.5 0.500977l150 -48c8 -2.66699 12 -8.33398 12 -17.001zM377 661.999
c-1.33301 -275.333 -56.668 -494.333 -166.001 -657c-2 -3.33301 -5.33301 -5 -10 -5s-8 1.66699 -10 5c-109.333 162.667 -164.666 381.667 -165.999 657c0 0.666992 0.333008 26 1 76c0.666992 8 5 12 13 12h25c8.66699 0 12.667 -4 12 -12l-1 -74
c0 -232 40.333 -422.333 121 -571c1.33301 -2 3 -3 5 -3s3.66699 1 5 3c80.667 148.667 121 339 121 571c0 45.333 -0.333008 70 -1 74c-0.666992 8 3.33301 12 12 12h25c8 0 12.333 -4 13 -12c0.666992 -50 1 -75.333 1 -76z" />
    <glyph glyph-name="uacute" unicode="&#xfa;" horiz-adv-x="402" 
d="M322 870v-26c0 -8.66699 -4.33301 -14.334 -13 -17.001l-150 -49c-3.33301 -1.33301 -6.16602 -1 -8.49902 1s-3.5 4.66699 -3.5 8v26c0 8.66699 4.33301 14.334 13 17.001l150 49c3.33301 1.33301 6.16602 1 8.49902 -1s3.5 -4.66699 3.5 -8zM377 662
c-1.33301 -275.333 -56.668 -494.333 -166.001 -657c-2 -3.33301 -5.33301 -5 -10 -5s-8 1.66699 -10 5c-109.333 162.667 -164.666 381.667 -165.999 657c0 0.666992 0.333008 26 1 76c0.666992 8 5 12 13 12h25c8.66699 0 12.667 -4 12 -12l-1 -74
c0 -232 40.333 -422.333 121 -571c1.33301 -2 3 -3 5 -3s3.66699 1 5 3c80.667 148.667 121 339 121 571c0 45.333 -0.333008 70 -1 74c-0.666992 8 3.33301 12 12 12h25c8 0 12.333 -4 13 -12c0.666992 -50 1 -75.333 1 -76z" />
    <glyph glyph-name="ucircumflex" unicode="&#xfb;" horiz-adv-x="402" 
d="M325 788c0 -10 -3.99902 -13.333 -11.999 -10l-104 42c-3.33301 0.666992 -6.33301 1 -9 1s-5.33398 -0.333008 -8.00098 -1l-104 -42c-8.66699 -3.33301 -13 0 -13 10v22c0 10 4.33301 17 13 21l108 44h4h5l108 -44c8 -4 12 -11 12 -21v-22zM377.001 662
c-1.33301 -275.333 -56.668 -494.333 -166.001 -657c-2 -3.33301 -5.33301 -5 -10 -5s-8 1.66699 -10 5c-109.333 162.667 -164.666 381.667 -165.999 657c0 0.666992 0.333008 26 1 76c0.666992 8 5 12 13 12h25c8.66699 0 12.667 -4 12 -12l-1 -74
c0 -232 40.333 -422.333 121 -571c1.33301 -2 3 -3 5 -3s3.66699 1 5 3c80.667 148.667 121 339 121 571c0 45.333 -0.333008 70 -1 74c-0.666992 8 3.33301 12 12 12h25c8 0 12.333 -4 13 -12c0.666992 -50 1 -75.333 1 -76z" />
    <glyph glyph-name="udieresis" unicode="&#xfc;" horiz-adv-x="402" 
d="M327 813c0 -8.66699 -4.33301 -13 -13 -13h-50c-8 0 -12 4.33301 -12 13v25c0 8 4 12 12 12h50c8.66699 0 13 -4 13 -12v-25zM152 813c0 -8.66699 -4.33301 -13 -13 -13h-50c-8 0 -12 4.33301 -12 13v25c0 8 4 12 12 12h50c8.66699 0 13 -4 13 -12v-25zM377 662
c-1.33301 -275.333 -56.668 -494.333 -166.001 -657c-2 -3.33301 -5.33301 -5 -10 -5s-8 1.66699 -10 5c-109.333 162.667 -164.666 381.667 -165.999 657c0 0.666992 0.333008 26 1 76c0.666992 8 5 12 13 12h25c8.66699 0 12.667 -4 12 -12l-1 -74
c0 -232 40.333 -422.333 121 -571c1.33301 -2 3 -3 5 -3s3.66699 1 5 3c80.667 148.667 121 339 121 571c0 45.333 -0.333008 70 -1 74c-0.666992 8 3.33301 12 12 12h25c8 0 12.333 -4 13 -12c0.666992 -50 1 -75.333 1 -76z" />
    <glyph glyph-name="yacute" unicode="&#xfd;" horiz-adv-x="375" 
d="M305 870v-26c0 -8.66699 -4 -14.334 -12 -17.001l-151 -49c-3.33301 -1.33301 -6.16602 -1 -8.49902 1s-3.5 4.66699 -3.5 8v26c0 8.66699 4.33301 14.334 13 17.001l150 49c3.33301 1.33301 6.16602 1 8.49902 -1s3.5 -4.66699 3.5 -8zM360 738l-142.998 -260
c-2.66699 -4.66699 -4 -9 -4 -13v-452c0 -8.66699 -4.33301 -13 -13 -13h-25c-8 -0 -12 4.33301 -12 13v451c0 4.66699 -1 8.66699 -3 12l-145 262c-4.66699 8 -2.33398 12 6.99902 12h34c6 0 10.667 -3 14 -9l112 -204c2 -2.66699 4 -4 6 -4s4 1.66699 6 5l111 203
c3.33301 6 7.66602 9 12.999 9h36c8.66699 0 10.667 -4 6 -12z" />
    <glyph glyph-name="thorn" unicode="&#xfe;" horiz-adv-x="410" 
d="M390 625c0 -132.667 -98 -310.333 -294 -533c-4 -5.33301 -6 -11.333 -6 -18v-61c0 -8.66699 -4 -13 -12 -13h-25c-8.66699 -0 -13 4.33301 -13 13v725c0 8 4.33301 12 13 12h25c8 0 12 -4 12 -12v-75c0 -8.66699 4.33301 -13 13 -13h262c16.667 0 25 -8.33301 25 -25z
M337 588.001c-0.666992 8 -4.66699 12 -12 12h-222c-8.66699 0 -13 -4 -13 -12v-415c0 -3.33301 1.66699 -5 5 -5c2 0 3.33301 0.666992 4 2c142.667 168 222 307.333 238 418z" />
    <glyph glyph-name="ydieresis" unicode="&#xff;" horiz-adv-x="375" 
d="M312 813c0 -8.66699 -4 -13 -12 -13h-50c-8.66699 0 -13 4.33301 -13 13v25c0 8 4.33301 12 13 12h50c8 0 12 -4 12 -12v-25zM137 813c0 -8.66699 -4 -13 -12 -13h-50c-8.66699 0 -13 4.33301 -13 13v25c0 8 4.33301 12 13 12h50c8 0 12 -4 12 -12v-25zM360 738
l-142.998 -260c-2.66699 -4.66699 -4 -9 -4 -13v-452c0 -8.66699 -4.33301 -13 -13 -13h-25c-8 -0 -12 4.33301 -12 13v451c0 4.66699 -1 8.66699 -3 12l-145 262c-4.66699 8 -2.33398 12 6.99902 12h34c6 0 10.667 -3 14 -9l112 -204c2 -2.66699 4 -4 6 -4s4 1.66699 6 5
l111 203c3.33301 6 7.66602 9 12.999 9h36c8.66699 0 10.667 -4 6 -12z" />
    <glyph glyph-name="dotlessi" unicode="&#x131;" horiz-adv-x="150" 
d="M100 13c0 -8.66699 -4 -13 -12 -13h-25c-8.66699 -0 -13 4.33301 -13 13v625c0 8 4.33301 12 13 12h25c8 0 12 -4 12 -12v-625z" />
    <glyph glyph-name="Lslash" unicode="&#x141;" horiz-adv-x="470" 
d="M450 13c0 -8.66699 -4 -12.999 -12 -12.999h-313c-16.667 0 -25 8.33301 -25 25v307c0 8.66699 -4 12 -12 10l-75 -15c-8.66699 -2 -13 1.33301 -13 10v26c-0 8 4.33301 13 13 15l75 16c8 1.33301 12 6.33301 12 15v329c0 8 4.33301 12 13 12h25c8 0 12 -4 12 -12v-318
c0 -8.66699 4.33301 -12.334 13 -11.001l75 16c8 2 12 -1.33301 12 -10v-26c0 -8.66699 -4 -13.667 -12 -15l-75 -16c-8.66699 -2 -13 -7 -13 -15v-280c0 -8.66699 4.33301 -13 13 -13h275c8 0 12 -4 12 -12v-25z" />
    <glyph glyph-name="lslash" unicode="&#x142;" horiz-adv-x="370" 
d="M350 13c0 -8.66699 -4 -12.999 -12 -12.999h-213c-16.667 0 -25 8.33301 -25 25v307c0 8.66699 -4 12 -12 10l-75 -15c-8.66699 -2 -13 1.33301 -13 10v26c-0 8 4.33301 13 13 15l75 16c8 1.33301 12 6.33301 12 15v329c0 8 4.33301 12 13 12h25c8 0 12 -4 12 -12v-318
c0 -8.66699 4.33301 -12.334 13 -11.001l75 16c8 2 12 -1.33301 12 -10v-26c0 -8.66699 -4 -13.667 -12 -15l-75 -16c-8.66699 -2 -13 -7 -13 -15v-280c0 -8.66699 4.33301 -13 13 -13h175c8 0 12 -4 12 -12v-25z" />
    <glyph glyph-name="OE" unicode="&#x152;" horiz-adv-x="805" 
d="M785 12c0 -8 -4 -12.001 -12 -12.001c-2.66699 0 -5 0.666992 -7 2c-83.333 60 -153 137 -209 231c-10 -66.667 -40.667 -122.167 -92 -166.5s-111.333 -66.5 -180 -66.5c-76 0 -140.833 26.833 -194.5 80.5s-80.5 118.5 -80.5 194.5s26.833 140.833 80.5 194.5
s118.5 80.5 194.5 80.5c64 0 120.667 -19.667 170 -59c-13.333 62 -20 125.333 -20 190c0 24 4 42.333 12 55c4.66699 9.33301 12 14 22 14h303c8.66699 0 13 -4 13 -12v-25c0 -8.66699 -4.33301 -13 -13 -13h-274c-8.66699 0 -13 -6.33301 -13 -19c0 -18 1 -40.667 3 -68
c0.666992 -8.66699 4.66699 -13 12 -13h273c8 0 12 -4 12 -12v-25c0 -8.66699 -4 -13 -12 -13h-263c-8.66699 0 -13 -4 -13 -12c32 -183.333 126.333 -344.666 283 -483.999c3.33301 -2.66699 5 -6 5 -10v-32zM510 274.999c0 62 -22 115 -66 159s-97 66 -159 66
s-115 -22 -159 -66s-66 -97 -66 -159s22 -115 66 -159s97 -66 159 -66s115 22 159 66s66 97 66 159z" />
    <glyph glyph-name="oe" unicode="&#x153;" horiz-adv-x="790" 
d="M760 563c0 -8.66699 -4 -13 -12 -13h-275c-8.66699 0 -13 -4 -13 -12v-19c-16 11.333 -32.667 21 -50 29v177c0 16.667 8.33301 25 25 25h313c8 0 12 -4 12 -12v-25c0 -8.66699 -4 -13 -12 -13h-275c-8.66699 0 -13 -4 -13 -12v-75c0 -8.66699 4.33301 -13 13 -13h275
c8 0 12 -4 12 -12v-25zM760 13c0 -8.66699 -4.00098 -12.999 -12.001 -12.999h-313c-16.667 0 -25 8.33301 -25 25v406c20.667 -16.667 37.334 -36.334 50.001 -59.001v-309c0 -8.66699 4.33301 -13 13 -13h275c8 0 12 -4 12 -12v-25zM559.999 275.001
c0 -72.667 -24.999 -135.667 -74.999 -189v86c16.667 32 25 66.333 25 103c0 62 -22 115 -66 159s-97 66 -159 66s-115 -22 -159 -66s-66 -97 -66 -159s22 -115 66 -159s97 -66 159 -66c35.333 0 68.666 7.66699 99.999 23v-48v-6c-32 -12.667 -65.333 -19 -100 -19
c-76 0 -140.833 26.833 -194.5 80.5s-80.5 118.5 -80.5 194.5s26.833 140.833 80.5 194.5s118.5 80.5 194.5 80.5s140.833 -26.833 194.5 -80.5s80.5 -118.5 80.5 -194.5z" />
    <glyph glyph-name="Scaron" unicode="&#x160;" horiz-adv-x="390" 
d="M320 836c0 -10 -4.00195 -16.667 -12.002 -20l-109 -44c-0.666992 -0.666992 -2 -1 -4 -1s-3.33301 0.333008 -4 1l-108 44c-8.66699 3.33301 -13 10 -13 20v23c0 10 4.33301 13.333 13 10l104 -42c2.66699 -1.33301 5.33398 -2 8.00098 -2s5.33398 0.666992 8.00098 2
l105 42c8 3.33301 12 0 12 -10v-23zM369.998 559c0 -60 -36.332 -149.833 -108.999 -269.5s-146.334 -212.834 -221.001 -279.501c-8 -6.66699 -13.333 -10 -16 -10s-4 2 -4 6v41c0 8 3.66699 15.333 11 22l1 2c68 62.667 133.333 148 196 256
c61.333 105.333 92 182.666 92 231.999c0 27.333 -6.66699 41 -20 41h-205c-20.667 0 -38.334 7.33301 -53.001 22s-22 32.334 -22 53.001s7.33301 38.334 22 53.001s32.334 22 53.001 22h263c8 0 12 -4 12 -12v-25c0 -8.66699 -4 -13 -12 -13h-263
c-16.667 0 -25 -8.33301 -25 -25s8.33301 -25 25 -25h213c41.333 0 62 -30.333 62 -91z" />
    <glyph glyph-name="scaron" unicode="&#x161;" horiz-adv-x="390" 
d="M310 836c0 -10 -4.00195 -16.667 -12.002 -20l-109 -44c-0.666992 -0.666992 -2 -1 -4 -1s-3.33301 0.333008 -4 1l-108 44c-8.66699 3.33301 -13 10 -13 20v23c0 10 4.33301 13.333 13 10l104 -42c2.66699 -1.33301 5.33398 -2 8.00098 -2s5.33398 0.666992 8.00098 2
l105 42c8 3.33301 12 0 12 -10v-23zM369.998 548c0 -104 -36.333 -208.669 -109 -314.002c-58 -84.667 -130.333 -158.667 -217 -222l-5 -5v0c-0.666992 0 -2.66699 -1.33301 -6 -4c-8.66699 -6 -13 -5 -13 3v39c0 7.33301 3.66699 14 11 20
c78.667 60 143.667 128.667 195 206c62.667 94 94 186.333 94 277c0 34.667 -7.33301 52 -22 52h-203c-20.667 0 -38.334 7.33301 -53.001 22s-22 32.334 -22 53.001s7.33301 38.334 22 53.001s32.334 22 53.001 22h187c8.66699 0 13 -4 13 -12v-25
c0 -8.66699 -4.33301 -13 -13 -13h-187c-16.667 0 -25 -8.33301 -25 -25s8.33301 -25 25 -25h213c41.333 0 62 -34 62 -102z" />
    <glyph glyph-name="Ydieresis" unicode="&#x178;" horiz-adv-x="381" 
d="M315 813c0 -8.66699 -4.33301 -13 -13 -13h-50c-8 0 -12 4.33301 -12 13v25c0 8 4 12 12 12h50c8.66699 0 13 -4 13 -12v-25zM140 813c0 -8.66699 -4.33301 -13 -13 -13h-50c-8 0 -12 4.33301 -12 13v25c0 8 4 12 12 12h50c8.66699 0 13 -4 13 -12v-25zM366 744
c0 -1.33301 -0.667969 -2.99902 -2.00098 -4.99902c-65.333 -79.333 -115.333 -171 -150 -275c-32.667 -99.333 -49 -202.666 -49 -309.999c0 -38 3 -85 9 -141c1.33301 -8.66699 -2.33398 -13 -11.001 -13h-25c-8.66699 0 -13.334 4.33301 -14.001 13
c-6 54.667 -9 101.667 -9 141c0 112.667 17 221.667 51 327c2.66699 7.33301 2.33398 13.666 -0.999023 18.999l-149 238c-0.666992 1.33301 -1 2.66602 -1 3.99902c0 5.33301 2.66699 8 8 8h38c4.66699 0 8.33398 -2.33301 11.001 -7l114 -183c4 -6 7.33301 -6 10 0
c32.667 76 68.334 137.667 107.001 185c2.66699 3.33301 6 5 10 5h46c4.66699 0 7 -2 7 -6z" />
    <glyph glyph-name="Zcaron" unicode="&#x17d;" 
d="M326 836c0 -10 -4.00195 -16.667 -12.002 -20l-108 -44c-1.33301 -0.666992 -3 -1 -5 -1s-3.33301 0.333008 -4 1l-108 44c-8.66699 3.33301 -13 10 -13 20v23c0 10 4.33301 13.333 13 10l104 -42c2.66699 -1.33301 5.33398 -2 8.00098 -2s5.33398 0.666992 8.00098 2
l105 42c8 3.33301 12 0 12 -10v-23zM374.998 13c0 -8.66699 -3.99805 -13 -11.998 -13h-304c-22.667 0 -34 23 -34 69c0 116 21 229.833 63 341.5s99.333 206.5 172 284.5c3.33301 3.33301 2.66602 5 -2.00098 5h-220c-8.66699 0 -13 4.33301 -13 13v25
c0 8 4.33301 12 13 12h325c8 0 12 -4.33301 12 -13c0 -4 -2 -7.33301 -6 -10c-88.667 -68 -159.834 -162.333 -213.501 -283s-80.5 -245.667 -80.5 -375c0 -12.667 4.33301 -19 13 -19h275c8 0 12 -4 12 -12v-25z" />
    <glyph glyph-name="zcaron" unicode="&#x17e;" 
d="M324 836c0 -10 -4.33398 -16.667 -13.001 -20l-108 -44c-0.666992 -0.666992 -2 -1 -4 -1s-3.33301 0.333008 -4 1l-109 44c-8 3.33301 -12 10 -12 20v23c0 10 4 13.333 12 10l104 -42c3.33301 -1.33301 6.33301 -2 9 -2s5.33398 0.666992 8.00098 2l104 42
c8.66699 3.33301 13 0 13 -10v-23zM369.999 13c0 -8.66699 -4 -13 -12 -13h-325c-8.66699 -0 -13 4.33301 -13 13c0 2 0.666992 4 2 6l277 674c2 4.66699 0.333008 7 -5 7h-261c-8.66699 0 -13 4.33301 -13 13v25c0 8 4.33301 12 13 12h324c8.66699 0 13 -4 13 -12
c0 -2 -0.333008 -4 -1 -6l-278 -675c-2 -4.66699 -0.333008 -7 5 -7h262c8 0 12 -4 12 -12v-25z" />
    <glyph glyph-name="florin" unicode="&#x192;" horiz-adv-x="310" 
d="M250 563c0 -8.66699 -4 -13 -12 -13h-115c-8.66699 0 -13 -4 -13 -12v-525c0 -8.66699 -4 -13 -12 -13h-25c-8.66699 -0 -13 4.33301 -13 13v712c0 16.667 8.33301 25 25 25h153c8 0 12 -4 12 -12v-25c0 -8.66699 -4 -13 -12 -13h-115c-8.66699 0 -13 -4 -13 -12v-75
c0 -8.66699 4.33301 -13 13 -13h115c8 0 12 -4 12 -12v-25z" />
    <glyph glyph-name="circumflex" unicode="&#x2c6;" horiz-adv-x="370" 
d="M310 783c0 -10 -3.99805 -13.333 -11.998 -10l-105 42c-2.66699 1.33301 -5.33398 2 -8.00098 2s-5.33398 -0.666992 -8.00098 -2l-104 -42c-8.66699 -3.33301 -13 0 -13 10v23c0 10 4.33301 16.667 13 20l108 44c0.666992 0.666992 2 1 4 1s3.33301 -0.333008 4 -1
l109 -44c8 -3.33301 12 -10 12 -20v-23z" />
    <glyph glyph-name="caron" unicode="&#x2c7;" horiz-adv-x="370" 
d="M310 836c0 -10 -4.00195 -16.667 -12.002 -20l-109 -44c-0.666992 -0.666992 -2 -1 -4 -1s-3.33301 0.333008 -4 1l-108 44c-8.66699 3.33301 -13 10 -13 20v23c0 10 4.33301 13.333 13 10l104 -42c2.66699 -1.33301 5.33398 -2 8.00098 -2s5.33398 0.666992 8.00098 2
l105 42c8 3.33301 12 0 12 -10v-23z" />
    <glyph glyph-name="breve" unicode="&#x2d8;" horiz-adv-x="363" 
d="M303 833c-31.333 -41.333 -72 -62 -122 -62c-50.667 0 -91 20.667 -121 62c-7.33301 8.66699 -7 13 1 13h45c6.66699 0 11 -1 13 -3c20 -16 40.667 -24 62 -24c22 0 43 8 63 24c2 2 6.33301 3 13 3h44c7.33301 0 8 -4.33301 2 -13z" />
    <glyph glyph-name="dotaccent" unicode="&#x2d9;" horiz-adv-x="220" 
d="M160 786c0 -5.33301 -2.66699 -8 -8 -8h-84c-5.33301 0 -8 2.66699 -8 8v84c0 5.33301 2.66699 8 8 8h84c5.33301 0 8 -2.66699 8 -8v-84z" />
    <glyph glyph-name="ring" unicode="&#x2da;" horiz-adv-x="270" 
d="M210 845c0 -20.667 -7.33301 -38.334 -22 -53.001s-32.334 -22 -53.001 -22s-38.334 7.33301 -53.001 22s-22 32.334 -22 53.001s7.33301 38.334 22 53.001s32.334 22 53.001 22s38.334 -7.33301 53.001 -22s22 -32.334 22 -53.001zM168 845
c0 9.33301 -3.16699 17.166 -9.5 23.499s-14.166 9.5 -23.499 9.5s-17.166 -3.16699 -23.499 -9.5s-9.5 -14.166 -9.5 -23.499s3.16699 -17.166 9.5 -23.499s14.166 -9.5 23.499 -9.5s17.166 3.16699 23.499 9.5s9.5 14.166 9.5 23.499z" />
    <glyph glyph-name="ogonek" unicode="&#x2db;" horiz-adv-x="274" 
d="M214 -84c1.33301 -8 -1.99902 -12.6641 -9.99902 -13.9971c-28 -4.66699 -50.333 -7 -67 -7c-48.667 -0.666992 -74.334 14 -77.001 44c-2.66699 35.333 33 71.333 107 108c4 2 8 3 12 3c16 0 24 -8.66699 24 -26c0 -10 -4.33301 -17 -13 -21s-17 -7.33301 -25 -10
c-14.667 -6.66699 -28 -16.334 -40 -29.001c-3.33301 -4 -5 -7.66699 -5 -11c0 -4.66699 3.66699 -7.33398 11 -8.00098c13.333 -0.666992 27.333 0.333008 42 3l23 4c8 1.33301 12.667 -2.33398 14 -11.001z" />
    <glyph glyph-name="tilde" unicode="&#x2dc;" horiz-adv-x="370" 
d="M310 797c0 -8.66699 -2.66504 -14.334 -7.99805 -17.001c-13.333 -6.66699 -28 -10 -44 -10c-18 0 -43.333 5.33301 -76 16s-55.334 16 -68.001 16c-14.667 0 -26.667 -4.66699 -36 -14l-4 -4h-14v41c0 8.66699 3 14.334 9 17.001c12.667 6.66699 27 10 43 10
c18 0 43.167 -5 75.5 -15s54.833 -15 67.5 -15c15.333 0 27.666 4 36.999 12l4 4c9.33301 9.33301 14 9.33301 14 0v-41z" />
    <glyph glyph-name="hungarumlaut" unicode="&#x2dd;" horiz-adv-x="470" 
d="M410 861v-26.001c0 -8.66699 -4.33301 -14.667 -13 -18l-150 -48c-3.33301 -1.33301 -6.16602 -1 -8.49902 1s-3.5 4.66699 -3.5 8v26c0 8.66699 4 14.334 12 17.001l151 49c3.33301 1.33301 6.16602 1 8.49902 -1s3.5 -4.66699 3.5 -8zM235 860.999v-26.001
c0 -8.66699 -4 -14.667 -12 -18l-151 -48c-3.33301 -1.33301 -6.16602 -1 -8.49902 1s-3.5 4.66699 -3.5 8v26c0 8.66699 4.33301 14.334 13 17.001l150 49c3.33301 1.33301 6.16602 1 8.49902 -1s3.5 -4.66699 3.5 -8z" />
    <glyph glyph-name="Delta" unicode="&#x394;" horiz-adv-x="650" 
 />
    <glyph glyph-name="Delta" unicode="&#x2206;" horiz-adv-x="650" 
 />
    <glyph glyph-name="pi" unicode="&#x3c0;" horiz-adv-x="470" 
d="M410 75c0 -20.667 -7.33301 -38.334 -22 -53.001s-32.334 -22 -53.001 -22h-200c-20.667 0 -38.334 7.33301 -53.001 22s-22 32.334 -22 53.001v600c0 20.667 7.33301 38.334 22 53.001s32.334 22 53.001 22h200c20.667 0 38.334 -7.33301 53.001 -22
s22 -32.334 22 -53.001v-600zM360 75v600c0 16.667 -8.33301 25 -25 25h-200c-16.667 0 -25 -8.33301 -25 -25v-600c0 -16.667 8.33301 -25 25 -25h200c16.667 0 25 8.33301 25 25zM310 589c0 -65.333 -10.001 -134 -30.001 -206c-19.333 -68 -42.666 -123 -69.999 -165
v-105c0 -8.66699 -4 -13 -12 -13h-25c-8.66699 0 -13 4.33301 -13 13v512c0 16.667 8.33301 25 25 25h100c16.667 0 25 -8.33301 25 -25v-36zM259.999 588c0 8 -4 12 -12 12h-25c-8.66699 0 -13 -4 -13 -12v-257c33.333 87.333 50 173 50 257z" />
    <glyph glyph-name="endash" unicode="&#x2013;" horiz-adv-x="370" 
d="M310 364c0 -8.66699 -4 -13 -12 -13h-225c-8.66699 0 -13 4.33301 -13 13v25c0 8 4.33301 12 13 12h225c8 0 12 -4 12 -12v-25z" />
    <glyph glyph-name="emdash" unicode="&#x2014;" horiz-adv-x="470" 
d="M410 364c0 -8.66699 -4 -13 -12 -13h-325c-8.66699 0 -13 4.33301 -13 13v25c0 8 4.33301 12 13 12h325c8 0 12 -4 12 -12v-25z" />
    <glyph glyph-name="quoteleft" unicode="&#x2018;" horiz-adv-x="195" 
d="M135 613c0 -8.66699 -3.99902 -13 -11.999 -13h-50c-8.66699 0 -13 4.33301 -13 13v89c0 22 10 37.333 30 46c2 1.33301 4.33301 2 7 2c7.33301 0 11.666 -4 12.999 -12v-50c0 -6.66699 4.16699 -11 12.5 -13s12.5 -6 12.5 -12v-50z" />
    <glyph glyph-name="quoteright" unicode="&#x2019;" horiz-adv-x="195" 
d="M135 648c0 -22 -10.001 -37.333 -30.001 -46c-2 -1.33301 -4.33301 -2 -7 -2c-7.33301 0 -11.666 4 -12.999 12v51c0 6 -4.16699 10 -12.5 12s-12.5 6.33301 -12.5 13v50c0 8 4.33301 12 13 12h50c8 0 12 -4 12 -12v-90z" />
    <glyph glyph-name="quotesinglbase" unicode="&#x201a;" horiz-adv-x="195" 
d="M135 -27c0 -22 -10.001 -37.333 -30.001 -46c-2 -1.33301 -4.33301 -2 -7 -2c-7.33301 0 -11.666 4 -12.999 12v51c0 6 -4.16699 10 -12.5 12s-12.5 6.33301 -12.5 13v50c0 8 4.33301 12 13 12h50c8 0 12 -4 12 -12v-90z" />
    <glyph glyph-name="quotedblleft" unicode="&#x201c;" horiz-adv-x="320" 
d="M260 613c0 -8.66699 -3.99902 -13 -11.999 -13h-50c-8.66699 0 -13 4.33301 -13 13v89c0 22 10 37.333 30 46c2 1.33301 4.33301 2 7 2c7.33301 0 11.666 -4 12.999 -12v-50c0 -6.66699 4.16699 -11 12.5 -13s12.5 -6 12.5 -12v-50zM135.001 613
c0 -8.66699 -3.99902 -13 -11.999 -13h-50c-8.66699 0 -13 4.33301 -13 13v89c0 22 10 37.333 30 46c2 1.33301 4.33301 2 7 2c7.33301 0 11.666 -4 12.999 -12v-50c0 -6.66699 4.16699 -11 12.5 -13s12.5 -6 12.5 -12v-50z" />
    <glyph glyph-name="quotedblright" unicode="&#x201d;" horiz-adv-x="320" 
d="M260 648c0 -22 -10.001 -37.333 -30.001 -46c-2 -1.33301 -4.33301 -2 -7 -2c-7.33301 0 -11.666 4 -12.999 12v51c0 6 -4.16699 10 -12.5 12s-12.5 6.33301 -12.5 13v50c0 8 4.33301 12 13 12h50c8 0 12 -4 12 -12v-90zM134.999 648c0 -22 -10.001 -37.333 -30.001 -46
c-2 -1.33301 -4.33301 -2 -7 -2c-7.33301 0 -11.666 4 -12.999 12v51c0 6 -4.16699 10 -12.5 12s-12.5 6.33301 -12.5 13v50c0 8 4.33301 12 13 12h50c8 0 12 -4 12 -12v-90z" />
    <glyph glyph-name="quotedblbase" unicode="&#x201e;" horiz-adv-x="320" 
d="M260 -27c0 -22 -10.001 -37.333 -30.001 -46c-2 -1.33301 -4.33301 -2 -7 -2c-7.33301 0 -11.666 4 -12.999 12v51c0 6 -4.16699 10 -12.5 12s-12.5 6.33301 -12.5 13v50c0 8 4.33301 12 13 12h50c8 0 12 -4 12 -12v-90zM134.999 -27c0 -22 -10.001 -37.333 -30.001 -46
c-2 -1.33301 -4.33301 -2 -7 -2c-7.33301 0 -11.666 4 -12.999 12v51c0 6 -4.16699 10 -12.5 12s-12.5 6.33301 -12.5 13v50c0 8 4.33301 12 13 12h50c8 0 12 -4 12 -12v-90z" />
    <glyph glyph-name="dagger" unicode="&#x2020;" horiz-adv-x="470" 
d="M410 538c0 -8.66699 -4 -13 -12 -13h-25c-6.66699 0 -11 4.16699 -13 12.5s-6 12.5 -12 12.5h-75c-8.66699 0 -13 -4 -13 -12v-525c0 -8.66699 -4 -13 -12 -13h-25c-8.66699 -0 -13 4.33301 -13 13v525c0 8 -4 12 -12 12h-75c-6.66699 0 -11 -4.16699 -13 -12.5
s-6 -12.5 -12 -12.5h-25c-8.66699 0 -13 4.33301 -13 13v75c0 8 4.33301 12 13 12h25c6 0 10 -4.16699 12 -12.5s6.33301 -12.5 13 -12.5h75c8 0 12 4.33301 12 13v75c0 6 -4.16699 10 -12.5 12s-12.5 6.33301 -12.5 13v25c0 8 4.33301 12 13 12h75c8 0 12 -4 12 -12v-25
c0 -6.66699 -4.16699 -11 -12.5 -13s-12.5 -6 -12.5 -12v-75c0 -8.66699 4.33301 -13 13 -13h75c6 0 10 4.16699 12 12.5s6.33301 12.5 13 12.5h25c8 0 12 -4 12 -12v-75z" />
    <glyph glyph-name="daggerdbl" unicode="&#x2021;" horiz-adv-x="470" 
d="M410 138c0 -8.66699 -4 -13 -12 -13h-25c-6.66699 0 -11 4.16699 -13 12.5s-6 12.5 -12 12.5h-75c-8.66699 0 -13 -4 -13 -12v-75c0 -6.66699 4.16699 -11 12.5 -13s12.5 -6 12.5 -12v-25c0 -8.66699 -4 -13 -12 -13h-75c-8.66699 -0 -13 4.33301 -13 13v25
c0 6 4.16699 10 12.5 12s12.5 6.33301 12.5 13v75c0 8 -4 12 -12 12h-75c-6.66699 0 -11 -4.16699 -13 -12.5s-6 -12.5 -12 -12.5h-25c-8.66699 0 -13 4.33301 -13 13v75c0 8 4.33301 12 13 12h25c6 0 10 -4.16699 12 -12.5s6.33301 -12.5 13 -12.5h75c8 0 12 4.33301 12 13
v325c0 8 -4 12 -12 12h-75c-6.66699 0 -11 -4.16699 -13 -12.5s-6 -12.5 -12 -12.5h-25c-8.66699 0 -13 4.33301 -13 13v75c0 8 4.33301 12 13 12h25c6 0 10 -4.16699 12 -12.5s6.33301 -12.5 13 -12.5h75c8 0 12 4.33301 12 13v75c0 6 -4.16699 10 -12.5 12
s-12.5 6.33301 -12.5 13v25c0 8 4.33301 12 13 12h75c8 0 12 -4 12 -12v-25c0 -6.66699 -4.16699 -11 -12.5 -13s-12.5 -6 -12.5 -12v-75c0 -8.66699 4.33301 -13 13 -13h75c6 0 10 4.16699 12 12.5s6.33301 12.5 13 12.5h25c8 0 12 -4 12 -12v-75
c0 -8.66699 -4 -13 -12 -13h-25c-6.66699 0 -11 4.16699 -13 12.5s-6 12.5 -12 12.5h-75c-8.66699 0 -13 -4 -13 -12v-325c0 -8.66699 4.33301 -13 13 -13h75c6 0 10 4.16699 12 12.5s6.33301 12.5 13 12.5h25c8 0 12 -4 12 -12v-75z" />
    <glyph glyph-name="bullet" unicode="&#x2022;" horiz-adv-x="310" 
d="M230 319c0 -12.667 -6.33301 -19 -19 -19h-112c-12.667 0 -19 6.33301 -19 19v112c0 12.667 6.33301 19 19 19h112c12.667 0 19 -6.33301 19 -19v-112zM185 352v46c0 4.66699 -2.33301 7 -7 7h-46c-4.66699 0 -7 -2.33301 -7 -7v-46c0 -4.66699 2.33301 -7 7 -7h46
c4.66699 0 7 2.33301 7 7z" />
    <glyph glyph-name="ellipsis" unicode="&#x2026;" horiz-adv-x="574" 
d="M474 13c0 -8.66699 -4.33301 -13 -13 -13h-50c-8 -0 -12 4.33301 -12 13v50c0 8 4 12 12 12h50c8.66699 0 13 -4 13 -12v-50zM299 13c0 -8.66699 -4.33301 -13 -13 -13h-50c-8 -0 -12 4.33301 -12 13v50c0 8 4 12 12 12h50c8.66699 0 13 -4 13 -12v-50zM124 13
c0 -8.66699 -4.33301 -13 -13 -13h-50c-8 -0 -12 4.33301 -12 13v50c0 8 4 12 12 12h50c8.66699 0 13 -4 13 -12v-50z" />
    <glyph glyph-name="perthousand" unicode="&#x2030;" horiz-adv-x="692" 
d="M260 650c0 -27.333 -9.83301 -50.833 -29.5 -70.5s-43.167 -29.5 -70.5 -29.5s-50.833 9.83301 -70.5 29.5s-29.5 43.167 -29.5 70.5s9.83301 50.833 29.5 70.5s43.167 29.5 70.5 29.5s50.833 -9.83301 70.5 -29.5s29.5 -43.167 29.5 -70.5zM632 100
c0 -27.333 -9.66699 -50.833 -29 -70.5s-43 -29.5 -71 -29.5c-27.333 -0 -50.833 9.83301 -70.5 29.5s-29.5 43.167 -29.5 70.5s9.83301 50.833 29.5 70.5s43.167 29.5 70.5 29.5c28 0 51.667 -9.83301 71 -29.5s29 -43.167 29 -70.5zM399 738l-279.002 -725
c-3.33301 -8.66699 -9.66602 -13 -18.999 -13h-26c-9.33301 -0 -12.333 4.33301 -9 13l280 725c3.33301 8 9.33301 12 18 12h27c8.66699 0 11.334 -4 8.00098 -12zM403.998 100c0 -27.333 -9.66699 -50.833 -29 -70.5s-43 -29.5 -71 -29.5
c-27.333 -0 -50.833 9.83301 -70.5 29.5s-29.5 43.167 -29.5 70.5s9.83301 50.833 29.5 70.5s43.167 29.5 70.5 29.5c28 0 51.667 -9.83301 71 -29.5s29 -43.167 29 -70.5zM213.998 650c0 14.667 -5.33301 27.334 -16 38.001s-23.334 16 -38.001 16
s-27.334 -5.33301 -38.001 -16s-16 -23.334 -16 -38.001s5.33301 -27.334 16 -38.001s23.334 -16 38.001 -16s27.334 5.33301 38.001 16s16 23.334 16 38.001zM585.998 100c0 14.667 -5.33301 27.334 -16 38.001s-23.334 16 -38.001 16s-27.167 -5.33301 -37.5 -16
s-15.5 -23.334 -15.5 -38.001s5.16699 -27.334 15.5 -38.001s22.833 -16 37.5 -16s27.334 5.33301 38.001 16s16 23.334 16 38.001zM357.998 100c0 14.667 -5.16699 27.334 -15.5 38.001s-23.166 16 -38.499 16c-14.667 0 -27.167 -5.33301 -37.5 -16
s-15.5 -23.334 -15.5 -38.001s5.16699 -27.334 15.5 -38.001s22.833 -16 37.5 -16c15.333 0 28.166 5.33301 38.499 16s15.5 23.334 15.5 38.001z" />
    <glyph glyph-name="guilsinglleft" unicode="&#x2039;" horiz-adv-x="415" 
d="M335 126c0 -11.333 -3 -14.334 -9 -9.00098l-239 239c-4.66699 4.66699 -7 10.667 -7 18c0 6.66699 2.33301 12.334 7 17.001l239 239c6 6 9 3 9 -9v-35c0 -12 -3 -21 -9 -27l-177 -176c-6 -6 -6 -12 0 -18l177 -177c6 -6 9 -14.667 9 -26v-36z" />
    <glyph glyph-name="guilsinglright" unicode="&#x203a;" horiz-adv-x="415" 
d="M327 356l-238 -238.999c-6 -5.33301 -9 -2.33301 -9 9v36c0 11.333 3 20 9 26l177 177c5.33301 6 5.33301 12 0 18l-177 176c-6 6 -9 15 -9 27v35c0 12 3 15 9 9l238 -239c5.33301 -4.66699 8 -10.334 8 -17.001c0 -7.33301 -2.66699 -13.333 -8 -18z" />
    <glyph glyph-name="fraction" unicode="&#x2044;" horiz-adv-x="359" 
d="M354 738l-299 -725c-3.33301 -8.66699 -9.33301 -13 -18 -13h-25c-8 -0 -10.333 4.33301 -7 13l299 725c3.33301 8 9.33301 12 18 12h25c8 0 10.333 -4 7 -12z" />
    <glyph glyph-name="trademark" unicode="&#x2122;" horiz-adv-x="451" 
d="M401 360c0 -8.66699 -4.33301 -12.999 -13 -12.999h-13c-8 0 -12 4.33301 -12 13v262l-42 -88c-0.666992 -2 -0.666992 -4.33301 0 -7v-1c5.33301 -32.667 8 -63.667 8 -93c0 -20.667 -1.33301 -42.334 -4 -65.001l-1 -9c-0.666992 -8 -5 -12 -13 -12h-14
c-8.66699 0 -12.334 4.33301 -11.001 13v9c2.66699 24.667 4 46 4 64c0 76.667 -15.333 147.667 -46 213v-286c0 -8.66699 -4 -13 -12 -13h-13c-8.66699 0 -13 4.33301 -13 13v377c0 8.66699 4.33301 13 13 13c4 0 7.33301 -1.66699 10 -5
c34.667 -44.667 60.334 -96 77.001 -154l71 152c2 4.66699 5.66699 7 11 7c8.66699 0 13 -4.33301 13 -13v-377zM192 724.001c0 -8 -4 -12 -12 -12h-39l-1 -352c0 -8.66699 -4 -13 -12 -13h-13c-8.66699 0 -13 4.33301 -13 13v351l-39 1c-8.66699 0 -13 4 -13 12v13
c0 8.66699 4.33301 13 13 13h117c8 0 12 -4.33301 12 -13v-13z" />
    <glyph glyph-name="partialdiff" unicode="&#x2202;" horiz-adv-x="800" 
d="M760 13c0 -8.66699 -4 -13 -12 -13h-25c-8.66699 -0 -13 4.33301 -13 13v525c0 8 -4 12 -12 12h-225c-8.66699 0 -13 -4 -13 -12v-19c-16 11.333 -32.667 21 -50 29v177c0 16.667 8.33301 25 25 25h300c16.667 0 25 -8.33301 25 -25v-712zM460 13
c0 -8.66699 -4.00098 -12.999 -12.001 -12.999h-25c-8.66699 0 -13 4.33301 -13 13v418c20.667 -16.667 37.334 -36.334 50.001 -59.001v-359zM559.999 275.001c0 -72.667 -24.999 -135.667 -74.999 -189v86c16.667 32 25 66.333 25 103c0 62 -22 115 -66 159
s-97 66 -159 66s-115 -22 -159 -66s-66 -97 -66 -159s22 -115 66 -159s97 -66 159 -66c35.333 0 68.666 7.66699 99.999 23v-48v-6c-32 -12.667 -65.333 -19 -100 -19c-76 0 -140.833 26.833 -194.5 80.5s-80.5 118.5 -80.5 194.5s26.833 140.833 80.5 194.5
s118.5 80.5 194.5 80.5s140.833 -26.833 194.5 -80.5s80.5 -118.5 80.5 -194.5zM710 613.001v75c0 8 -4 12 -12 12h-225c-8.66699 0 -13 -4 -13 -12v-75c0 -8.66699 4.33301 -13 13 -13h225c8 0 12 4.33301 12 13z" />
    <glyph glyph-name="product" unicode="&#x220f;" horiz-adv-x="800" 
d="M760 13c0 -8.66699 -4 -13 -12 -13h-25c-8.66699 -0 -13 4.33301 -13 13v517c0 8 -2.33301 13.333 -7 16c-75.333 57.333 -154 102.333 -236 135c-4.66699 2 -7 0.666992 -7 -4v-158c-16 11.333 -32.667 21 -50 29v190c0 11.333 5.66699 15 17 11
c93.333 -30.667 185 -77.334 275 -140.001c5.33301 -3.33301 8 -1.66602 8 5.00098v124c0 8 4.33301 12 13 12h25c8 0 12 -4 12 -12v-725zM460 13c0 -8.66699 -4.00098 -12.999 -12.001 -12.999h-25c-8.66699 0 -13 4.33301 -13 13v418
c20.667 -16.667 37.334 -36.334 50.001 -59.001v-359zM559.999 275.001c0 -72.667 -24.999 -135.667 -74.999 -189v86c16.667 32 25 66.333 25 103c0 62 -22 115 -66 159s-97 66 -159 66s-115 -22 -159 -66s-66 -97 -66 -159s22 -115 66 -159s97 -66 159 -66
c35.333 0 68.666 7.66699 99.999 23v-54c-32 -12.667 -65.333 -19 -100 -19c-76 0 -140.833 26.833 -194.5 80.5s-80.5 118.5 -80.5 194.5s26.833 140.833 80.5 194.5s118.5 80.5 194.5 80.5s140.833 -26.833 194.5 -80.5s80.5 -118.5 80.5 -194.5z" />
    <glyph glyph-name="summation" unicode="&#x2211;" horiz-adv-x="794" 
d="M779 13c1.33301 -8.66699 -2 -13 -10 -13h-26c-8.66699 -0 -13.667 4.33301 -15 13l-128 627c-1.33301 8 -6.33301 11 -15 9l-114 -31c-7.33301 -2 -11 -6.66699 -11 -14v-85c-16 11.333 -32.667 21 -50 29v190c0 8 4.33301 12 13 12h25c8 0 12 -4 12 -12v-56
c0 -8.66699 4.66699 -12.667 14 -12l290 80c8.66699 2 13 -1.33301 13 -10v-26c0 -8.66699 -4.33301 -14 -13 -16l-106 -29c-8 -2.66699 -11.333 -7.66699 -10 -15zM460 13c0 -8.66699 -4.00098 -12.999 -12.001 -12.999h-25c-8.66699 0 -13 4.33301 -13 13v418
c20.667 -16.667 37.334 -36.334 50.001 -59.001v-359zM559.999 275.001c0 -72.667 -24.999 -135.667 -74.999 -189v86c16.667 32 25 66.333 25 103c0 62 -22 115 -66 159s-97 66 -159 66s-115 -22 -159 -66s-66 -97 -66 -159s22 -115 66 -159s97 -66 159 -66
c35.333 0 68.666 7.66699 99.999 23v-48v-6c-32 -12.667 -65.333 -19 -100 -19c-76 0 -140.833 26.833 -194.5 80.5s-80.5 118.5 -80.5 194.5s26.833 140.833 80.5 194.5s118.5 80.5 194.5 80.5s140.833 -26.833 194.5 -80.5s80.5 -118.5 80.5 -194.5z" />
    <glyph glyph-name="radical" unicode="&#x221a;" horiz-adv-x="800" 
d="M760 13c0 -8.66699 -4 -13 -12 -13h-25c-8.66699 -0 -13 4.33301 -13 13v575c0 8 -4 12 -12 12h-225c-8.66699 0 -13 -4 -13 -12v-69c-16 11.333 -32.667 21 -50 29v190c0 8 4.33301 12 13 12h25c8 0 12 -4 12 -12v-75c0 -8.66699 4.33301 -13 13 -13h225
c8 0 12 4.33301 12 13v75c0 8 4.33301 12 13 12h25c8 0 12 -4 12 -12v-725zM460 13c0 -8.66699 -4.00098 -12.999 -12.001 -12.999h-25c-8.66699 0 -13 4.33301 -13 13v418c20.667 -16.667 37.334 -36.334 50.001 -59.001v-359zM559.999 275.001
c0 -72.667 -24.999 -135.667 -74.999 -189v86c16.667 32 25 66.333 25 103c0 62 -22 115 -66 159s-97 66 -159 66s-115 -22 -159 -66s-66 -97 -66 -159s22 -115 66 -159s97 -66 159 -66c35.333 0 68.666 7.66699 99.999 23v-48v-6c-32 -12.667 -65.333 -19 -100 -19
c-76 0 -140.833 26.833 -194.5 80.5s-80.5 118.5 -80.5 194.5s26.833 140.833 80.5 194.5s118.5 80.5 194.5 80.5s140.833 -26.833 194.5 -80.5s80.5 -118.5 80.5 -194.5z" />
    <glyph glyph-name="infinity" unicode="&#x221e;" horiz-adv-x="720" 
d="M560 475c0 -76 -26.833 -140.832 -80.5 -194.499s-118.5 -80.5 -194.5 -80.5c-12.667 0 -25 0.666992 -37 2c-6.66699 17.333 -10.667 35 -12 53c16 -3.33301 32.333 -5 49 -5c62 0 115 22 159 66s66 97 66 159s-22 115 -66 159s-97 66 -159 66s-115 -22 -159 -66
s-66 -97 -66 -159c0 -68 25.333 -124.333 76 -169c-0.666992 -10 -1 -20.333 -1 -31s0.666992 -21.334 2 -32.001c-39.333 25.333 -70.333 58.333 -93 99s-34 85 -34 133c0 76 26.833 140.833 80.5 194.5s118.5 80.5 194.5 80.5s140.833 -26.833 194.5 -80.5
s80.5 -118.5 80.5 -194.5zM710 275.001c0 -76 -26.833 -140.834 -80.5 -194.501s-118.5 -80.5 -194.5 -80.5s-140.833 26.833 -194.5 80.5s-80.5 118.5 -80.5 194.5s26.833 140.833 80.5 194.5s118.5 80.5 194.5 80.5c12 0 24 -0.666992 36 -2
c7.33301 -17.333 11.666 -35 12.999 -53c-16 3.33301 -32.333 5 -49 5c-62 0 -115 -22 -159 -66s-66 -97 -66 -159s22 -115 66 -159s97 -66 159 -66s115 22 159 66s66 97 66 159c0 68 -25.333 124.333 -76 169c0.666992 10 1 20.333 1 31s-0.333008 21.334 -1 32.001
c38.667 -25.333 69.334 -58.333 92.001 -99s34 -85 34 -133z" />
    <glyph glyph-name="approxequal" unicode="&#x2248;" horiz-adv-x="710" 
d="M670 13c0 -8.66699 -4.33301 -13 -13 -13h-25c-8 -0 -12 4.33301 -12 13v525c0 8 -4.33301 12 -13 12h-225c-8 0 -12 -4 -12 -12v-525c0 -8.66699 -4.33301 -13 -13 -13h-25c-8 -0 -12 4.33301 -12 13v625c0 8 4 12 12 12h25c8.66699 0 13 -4 13 -12v-25
c0 -8.66699 4 -13 12 -13h225c8.66699 0 13 4.33301 13 13v125c0 8 4 12 12 12h25c8.66699 0 13 -4 13 -12v-725zM370 713c0 -8.66699 -4.33301 -13 -13 -13h-125c-8 0 -12 -4 -12 -12v-675c0 -8.66699 -4.33301 -13 -13 -13h-25c-8 -0 -12 4.33301 -12 13v675
c0 8 -4.33301 12 -13 12h-125c-8 0 -12 4.33301 -12 13v25c0 8 4 12 12 12h325c8.66699 0 13 -4 13 -12v-25z" />
    <glyph glyph-name="approxequal" unicode="&#x22f2;" horiz-adv-x="710" 
d="M670 13c0 -8.66699 -4.33301 -13 -13 -13h-25c-8 -0 -12 4.33301 -12 13v525c0 8 -4.33301 12 -13 12h-225c-8 0 -12 -4 -12 -12v-525c0 -8.66699 -4.33301 -13 -13 -13h-25c-8 -0 -12 4.33301 -12 13v625c0 8 4 12 12 12h25c8.66699 0 13 -4 13 -12v-25
c0 -8.66699 4 -13 12 -13h225c8.66699 0 13 4.33301 13 13v125c0 8 4 12 12 12h25c8.66699 0 13 -4 13 -12v-725zM370 713c0 -8.66699 -4.33301 -13 -13 -13h-125c-8 0 -12 -4 -12 -12v-675c0 -8.66699 -4.33301 -13 -13 -13h-25c-8 -0 -12 4.33301 -12 13v675
c0 8 -4.33301 12 -13 12h-125c-8 0 -12 4.33301 -12 13v25c0 8 4 12 12 12h325c8.66699 0 13 -4 13 -12v-25z" />
    <glyph glyph-name="notequal" unicode="&#x2260;" horiz-adv-x="370" 
d="M310 313c0 -8 -4.00098 -12 -12.001 -12h-119l-15 -38c-3.33301 -8 -9.33301 -12 -18 -12h-25c-8 0 -10.333 4 -7 12l15 38h-56c-8.66699 0 -13 4 -13 12v25c0 8.66699 4.33301 13 13 13h77l20 50h-97c-8.66699 0 -13 4.33301 -13 13v25c0 8 4.33301 12 13 12h118l18 43
c3.33301 8 9 12 17 12h25c8.66699 0 11.334 -4 8.00098 -12l-18 -43h57c8 0 12 -4 12 -12v-25c0 -8.66699 -4 -13 -12 -13h-78l-20 -50h98c8 0 12 -4.33301 12 -13v-25z" />
    <glyph glyph-name="lessequal" unicode="&#x2264;" horiz-adv-x="375" 
d="M315 151c0 -11.333 -3 -14 -9 -8l-239 238c-4.66699 5.33301 -7 11.333 -7 18s2.33301 12.667 7 18l239 238c6 6 9 3 9 -9v-35c0 -12 -3 -21 -9 -27l-177 -176c-6 -6 -6 -12 0 -18l177 -177c6 -6 9 -14.667 9 -26v-36zM315 88c0 -8.66699 -4.33301 -13 -13 -13h-225
c-8 0 -12 4.33301 -12 13v25c0 8 4 12 12 12h225c8.66699 0 13 -4 13 -12v-25z" />
    <glyph glyph-name="greaterequal" unicode="&#x2265;" horiz-adv-x="375" 
d="M307 381l-238 -238c-6 -6 -9 -3.33301 -9 8v36c0 11.333 3 20 9 26l177 177c5.33301 6 5.33301 12 0 18l-177 176c-6 6 -9 15 -9 27v35c0 12 3 15 9 9l238 -238c5.33301 -5.33301 8 -11.333 8 -18s-2.66699 -12.667 -8 -18zM310 88c0 -8.66699 -4 -13 -12 -13h-225
c-8.66699 0 -13 4.33301 -13 13v25c0 8 4.33301 12 13 12h225c8 0 12 -4 12 -12v-25z" />
    <glyph glyph-name="lozenge" unicode="&#x25ca;" horiz-adv-x="620" 
d="M610 713c0 -8.66699 -4 -13 -12 -13h-125c-8.66699 0 -13 -4 -13 -12v-169c-16 11.333 -32.667 21 -50 29v140c0 8 -4 12 -12 12h-175c-8.66699 0 -13 4.33301 -13 13v25c0 8 4.33301 12 13 12h375c8 0 12 -4 12 -12v-25zM460 13
c0 -8.66699 -4.00098 -12.999 -12.001 -12.999h-25c-8.66699 0 -13 4.33301 -13 13v418c20.667 -16.667 37.334 -36.334 50.001 -59.001v-359zM559.999 275.001c0 -72.667 -24.999 -135.667 -74.999 -189v86c16.667 32 25 66.333 25 103c0 62 -22 115 -66 159
s-97 66 -159 66s-115 -22 -159 -66s-66 -97 -66 -159s22 -115 66 -159s97 -66 159 -66c35.333 0 68.666 7.66699 99.999 23v-48v-6c-32 -12.667 -65.333 -19 -100 -19c-76 0 -140.833 26.833 -194.5 80.5s-80.5 118.5 -80.5 194.5s26.833 140.833 80.5 194.5
s118.5 80.5 194.5 80.5s140.833 -26.833 194.5 -80.5s80.5 -118.5 80.5 -194.5z" />
    <glyph glyph-name="apple" unicode="&#xf000;" horiz-adv-x="540" 
d="M93 231c-1.33301 -11.333 -1.99805 -21.333 -1.99805 -30c0 -48 18.5 -89.833 55.5 -125.5s79.833 -53.5 128.5 -53.5c49.333 0 91.5 18 126.5 54s52.5 78.667 52.5 128c0 12.667 -1 24 -3 34l-6 6h-27c-28.667 0 -71.834 0.666992 -129.501 2s-100.834 2 -129.501 2
c-30.667 0 -52 -1.33301 -64 -4zM473.002 199c0 -58.667 -18.999 -105.669 -56.999 -141.002s-86.667 -53 -146 -53c-56.667 0 -104.5 19.5 -143.5 58.5s-58.5 86.833 -58.5 143.5c0 86.667 46.667 149.667 140 189c15.333 6.66699 32.333 10.667 51 12
c1.33301 8 2 16.333 2 25c0 5.33301 -0.333008 12.666 -1 21.999v21c-12.667 2.66699 -36.334 4 -71.001 4c-42.667 0 -66.334 -0.666992 -71.001 -2c-1.33301 -0.666992 -5 -3 -11 -7s-10.667 -6 -14 -6c-2.66699 0 -4.66699 0.666992 -6 2l10.5 25
c3.66699 8.66699 9.5 13.334 17.5 14.001c13.333 -8 36.333 -12 69 -12c9.33301 0 22.833 0.5 40.5 1.5s29.834 1.83301 36.501 2.5c1.33301 12.667 2 22.667 2 30c0 43.333 -0.333008 62 -1 56c-6.66699 0 -16.834 0.333008 -30.501 1s-23.834 1 -30.501 1
c-14.667 0 -25 -1 -31 -3c-2 -0.666992 -6 -3 -12 -7s-10.333 -6 -13 -6c-3.33301 0 -6.33301 1.33301 -9 4c4.66699 12 7.33398 18.667 8.00098 20c3.33301 7.33301 7.66602 12.333 12.999 15c11.333 -4 37 -6 77 -6h9c4 -0.666992 7 -1 9 -1c4.66699 0 8 0.666992 10 2
l-2 134c-4 4 -6 7.33301 -6 10c0 4.66699 5.33301 7 16 7c15.333 0 23 -2.33301 23 -7c0 2.66699 -3 -2.66602 -9 -15.999c-2 -6 -3 -17.333 -3 -34c0 -9.33301 0.666992 -24.5 2 -45.5s1.66602 -37.167 0.999023 -48.5c8.66699 0 22 -0.5 40 -1.5s31.333 -1.5 40 -1.5
c14.667 0 24 0.666992 28 2c6.66699 2.66699 10.667 4 12 4c0.666992 0 1.33398 -0.5 2.00098 -1.5s3 -5 7 -12s6 -12.5 6 -16.5c0 -2 -0.666992 -4.33301 -2 -7c-4 0.666992 -8.83301 3.16699 -14.5 7.5s-10.5 6.5 -14.5 6.5h-103c-2.66699 -9.33301 -4 -23.666 -4 -42.999
c0 -23.333 0.333008 -37.333 1 -42c46.667 -3.33301 82 -5 106 -5c26.667 0 42 1 46 3c10 5.33301 14.667 8 14 8c4.66699 0 8.83398 -4.5 12.501 -13.5s5.5 -16.5 5.5 -22.5v-2h-3c-2 0 -7 2.66699 -15 8c-3.33301 2 -29.666 3 -78.999 3h-86
c-1.33301 -7.33301 -2 -18 -2 -32c0 -16.667 0.333008 -29 1 -37c56 -4 101.833 -26 137.5 -66s53.5 -88 53.5 -144zM442.003 265.998c-10.667 32.667 -30.833 60.001 -60.5 82.001s-62.167 35 -97.5 39c-1.33301 -4 -2 -13.333 -2 -28c0 -20.667 1 -51.334 3 -92.001z
M259.004 267.999l0.000976562 49.999c0 40.667 -0.666992 63.334 -2 68.001c-34 -3.33301 -65.5 -15.833 -94.5 -37.5s-49.833 -48.5 -62.5 -80.5c14 -1.33301 35.667 -2 65 -2c31.333 0 62.666 0.666992 93.999 2zM392.005 83.998c0 -4 -2 -6 -6 -6h-60c-4 0 -6 2 -6 6v5
c0 16.667 11 43.667 33 81c5.33301 9.33301 8 21.333 8 36c0 4 -1.66699 6 -5 6s-5 -2 -5 -6v-7c0 -4 -2 -6 -6 -6h-5c-4 0 -6 2 -6 6v7c0 15.333 7.33301 23 22 23s22 -7.66699 22 -23c0 -18 -6.33301 -37.833 -19 -59.5s-20 -39.167 -22 -52.5h49c4 0 6 -2 6 -6v-4z
M313.005 83.998c0 -4 -2 -6 -6 -6h-60c-4 0 -6 2 -6 6v5c0 16.667 11 43.667 33 81c5.33301 9.33301 8 21.333 8 36c0 4 -1.66699 6 -5 6s-5 -2 -5 -6v-7c0 -4 -2.33301 -6 -7 -6h-4c-4 0 -6 2 -6 6v7c0 15.333 7.33301 23 22 23s22 -7.66699 22 -23
c0 -18 -6.33301 -37.833 -19 -59.5s-20 -39.167 -22 -52.5h49c4 0 6 -2 6 -6v-4zM237.005 201.998c0 -26.667 -7.33301 -48 -22 -64l-36 -40v-14c0 -4 -2 -6 -6 -6h-5c-4 0 -6 2 -6 6v132c0 5.33301 2.66699 8 8 8h51c10.667 0 16 -7.33301 16 -22zM220.005 201.998
c0 2.66699 -0.333008 4.33301 -1 5h-40v-86c27.333 24 41 51 41 81z" />
    <glyph glyph-name="fi" unicode="&#xf001;" horiz-adv-x="430" 
d="M390 13c0 -8.66699 -4 -13 -12 -13h-25c-8.66699 -0 -13 4.33301 -13 13v625c0 8 4.33301 12 13 12h25c8 0 12 -4 12 -12v-625zM390 713c0 -8.66699 -4 -13 -12 -13h-275c-8.66699 0 -13 -4 -13 -12v-75c0 -8.66699 4.33301 -13 13 -13h175c8 0 12 -4 12 -12v-25
c0 -8.66699 -4 -13 -12 -13h-175c-8.66699 0 -13 -4 -13 -12v-525c0 -8.66699 -4 -13 -12 -13h-25c-8.66699 -0 -13 4.33301 -13 13v712c0 16.667 8.33301 25 25 25h313c8 0 12 -4 12 -12v-25z" />
    <glyph glyph-name="fl" unicode="&#xf002;" horiz-adv-x="660" 
d="M640 13c0 -8.66699 -4 -13 -12 -13h-263c-16.667 -0 -25 8.33301 -25 25v613c0 8 4.33301 12 13 12h25c8 0 12 -4 12 -12v-575c0 -8.66699 4.33301 -13 13 -13h225c8 0 12 -4 12 -12v-25zM390 713c0 -8.66699 -4 -13 -12 -13h-275c-8.66699 0 -13 -4 -13 -12v-75
c0 -8.66699 4.33301 -13 13 -13h175c8 0 12 -4 12 -12v-25c0 -8.66699 -4 -13 -12 -13h-175c-8.66699 0 -13 -4 -13 -12v-525c0 -8.66699 -4 -13 -12 -13h-25c-8.66699 -0 -13 4.33301 -13 13v712c0 16.667 8.33301 25 25 25h313c8 0 12 -4 12 -12v-25z" />
    <glyph glyph-name=".null" horiz-adv-x="0" 
 />
    <glyph glyph-name="nonmarkingreturn" horiz-adv-x="276" 
 />
    </font>
</defs>
</svg>
